<svg width="247" height="255" viewBox="0 0 247 255" fill="none" xmlns="http://www.w3.org/2000/svg">
<path d="M28.1903 23.6042C27.857 24.2708 27.4403 24.5781 26.9403 24.5208C26.4403 24.4688 26.4091 23.9948 26.857 23.1042C30.2841 16.8958 35.5758 11.6615 42.732 7.39583C49.8831 3.13542 58.7789 1 69.4195 1C77.4039 1 84.607 2.30729 91.0237 4.91667C97.4508 7.51563 102.576 11.1979 106.399 15.9583C110.232 20.724 112.149 26.4323 112.149 33.0833C112.149 41.8333 109.211 49.7604 103.336 56.8542C97.4612 63.9531 89.5341 70.2708 79.5654 75.8125L44.3153 97.5833L94.0237 92.6042C98.6747 91.9375 102.242 91 104.732 89.7917C107.232 88.5729 109.175 86.625 110.565 83.9583C111.951 81.2917 113.258 77.4688 114.482 72.4792C114.701 71.8125 115.034 71.4792 115.482 71.4792C115.925 71.4792 116.091 71.8698 115.982 72.6458C114.758 81.1875 113.899 88.8958 113.399 95.7708C112.899 102.646 112.815 109.516 113.149 116.375C113.149 118.375 113.065 119.818 112.899 120.708C112.732 121.594 112.258 122.042 111.482 122.042C109.925 122.042 108.425 121.792 106.982 121.292C105.55 120.792 103.555 120.318 101.003 119.875C98.4612 119.427 94.6956 119.208 89.7112 119.208H23.1903C20.8674 119.208 19.7112 118.542 19.7112 117.208C19.7112 116.766 19.8778 116.266 20.2112 115.708C20.5445 115.156 21.2008 114.495 22.1903 113.729L38.982 98.9167C54.0653 87.0573 65.0653 75.75 71.982 65C78.9091 54.25 82.3779 44.5573 82.3779 35.9167C82.3779 27.599 80.0758 20.8073 75.482 15.5417C70.8831 10.2813 64.3153 7.64583 55.7737 7.64583C50.0081 7.64583 44.7737 8.84375 40.0653 11.2292C35.357 13.6042 31.3987 17.7292 28.1903 23.6042Z" fill="#F9E1BC"/>
<path d="M175.509 122.042C165.076 122.042 156.009 119.354 148.3 113.979C140.602 108.604 134.644 101.208 130.425 91.7917C126.217 82.3646 124.113 71.6042 124.113 59.5208C124.113 47.6615 126.352 37.2708 130.842 28.3542C135.342 19.4271 141.602 12.4687 149.634 7.47917C157.675 2.49479 167.071 0 177.821 0C188.238 0 197.3 2.6875 205.009 8.0625C212.717 13.4375 218.675 20.8125 222.884 30.1875C227.092 39.5521 229.196 50.2656 229.196 62.3333C229.196 74.6406 226.951 85.2604 222.467 94.1875C217.977 103.104 211.717 109.979 203.675 114.813C195.644 119.63 186.259 122.042 175.509 122.042ZM187.3 118.208C193.509 118.208 197.967 115.854 200.675 111.146C203.394 106.438 204.759 99.2031 204.759 89.4375C204.759 84.4531 204.259 78.8854 203.259 72.7292C202.269 66.5781 200.863 60.2917 199.029 53.875C197.196 47.4479 195.056 41.2656 192.613 35.3333C190.181 29.4063 187.55 24.0573 184.717 19.2917C181.894 14.5156 178.931 10.7187 175.821 7.89583C172.722 5.0625 169.623 3.64583 166.529 3.64583C160.207 3.64583 155.602 6.09375 152.717 10.9792C149.842 15.8542 148.404 23 148.404 32.4167C148.404 38.5156 149.118 45.3333 150.55 52.875C151.993 60.4063 154.014 67.9948 156.613 75.6458C159.222 83.3021 162.16 90.3438 165.425 96.7708C168.701 103.188 172.222 108.37 175.988 112.313C179.764 116.245 183.535 118.208 187.3 118.208Z" fill="#F9E1BC"/>
<path d="M38.7568 156.346C38.4234 157.012 38.0068 157.32 37.5068 157.262C37.0068 157.21 36.9755 156.736 37.4234 155.846C40.8505 149.637 46.1422 144.403 53.2984 140.137C60.4495 135.877 69.3453 133.742 79.9859 133.742C87.9703 133.742 95.1734 135.049 101.59 137.658C108.017 140.257 113.142 143.939 116.965 148.7C120.798 153.466 122.715 159.174 122.715 165.825C122.715 174.575 119.778 182.502 113.903 189.596C108.028 196.695 100.101 203.012 90.1318 208.554L54.8818 230.325L104.59 225.346C109.241 224.679 112.809 223.742 115.298 222.533C117.798 221.314 119.741 219.367 121.132 216.7C122.517 214.033 123.824 210.21 125.048 205.221C125.267 204.554 125.601 204.221 126.048 204.221C126.491 204.221 126.658 204.611 126.548 205.387C125.324 213.929 124.465 221.637 123.965 228.512C123.465 235.387 123.382 242.257 123.715 249.117C123.715 251.117 123.632 252.559 123.465 253.45C123.298 254.335 122.824 254.783 122.048 254.783C120.491 254.783 118.991 254.533 117.548 254.033C116.116 253.533 114.121 253.059 111.569 252.617C109.028 252.169 105.262 251.95 100.278 251.95H33.7568C31.4338 251.95 30.2776 251.283 30.2776 249.95C30.2776 249.507 30.4443 249.007 30.7776 248.45C31.1109 247.898 31.7672 247.236 32.7568 246.471L49.5484 231.658C64.6318 219.799 75.6318 208.492 82.5484 197.742C89.4755 186.992 92.9443 177.299 92.9443 168.658C92.9443 160.341 90.6422 153.549 86.0484 148.283C81.4495 143.023 74.8818 140.387 66.3401 140.387C60.5745 140.387 55.3401 141.585 50.6318 143.971C45.9234 146.346 41.9651 150.471 38.7568 156.346Z" fill="#F9E1BC"/>
<path d="M133.7 253.783C132.585 253.783 132.033 253.533 132.033 253.033C132.033 252.533 132.585 252.283 133.7 252.283C136.908 252.283 140.809 251.95 145.408 251.283C150.002 250.617 154.768 249.377 159.7 247.554C164.643 245.721 169.273 243.064 173.596 239.575C177.913 236.075 181.398 231.528 184.054 225.929C186.721 220.335 188.054 213.429 188.054 205.221C188.054 197.252 185.893 191.049 181.575 186.617C177.252 182.174 172.101 179.95 166.117 179.95C162.893 179.95 159.726 180.564 156.617 181.783C153.518 183.007 150.476 184.945 147.492 187.596C146.377 188.596 145.325 189.096 144.325 189.096C143.002 189.096 142.502 188.049 142.825 185.95L152.471 138.721C153.023 137.502 153.721 136.669 154.554 136.221C155.387 135.778 156.689 135.554 158.471 135.554H198.533C201.976 135.554 204.58 135.387 206.346 135.054C208.122 134.721 209.512 134.341 210.512 133.908C211.512 133.466 212.559 133.132 213.658 132.908C214.325 132.689 214.825 132.773 215.158 133.158C215.492 133.549 215.377 134.346 214.825 135.554C213.71 140.762 212.627 144.95 211.575 148.117C210.533 151.273 209.231 153.653 207.679 155.262C206.122 156.877 203.981 157.96 201.262 158.512C198.554 159.07 195.038 159.346 190.721 159.346H153.637C151.314 159.346 149.825 160.507 149.158 162.825L144.325 185.95C144.21 186.382 144.351 186.71 144.742 186.929C145.127 187.153 145.544 186.986 145.992 186.429C147.768 184.669 149.955 182.867 152.554 181.033C155.163 179.2 158.434 177.679 162.367 176.471C166.309 175.252 171.163 174.637 176.929 174.637C184.788 174.637 191.908 175.971 198.283 178.637C204.658 181.294 209.726 185.085 213.492 190.012C217.268 194.945 219.158 200.96 219.158 208.054C219.158 222.794 212.059 234.096 197.867 241.971C183.684 249.846 162.294 253.783 133.7 253.783Z" fill="#F9E1BC"/>
<path d="M6.55344 193.359C3.76177 193.859 1.83469 193.296 0.782602 191.671C0.391977 191.14 0.303436 190.338 0.511769 189.254C0.720102 188.161 1.11594 187.202 1.69927 186.379C1.94927 186.187 2.06385 186.015 2.05344 185.859C2.03781 185.775 2.51698 185.202 3.49094 184.129C4.45969 183.062 5.49094 181.931 6.57427 180.734C7.6576 179.541 8.43885 178.744 8.92844 178.338L10.5743 176.796C11.418 175.952 12.7409 174.812 14.5326 173.379C16.3243 171.952 18.0222 170.692 19.6368 169.609L20.6993 168.754C22.1003 167.452 23.142 166.556 23.8243 166.067C24.517 165.582 25.267 165.129 26.0743 164.713C26.5743 164.504 27.0222 164.275 27.4284 164.025C27.8295 163.775 28.0743 163.603 28.1576 163.504L29.8451 162.463C30.2618 162.254 30.6211 162.062 30.9284 161.879C31.2461 161.687 31.4389 161.541 31.5118 161.442L31.8868 161.15L35.1784 159.317C38.0795 157.525 40.3086 156.353 41.8659 155.796C42.4597 155.661 42.9545 155.442 43.3451 155.15C43.5118 155.056 43.7409 154.957 44.0326 154.859C44.3243 154.749 44.5847 154.64 44.8243 154.525C45.5743 154.291 46.2618 153.931 46.8868 153.442C47.5534 153.14 48.1055 152.879 48.5534 152.671C49.0118 152.463 49.6993 152.228 50.6159 151.963L51.7201 151.484L53.0534 150.859C53.7201 150.64 54.1264 150.431 54.2826 150.234C54.267 150.15 54.3451 150.103 54.5118 150.088C54.5222 150.171 54.7722 150.129 55.2618 149.963C55.7618 149.786 56.3451 149.582 57.0118 149.359C58.6472 148.791 59.5951 148.457 59.8451 148.359C60.0951 148.249 60.2618 148.15 60.3451 148.067C60.4961 147.89 61.2722 147.603 62.6784 147.213C63.2618 146.994 63.8139 146.796 64.3451 146.629C64.8868 146.452 65.2409 146.312 65.4076 146.213C65.5586 146.119 65.8034 146.015 66.1368 145.9C66.4701 145.775 66.7201 145.707 66.8868 145.692C67.6211 145.442 68.0743 145.291 68.2409 145.234C68.418 145.181 68.668 145.098 68.9909 144.984L69.7409 144.546C69.8243 144.536 70.1368 144.27 70.6784 143.754C71.2305 143.244 71.6576 142.796 71.9493 142.421C72.0326 142.244 72.168 142.088 72.3659 141.963C72.5743 141.827 72.7045 141.707 72.7618 141.609C73.0951 141.416 73.3295 141.14 73.4701 140.775C73.6055 140.431 73.9545 140.015 74.5118 139.525L75.9076 138.004C76.0586 137.827 76.2097 137.666 76.3659 137.525C76.5326 137.374 76.6628 137.296 76.7618 137.296L77.6784 136.442C78.2201 135.806 78.5743 135.478 78.7409 135.463L79.0951 135.046C79.2305 134.619 79.418 134.348 79.6576 134.234C79.8086 134.041 80.4701 133.338 81.6368 132.129C82.8034 130.921 83.8139 129.859 84.6784 128.942L86.4493 127.109L86.7826 126.713C86.7097 126.796 86.6368 126.848 86.5534 126.859L86.1993 127.129C86.1836 126.963 85.6368 127.103 84.5534 127.546L82.8243 128.213L81.4701 128.588L65.3243 135.109C63.267 136.056 61.1889 136.707 59.0951 137.067C57.0118 137.431 55.4909 137.478 54.5326 137.213C53.918 137.02 53.3139 136.692 52.7201 136.234C52.1211 135.775 51.7097 135.254 51.4909 134.671C50.5014 132.978 51.0795 130.291 53.2201 126.609C53.6628 125.89 53.9961 125.369 54.2201 125.046C54.4545 124.728 54.7097 124.306 54.9909 123.775C55.1576 123.681 55.2305 123.499 55.2201 123.234C55.2045 123.15 55.2409 123.103 55.3243 123.088C55.5014 123.244 55.892 122.827 56.4909 121.838C56.642 121.671 56.7514 121.546 56.8243 121.463C56.9076 121.369 56.9493 121.317 56.9493 121.317C56.9597 121.4 57.043 121.353 57.1993 121.171C57.3503 120.812 57.3764 120.629 57.2826 120.629C57.267 120.546 57.3086 120.504 57.4076 120.504C57.5847 120.577 57.8659 120.379 58.2409 119.921L61.5118 116.421C61.8034 116.062 62.2461 115.645 62.8451 115.171C63.4545 114.702 63.8034 114.457 63.8868 114.442C63.8868 114.442 63.9597 114.374 64.1159 114.234C64.2826 114.098 64.4076 113.984 64.4909 113.9C64.642 113.707 64.8295 113.515 65.0534 113.317C65.2878 113.124 65.5326 112.937 65.7826 112.754L68.0534 111.025L69.8451 109.609C70.3295 109.374 70.6472 109.166 70.8034 108.984C70.8711 108.817 70.9909 108.728 71.1576 108.713C71.3243 108.702 71.5639 108.504 71.8868 108.129L74.7618 106.088L75.6993 105.359C76.017 105.15 76.2201 105.004 76.3034 104.921L78.0118 103.754C78.3972 103.478 78.793 103.192 79.1993 102.9C79.6003 102.609 79.8347 102.421 79.9076 102.338L80.3868 102.004L81.2409 101.442C81.392 101.265 81.6264 101.067 81.9493 100.859C82.2826 100.65 82.5639 100.499 82.8034 100.4C83.3711 100.015 83.6576 99.7752 83.6576 99.6919C83.642 99.6085 83.6836 99.6033 83.7826 99.671C83.7826 99.671 83.8034 99.671 83.8451 99.671C83.8868 99.671 83.9389 99.6241 84.0118 99.5252C84.1784 99.4314 84.6784 99.1085 85.5118 98.5669C86.3555 98.0148 87.2253 97.4835 88.1159 96.9835C89.0014 96.4835 89.5378 96.1866 89.7201 96.0877L91.0326 95.3377C92.6576 94.4366 93.793 93.8273 94.4493 93.5044L96.0326 92.7127C96.6836 92.3273 97.0951 92.1241 97.2618 92.1085C97.8451 92.0564 98.3711 91.7491 98.8451 91.1919L99.1993 91.046L99.4701 91.0044C99.8868 90.895 100.001 90.8116 99.8243 90.7544C100.241 90.6294 100.585 90.4939 100.866 90.3377C101.142 90.171 101.439 90.0356 101.762 89.921C102.606 89.77 103.481 89.4002 104.387 88.8169L104.241 88.8377L103.616 89.0044L103.366 89.0252L102.991 89.1919C102.892 89.1241 102.46 89.1189 101.699 89.171C99.1003 89.5773 96.3295 89.9523 93.3868 90.296C90.4389 90.6294 86.8243 91.0356 82.5326 91.5044L73.6784 92.4002L70.1368 92.9835C68.1368 93.2491 66.668 93.4419 65.7409 93.5669C64.8243 93.6919 63.9493 93.8325 63.1159 93.9835L59.8451 94.6294C58.9961 94.7023 58.1993 94.8116 57.4493 94.9627C56.6993 95.1189 55.3139 95.4158 53.3034 95.8585L50.3034 96.3794C49.6368 96.52 48.8659 96.671 47.9909 96.8377C47.1159 96.9939 46.6368 97.1189 46.5534 97.2127C46.4805 97.296 45.0586 97.6398 42.2826 98.2335L40.8034 98.6085L35.7201 100.088L32.5951 101.129L28.7618 102.463C28.0118 102.702 27.4389 102.973 27.0534 103.275C26.7305 103.556 26.3972 103.707 26.0534 103.734C25.8139 103.749 25.5326 103.859 25.1993 104.067L22.4076 105.588L21.8034 105.9C21.4545 106.015 20.9493 106.312 20.2826 106.796C19.6159 107.286 19.1576 107.666 18.9076 107.942C18.6836 108.223 18.4909 108.369 18.3243 108.379C18.2409 108.395 17.9076 108.749 17.3243 109.442C16.7409 110.124 16.4545 110.546 16.4701 110.713C16.4961 110.963 16.642 111.202 16.9076 111.421C17.1993 111.744 17.3451 111.921 17.3451 111.963C17.3555 112.004 17.1889 112.046 16.8451 112.088C16.2618 112.129 15.8243 111.937 15.5326 111.504C15.2409 111.062 15.2305 110.52 15.5118 109.879C15.6472 109.452 16.0639 108.869 16.7618 108.129C17.4545 107.395 18.0847 106.832 18.6576 106.442C22.3503 103.9 26.7201 101.859 31.7618 100.317C32.9284 100.025 33.5847 99.7908 33.7409 99.6085L34.2409 99.4419L39.7201 97.9419C40.8972 97.6658 41.918 97.4106 42.7826 97.171C43.6576 96.921 44.3764 96.7283 44.9493 96.5877L46.4909 96.3377L49.3451 95.671L57.1368 94.2544L61.6576 93.3377C62.7253 93.1606 63.5534 93.02 64.1368 92.921C64.7305 92.8273 65.3868 92.7283 66.0951 92.6294C66.8139 92.52 67.8503 92.3689 69.1993 92.171C70.1993 91.9939 71.0534 91.8325 71.7618 91.6919C72.4805 91.5408 72.8868 91.4627 72.9701 91.4627C72.9545 91.2856 73.1211 91.27 73.4701 91.421C73.5639 91.4939 73.7826 91.5148 74.1159 91.4835L79.2618 90.7544L98.8451 88.5252C100.022 88.3481 101.116 88.171 102.116 88.0044C103.126 87.8273 103.762 87.7231 104.012 87.6919L106.137 87.2544C107.314 87.1606 108.158 86.9939 108.658 86.7544C108.824 86.7439 109.012 86.7075 109.22 86.6502C109.428 86.5981 109.579 86.6033 109.678 86.671L110.303 86.6085C110.564 86.5981 110.793 86.7544 110.991 87.0877C111.1 87.4106 111.079 87.7023 110.928 87.9627C110.606 88.2544 110.121 88.5825 109.47 88.9419C108.829 89.2908 108.251 89.5356 107.741 89.671C107.517 89.8689 107.064 90.0356 106.387 90.171C105.803 90.2283 105.272 90.4366 104.803 90.796C104.647 90.895 104.408 91.0044 104.074 91.1294C103.741 91.2439 103.491 91.3064 103.324 91.3169C102.725 91.4575 102.038 91.6658 101.262 91.9419C100.481 92.2231 99.6836 92.5252 98.8659 92.8585C98.1159 93.1919 97.1472 93.6658 95.9701 94.2752C94.8034 94.8898 93.7461 95.4314 92.8034 95.9002C91.8555 96.3585 91.3503 96.6398 91.2826 96.7335C91.2097 96.8898 91.043 96.9783 90.7826 97.0044C90.6993 97.02 90.3347 97.2283 89.6993 97.6294C89.0586 98.02 88.6993 98.2231 88.6159 98.2335C88.517 98.2335 88.4493 98.2648 88.4076 98.3169C88.3764 98.3585 88.3659 98.3794 88.3659 98.3794C88.3764 98.546 88.3034 98.6398 88.1368 98.6502C88.0534 98.6502 86.1993 99.796 82.5743 102.088C81.267 102.879 80.4753 103.374 80.1993 103.567C79.9336 103.765 79.6836 103.994 79.4493 104.254C79.142 104.536 78.8555 104.687 78.5951 104.713C78.5118 104.728 78.142 104.937 77.4909 105.338L76.4076 106.192L72.8243 108.817C72.418 109.098 71.8243 109.525 71.0326 110.109C70.2409 110.692 69.5014 111.249 68.8243 111.775C68.142 112.306 67.7618 112.619 67.6784 112.713L66.4701 113.567C65.7461 114.067 65.392 114.4 65.4076 114.567C65.2514 114.749 65.1368 114.838 65.0534 114.838C64.9805 114.853 64.6889 115.077 64.1784 115.504C63.6628 115.921 63.2097 116.369 62.8243 116.838L61.0743 118.65C60.293 119.4 59.418 120.348 58.4493 121.484C57.4753 122.624 56.5951 123.749 55.8034 124.859C55.0118 125.957 54.4701 126.77 54.1784 127.296L53.7201 127.963L52.9701 129.692C52.4961 130.931 52.2878 131.921 52.3451 132.671C52.4805 134.27 53.2618 135.353 54.6784 135.921C55.1211 136.129 55.5118 136.249 55.8451 136.275C56.1889 136.291 56.9493 136.192 58.1159 135.984C59.4753 135.874 60.4389 135.728 61.0118 135.546C61.5951 135.369 62.8295 134.895 64.7201 134.129L67.9284 132.963C71.8034 131.437 73.8139 130.624 73.9701 130.525C74.1368 130.431 74.4336 130.359 74.8659 130.317C75.1159 130.306 75.3139 130.207 75.4701 130.025C75.4701 130.025 75.5951 129.973 75.8451 129.859C76.0951 129.749 76.3347 129.645 76.5743 129.546L79.2826 128.525C80.4336 127.999 81.5586 127.541 82.6576 127.15C83.767 126.749 84.7409 126.39 85.5743 126.067C86.5743 125.791 87.1576 125.562 87.3243 125.379C87.5326 125.119 87.6836 125.062 87.7826 125.213C88.0326 125.187 88.3139 124.994 88.6368 124.629C88.9545 124.421 89.1472 124.286 89.2201 124.213C89.7045 123.744 90.7618 122.609 92.3868 120.817C94.0118 119.015 95.892 116.931 98.0326 114.567C100.168 112.207 102.241 109.9 104.241 107.65C106.251 105.39 107.913 103.499 109.22 101.984C110.538 100.473 111.158 99.7127 111.074 99.7127C111.309 99.5044 111.522 99.2908 111.72 99.0669C111.913 98.8481 112.079 98.6033 112.22 98.3377C112.538 98.2283 112.876 98.0877 113.241 97.921C113.616 97.7544 113.97 97.5773 114.303 97.3794C115.121 96.8794 115.71 96.7856 116.074 97.0877C116.543 97.5616 116.059 98.3325 114.616 99.4002L92.8243 123.129L90.8451 125.067C90.8555 125.317 90.7826 125.452 90.6159 125.463L90.1368 125.775C89.4284 126.431 88.7618 127.109 88.1368 127.817C87.5222 128.515 87.0639 129.041 86.7618 129.4L82.6576 133.463L81.0118 135.129L78.6576 137.379C78.3347 137.661 77.767 138.223 76.9493 139.067C76.142 139.9 75.3243 140.734 74.4909 141.567C73.668 142.4 73.0743 143.046 72.6993 143.504C72.3764 143.713 72.4597 143.796 72.9493 143.754L74.0951 143.65C74.2618 143.64 74.3764 143.582 74.4493 143.484C74.5326 143.39 74.6211 143.332 74.7201 143.317L75.3451 143.275L77.3451 142.588C77.6784 142.478 78.0014 142.369 78.3243 142.254C78.6576 142.145 78.8659 142.082 78.9493 142.067L79.5326 141.754C79.543 141.853 79.6784 141.838 79.9284 141.713C80.0951 141.619 80.9597 141.312 82.5326 140.796C84.1003 140.286 85.8451 139.77 87.7618 139.254L90.6159 138.504C93.517 137.645 95.9961 137.041 98.0534 136.692C100.106 136.348 101.356 136.317 101.803 136.609C102.772 136.957 103.335 137.504 103.491 138.254C103.642 138.994 103.428 139.473 102.845 139.692C102.689 139.806 102.559 139.744 102.449 139.504C102.335 139.254 102.272 139.046 102.262 138.879C102.231 138.536 102.079 138.249 101.803 138.025C101.606 137.791 101.335 137.666 100.991 137.65C100.658 137.64 99.6159 137.796 97.8659 138.129C96.767 138.296 95.7305 138.452 94.7618 138.588C93.8034 138.713 93.1628 138.874 92.8451 139.067L90.0951 139.838C89.5951 139.963 88.7618 140.202 87.5951 140.546C86.4389 140.895 85.392 141.223 84.4493 141.525C83.5014 141.817 82.9493 142.015 82.7826 142.109C82.7097 142.207 82.3034 142.374 81.5534 142.609L79.0534 143.463L73.3243 145.129C72.017 145.494 71.1784 145.734 70.8034 145.859C70.4284 145.973 70.0795 146.213 69.7618 146.588L66.8659 149.65L63.6784 152.734C63.3711 153.098 62.7878 153.702 61.9284 154.546C61.0639 155.379 60.5534 155.89 60.3868 156.067L58.9909 157.609L57.3659 159.171L56.6576 159.838L51.3659 164.921L50.2826 165.754L48.9909 167.025C48.8347 167.124 48.5014 167.411 47.9909 167.879C47.4753 168.353 46.8972 168.832 46.2618 169.317L44.1368 171.296L43.2826 171.879L42.4701 172.588L41.2826 173.713L36.6159 177.192L35.3034 178.192C34.8972 178.39 34.7045 178.567 34.7201 178.734L34.6159 178.879C34.4336 178.895 34.0326 179.187 33.4076 179.754C32.8503 180.145 31.9909 180.754 30.8243 181.588C29.6576 182.411 28.4753 183.207 27.2826 183.984L26.5534 184.567C26.5534 184.567 26.1055 184.838 25.2201 185.379C24.3295 185.921 23.3972 186.478 22.4284 187.046C21.4545 187.603 20.8086 187.978 20.4909 188.171C18.9493 189.004 18.1368 189.421 18.0534 189.421L17.3243 189.734C16.017 190.442 14.3295 191.14 12.2618 191.838C10.2045 192.53 8.30344 193.036 6.55344 193.359ZM3.5326 192.713C4.85031 193.114 6.97531 192.864 9.9076 191.963C12.8503 191.056 15.9493 189.754 19.1993 188.046C20.267 187.52 20.9805 187.161 21.3451 186.963C21.7045 186.754 21.9701 186.603 22.1368 186.504L22.9701 185.9C23.2045 185.723 23.6836 185.411 24.4076 184.963C25.142 184.504 25.8503 184.062 26.5326 183.629C27.2253 183.187 27.5743 182.963 27.5743 182.963L29.2409 181.775C30.2097 181.192 30.8139 180.754 31.0534 180.463L34.7409 177.609C37.517 175.484 39.3451 173.999 40.2201 173.15L41.6576 172.025C42.543 171.525 43.1211 171.161 43.3868 170.921C43.6628 170.687 44.3139 170.046 45.3451 169.004L46.8868 167.588L52.2201 162.796C52.3711 162.619 52.4909 162.525 52.5743 162.525C52.6576 162.515 52.7618 162.416 52.8868 162.234C53.0378 162.041 53.1889 161.853 53.3451 161.671C53.5118 161.494 53.6784 161.353 53.8451 161.254C54.1628 161.062 54.517 160.754 54.9076 160.338C55.293 159.911 55.4076 159.702 55.2409 159.713C55.2409 159.713 55.4336 159.494 55.8243 159.046L56.8868 158.067L58.2826 156.65C58.9909 155.999 59.3451 155.629 59.3451 155.546C59.3451 155.546 59.418 155.478 59.5743 155.338C59.7253 155.187 59.8764 155.015 60.0326 154.817C60.517 154.442 60.9128 154.082 61.2201 153.734C61.6055 153.265 62.043 152.879 62.5326 152.588C63.142 152.02 63.6055 151.556 63.9284 151.192C64.1368 150.65 64.4076 150.369 64.7409 150.338C64.8243 150.327 64.8764 150.296 64.9076 150.254C64.9493 150.213 64.9701 150.192 64.9701 150.192C64.9545 150.025 65.1628 149.692 65.5951 149.192C66.0378 148.681 66.293 148.374 66.3659 148.275L66.9284 147.609C67.2461 147.249 67.3139 147.077 67.1368 147.088L66.9076 147.234L65.8868 147.442L64.2826 147.963C64.1159 148.062 63.8243 148.192 63.4076 148.359C63.0014 148.515 62.6003 148.65 62.1993 148.775C61.8659 148.89 61.4284 149.015 60.8868 149.15C60.3451 149.275 59.8659 149.442 59.4493 149.65C59.1264 149.765 58.7618 149.9 58.3451 150.067C57.9284 150.234 57.5951 150.374 57.3451 150.484C56.7722 150.624 56.1576 150.827 55.4909 151.088C54.8347 151.353 54.3086 151.598 53.9076 151.817C53.5743 152.015 53.3243 152.119 53.1576 152.129C52.9076 152.161 52.1211 152.421 50.8034 152.921C49.4961 153.421 48.642 153.817 48.2409 154.109C47.7409 154.317 46.918 154.707 45.7826 155.275C44.6576 155.832 43.267 156.437 41.6159 157.088C40.2097 157.645 38.8659 158.317 37.5743 159.109C36.4493 159.817 35.642 160.275 35.1576 160.484L33.4493 161.4L31.0534 163.004C30.6368 163.213 30.2201 163.442 29.8034 163.692C29.3972 163.931 29.1211 164.145 28.9701 164.338C28.4284 164.728 27.9076 165.025 27.4076 165.234C27.1576 165.348 26.9284 165.457 26.7201 165.567C26.5118 165.666 26.293 165.812 26.0743 166.004C25.6576 166.213 25.2305 166.504 24.8034 166.879C24.3711 167.254 23.9128 167.556 23.4284 167.775L22.4493 168.463C22.293 168.577 22.0951 168.707 21.8451 168.859C21.6055 168.999 21.4128 169.161 21.2618 169.338C21.1784 169.437 21.0534 169.515 20.8868 169.567C20.7305 169.624 20.5795 169.744 20.4284 169.921L19.5743 170.65C19.267 170.848 19.1159 170.942 19.1159 170.942L18.7618 171.338L18.2618 171.671L17.0534 172.525C16.1055 173.207 15.1784 173.952 14.2618 174.754C13.3555 175.562 12.4284 176.338 11.4701 177.088L10.9076 177.671L9.94927 178.65L8.76177 179.629C8.45448 179.937 7.9701 180.457 7.30344 181.192C6.63677 181.916 6.11594 182.463 5.74094 182.838L5.05344 183.671C4.73052 183.869 4.1576 184.556 3.32427 185.734C2.49094 186.9 1.99614 187.707 1.8451 188.15C1.28781 189.234 1.12114 190.15 1.3451 190.9C1.57948 191.801 2.30864 192.405 3.5326 192.713Z" fill="#231F20"/>
<path d="M98.8018 145.922C98.4997 146.297 98.13 146.463 97.6977 146.422C97.2706 146.369 97.0727 146.083 97.1143 145.567C97.1872 145.39 97.4477 144.953 97.906 144.255L98.9268 142.755C99.3435 142.036 100.083 141.078 101.135 139.88C102.192 138.672 103 137.875 103.552 137.484C103.958 137.192 104.323 137.083 104.656 137.151C105.432 137.333 105.245 138.062 104.093 139.338C103.625 139.812 103.317 140.161 103.177 140.38C103.026 140.604 103.026 140.666 103.177 140.567L104.281 139.963C104.588 139.77 105.208 139.401 106.135 138.859C107.078 138.307 107.593 137.979 107.677 137.88C108.396 137.479 108.833 137.619 108.989 138.297C109.099 138.604 109.281 138.75 109.531 138.734C109.948 138.692 110.62 138.401 111.552 137.859C112.479 137.317 113.229 136.854 113.802 136.463C114.187 136.161 114.468 136 114.635 135.984C114.635 135.984 114.953 135.791 115.593 135.401C116.385 134.651 116.932 134.52 117.239 135.005C117.515 135.328 117.343 135.854 116.718 136.588C116.411 136.869 116.083 137.02 115.739 137.047C115.323 137.088 114.953 137.208 114.635 137.401L113.302 138.172L111.364 139.338C109.739 140.078 108.573 140.307 107.864 140.026C107.489 139.807 107.057 139.807 106.573 140.026L105.239 140.922C103.948 141.619 103.067 142.14 102.593 142.484C102.109 142.833 101.75 143.14 101.51 143.401L100.198 144.547C99.9633 144.744 99.7133 144.979 99.4477 145.255C99.1716 145.52 98.9581 145.744 98.8018 145.922Z" fill="#231F20"/>
<path d="M124.696 143.141C124.295 143.183 123.94 143.011 123.633 142.62C123.274 142.235 123.149 141.777 123.258 141.245C123.217 140.735 123.315 140.297 123.55 139.933L123.842 138.995C123.842 138.912 123.545 139.094 122.946 139.537C122.336 139.969 121.795 140.428 121.321 140.912C120.836 141.287 120.133 141.777 119.217 142.37C118.3 142.954 117.67 143.261 117.321 143.287C116.56 143.36 116.154 143.141 116.112 142.641C116.086 142.381 116.352 141.969 116.904 141.412C117.612 140.678 118.487 139.922 119.529 139.141C120.56 138.365 121.519 137.693 122.404 137.12C123.446 136.428 124.112 136.027 124.404 135.912C124.685 135.803 124.878 135.865 124.987 136.099C124.998 136.266 125.217 136.339 125.633 136.308C126.394 136.24 126.633 136.495 126.342 137.079C126.06 137.652 125.805 138.115 125.571 138.474C125.263 138.839 124.993 139.349 124.758 140.016C124.524 140.683 124.55 141.303 124.842 141.87C124.956 142.12 125.279 142.162 125.821 141.995C126.362 141.818 126.633 141.724 126.633 141.724C127.467 141.464 128.769 140.87 130.55 139.954C132.342 139.037 134.576 137.86 137.258 136.412L137.508 136.266L137.883 136.224L138.008 136.349C138.185 136.422 138.284 136.527 138.3 136.662C138.31 136.787 138.237 136.902 138.071 136.995L131.133 140.912C130.019 141.62 128.987 142.141 128.029 142.474C127.081 142.808 126.612 142.974 126.612 142.974L126.217 143.016C125.727 143.141 125.222 143.183 124.696 143.141ZM117.487 142.12L118.217 141.808C118.706 141.516 119.352 141.079 120.154 140.495C120.946 139.912 121.378 139.579 121.446 139.495C121.753 139.11 122.315 138.672 123.133 138.183C123.623 137.964 123.857 137.766 123.842 137.599C123.831 137.448 123.748 137.402 123.592 137.454C123.425 137.495 123.024 137.761 122.383 138.245C121.565 138.662 120.758 139.204 119.967 139.87C119.175 140.527 118.586 141.089 118.196 141.558L117.487 142.12Z" fill="#231F20"/>
<path d="M141.42 146.152C141.264 146.251 141.066 146.251 140.816 146.152C140.556 146.043 140.358 145.829 140.233 145.506C140.207 145.329 140.493 144.746 141.087 143.756C141.681 142.756 142.431 141.605 143.337 140.298C144.238 138.98 145.087 137.756 145.878 136.631C146.681 135.506 147.274 134.709 147.649 134.235C147.951 133.959 148.201 133.683 148.399 133.402C148.592 133.126 148.691 132.985 148.691 132.985C148.608 133.001 148.384 133.131 148.024 133.381C147.66 133.631 147.196 133.954 146.628 134.34L142.566 137.36L141.483 138.09L140.295 138.84C139.977 139.048 139.722 139.251 139.524 139.444C139.316 139.626 139.17 139.715 139.087 139.715L138.608 140.006C138.123 140.413 137.477 140.855 136.67 141.34C135.852 141.829 135.123 142.189 134.483 142.423C133.816 142.73 133.389 142.725 133.191 142.402C132.998 142.084 133.082 141.61 133.441 140.985C133.889 140.183 134.67 139.183 135.795 137.985C136.92 136.777 137.894 135.923 138.712 135.423C140.951 133.855 142.535 133.584 143.483 134.61L143.899 134.965L144.753 134.36L146.628 132.923C146.962 132.73 147.384 132.439 147.899 132.048C148.425 131.663 148.972 131.314 149.545 131.006C151.628 129.73 153.175 128.485 154.191 127.277L158.691 121.777L159.858 120.402C160.774 119.392 161.42 118.652 161.795 118.194C162.181 117.735 162.722 117.048 163.42 116.131C164.264 115.048 165.128 114.001 166.003 112.985C166.889 111.975 167.618 111.267 168.191 110.86L170.191 109.027C170.493 108.668 170.863 108.298 171.295 107.923C171.722 107.538 172.056 107.251 172.295 107.069C173.587 106.194 174.306 106.09 174.462 106.756C174.571 107.079 174.253 107.871 173.503 109.131C172.613 110.579 171.243 112.397 169.399 114.59C168.868 115.314 167.951 116.308 166.649 117.569C165.358 118.834 164.363 119.751 163.67 120.319L161.878 122.027C161.571 122.392 161.024 122.902 160.233 123.569C159.451 124.225 158.858 124.704 158.441 125.006L156.67 126.569L155.024 128.11L152.92 130.465C151.905 131.413 150.613 132.933 149.045 135.027C147.488 137.11 145.967 139.319 144.483 141.652L141.42 146.152ZM159.691 123.11L161.691 121.277L163.587 119.444C163.972 119.058 164.483 118.564 165.108 117.965C165.733 117.371 166.316 116.788 166.858 116.215C168.259 114.647 169.243 113.517 169.816 112.819C170.384 112.126 170.931 111.381 171.462 110.59C172.28 109.329 172.545 108.751 172.253 108.86C171.972 108.959 171.05 109.725 169.483 111.152L167.941 112.673L167.024 113.777C165.941 114.902 165.056 116.006 164.378 117.09L162.878 118.86C161.712 120.084 160.8 121.126 160.149 121.985C159.509 122.85 159.358 123.225 159.691 123.11ZM135.545 140.402C135.628 140.402 135.858 140.288 136.233 140.048C136.597 139.798 136.977 139.522 137.378 139.215C138.503 138.538 139.149 138.189 139.316 138.173C139.399 138.079 139.545 137.954 139.753 137.798C139.951 137.647 140.201 137.475 140.503 137.277C141.003 136.985 141.384 136.663 141.649 136.298C141.91 135.939 141.951 135.725 141.774 135.652C141.342 135.527 140.847 135.579 140.274 135.798L139.045 136.506C138.477 136.829 138.118 137.079 137.962 137.256L137.024 138.235C136.483 138.793 136.061 139.298 135.753 139.756C135.451 140.204 135.378 140.418 135.545 140.402Z" fill="#231F20"/>
<path d="M155.61 140.672L155.194 140.088C155.069 139.755 155.022 139.422 155.048 139.088C155.064 138.745 155.1 138.437 155.152 138.172C155.267 137.562 155.798 136.687 156.756 135.547C157.715 134.411 158.392 133.562 158.777 133.005C159.168 132.646 159.459 132.536 159.652 132.672C160.084 132.812 159.996 133.333 159.381 134.234C158.871 134.958 158.194 135.911 157.36 137.088C156.517 138.271 156.142 138.984 156.235 139.234C156.444 139.557 156.918 139.474 157.652 138.984C158.376 138.484 159.147 137.817 159.965 136.984C160.772 136.14 161.433 135.354 161.965 134.63L162.194 134.213L162.881 133.422L163.11 133.005C163.496 132.547 163.86 132.349 164.194 132.401C164.735 132.526 164.762 132.974 164.277 133.734C163.788 134.5 163.277 135.25 162.735 135.984C161.829 137.333 161.569 138.25 161.944 138.734C162.053 139.057 162.319 139.14 162.735 138.984C163.152 138.817 163.36 138.734 163.36 138.734C164.277 138.484 165.631 137.901 167.423 136.984C169.215 136.057 171.444 134.87 174.11 133.422L174.36 133.276L174.61 133.255L174.881 133.359C175.058 133.442 175.137 133.547 175.11 133.672C175.079 133.797 174.975 133.911 174.798 134.005L173.34 134.922L168.006 137.942C166.85 138.557 165.803 139.047 164.86 139.422C163.928 139.797 163.465 139.984 163.465 139.984L163.09 140.026C162.017 140.375 161.34 140.312 161.048 139.838C160.746 139.354 160.605 138.807 160.631 138.192L160.59 137.692L160.485 137.838L159.652 138.692C159.35 138.974 158.855 139.354 158.173 139.838C157.48 140.312 156.876 140.567 156.36 140.609L155.61 140.672Z" fill="#231F20"/>
<path d="M177.864 138.46C177.463 138.502 177.108 138.33 176.801 137.939C176.442 137.554 176.317 137.096 176.426 136.564C176.384 136.054 176.483 135.616 176.718 135.252L177.009 134.314C177.009 134.231 176.713 134.413 176.114 134.856C175.504 135.288 174.963 135.747 174.489 136.231C174.004 136.606 173.301 137.096 172.384 137.689C171.468 138.273 170.838 138.58 170.489 138.606C169.728 138.679 169.322 138.46 169.28 137.96C169.254 137.7 169.52 137.288 170.072 136.731C170.78 135.997 171.655 135.241 172.697 134.46C173.728 133.684 174.687 133.012 175.572 132.439C176.614 131.747 177.28 131.346 177.572 131.231C177.853 131.122 178.046 131.184 178.155 131.419C178.166 131.585 178.384 131.658 178.801 131.627C179.562 131.559 179.801 131.814 179.509 132.398C179.228 132.971 178.973 133.434 178.739 133.794C178.431 134.158 178.161 134.669 177.926 135.335C177.692 136.002 177.718 136.622 178.009 137.189C178.124 137.439 178.447 137.481 178.989 137.314C179.53 137.137 179.801 137.044 179.801 137.044C180.634 136.783 181.937 136.189 183.718 135.273C185.509 134.356 187.744 133.179 190.426 131.731L190.676 131.585L191.051 131.544L191.176 131.669C191.353 131.741 191.452 131.846 191.468 131.981C191.478 132.106 191.405 132.221 191.239 132.314L184.301 136.231C183.187 136.939 182.155 137.46 181.197 137.794C180.249 138.127 179.78 138.294 179.78 138.294L179.384 138.335C178.895 138.46 178.39 138.502 177.864 138.46ZM170.655 137.439L171.384 137.127C171.874 136.835 172.52 136.398 173.322 135.814C174.114 135.231 174.546 134.898 174.614 134.814C174.921 134.429 175.483 133.991 176.301 133.502C176.791 133.283 177.025 133.085 177.009 132.919C176.999 132.767 176.916 132.721 176.759 132.773C176.593 132.814 176.192 133.08 175.551 133.564C174.733 133.981 173.926 134.523 173.134 135.189C172.343 135.846 171.754 136.408 171.364 136.877L170.655 137.439Z" fill="#231F20"/>
<path d="M246.13 106.825C246.932 107.174 246.776 107.695 245.651 108.388L244.442 109.013C244.369 109.096 244.192 109.029 243.901 108.805C243.703 108.57 243.682 108.357 243.838 108.159C243.989 107.898 244.015 107.753 243.921 107.721C243.838 107.68 243.453 107.69 242.776 107.742C242.442 107.69 242.015 107.669 241.505 107.68C240.989 107.68 240.526 107.654 240.109 107.596C239.51 107.57 238.078 107.591 235.817 107.659C233.567 107.732 230.984 107.846 228.067 108.013C225.151 108.18 222.296 108.346 219.505 108.513C216.713 108.68 214.39 108.841 212.546 108.992L212.026 109.055C211.859 109.07 211.578 109.075 211.192 109.075C210.817 109.065 210.38 109.117 209.88 109.242L209.276 109.659C209.203 109.841 209.067 110.029 208.859 110.221C208.661 110.419 208.494 110.648 208.359 110.909L207.317 112.159C207.036 112.7 206.661 113.221 206.192 113.721C205.734 114.221 205.192 114.883 204.567 115.7L202.63 118.159C202.182 118.898 201.765 119.487 201.38 119.93C201.224 120.112 200.974 120.43 200.63 120.888C200.281 121.346 199.921 121.805 199.546 122.263C198.557 123.638 197.802 124.711 197.276 125.471C196.744 126.237 196.213 126.982 195.671 127.7L194.296 129.492L193.296 130.992L190.192 135.096L186.463 140.263L184.63 142.867C183.421 144.482 182.067 146.419 180.567 148.68C179.067 150.945 177.666 153.138 176.359 155.263C175.041 157.378 174.02 159.049 173.296 160.284C172.937 161.008 172.583 161.836 172.234 162.763C171.89 163.68 171.692 164.32 171.651 164.68C171.682 165.096 171.859 165.284 172.192 165.242C172.541 165.299 172.64 165.461 172.484 165.721C172.416 165.904 172.13 166.013 171.63 166.055C171.286 166.003 171 165.69 170.776 165.117C170.651 164.617 170.75 163.799 171.067 162.659C171.208 162.232 171.328 161.841 171.421 161.492C171.52 161.133 171.578 160.992 171.588 161.075C171.671 161.075 171.703 160.95 171.671 160.7C171.671 160.7 171.692 160.68 171.734 160.638C171.765 160.586 171.776 160.508 171.776 160.409C171.942 160.492 172.057 160.367 172.109 160.034C172.182 159.857 172.208 159.638 172.192 159.388L172.151 159.117C172.348 159.2 173.026 158.253 174.192 156.263L178.776 148.846L181.609 144.638C182.224 143.737 182.77 142.924 183.255 142.2C183.729 141.482 184.005 141.075 184.088 140.992C184.244 140.898 184.458 140.669 184.734 140.305C185 139.93 185.276 139.523 185.567 139.075C186.484 137.633 187.14 136.659 187.526 136.159C187.901 135.659 188.13 135.404 188.213 135.388C188.296 135.388 188.437 135.159 188.63 134.7L189.546 133.346L190.463 132.138C191.671 130.419 192.541 129.195 193.067 128.471C193.599 127.737 194.015 127.18 194.317 126.805C194.942 126.086 195.244 125.68 195.234 125.596C195.244 125.68 195.557 125.294 196.171 124.43C196.781 123.57 197.088 123.138 197.088 123.138C197.447 122.503 198.119 121.503 199.109 120.138C200.093 118.779 201.135 117.367 202.234 115.909C203.343 114.45 204.161 113.404 204.692 112.763L206.067 110.971L206.421 110.45L206.776 110.138C206.843 109.971 206.911 109.846 206.984 109.763C207.067 109.669 207.14 109.57 207.213 109.471C205.864 109.596 204.302 109.737 202.526 109.888C200.76 110.044 199.588 110.19 199.005 110.325L194.859 110.93L191.442 111.367L188.276 111.909C186.791 112.133 185.395 112.362 184.088 112.596C182.786 112.836 182.046 113.008 181.88 113.117C181.062 113.357 180.151 113.565 179.151 113.742C178.14 113.909 177.588 113.95 177.505 113.867C177.036 113.492 177.38 113.075 178.546 112.617C178.869 112.508 179.64 112.341 180.859 112.117C182.067 111.883 183.338 111.648 184.671 111.409C186.005 111.159 187.015 111.003 187.692 110.93L190.463 110.45L208.255 108.471L208.734 107.95L209.671 106.721L210.005 106.305C210.156 106.112 210.526 105.716 211.109 105.117C211.703 104.508 212.265 103.888 212.796 103.263C213.322 102.628 213.63 102.258 213.713 102.159C213.781 101.966 214.369 101.357 215.484 100.325L216.526 99.2213C216.609 99.0442 216.901 98.7161 217.401 98.2421C217.901 97.7734 218.192 97.5286 218.276 97.513C218.526 97.5026 218.703 97.6171 218.817 97.8671C219.026 98.1901 219.01 98.4869 218.776 98.763L218.317 99.4505L217.171 100.575C216.765 100.95 216.234 101.508 215.567 102.242C214.911 102.982 214.468 103.523 214.234 103.867C213.786 104.523 213.338 105.075 212.88 105.534C212.572 105.909 212.182 106.378 211.713 106.93C211.255 107.471 210.947 107.867 210.796 108.117L213.192 107.909L216.755 107.721C217.349 107.68 218.828 107.596 221.192 107.471C223.567 107.346 226.192 107.221 229.067 107.096C231.953 106.971 234.578 106.846 236.942 106.721C239.317 106.596 240.849 106.549 241.546 106.575C242.974 106.534 244.01 106.529 244.651 106.555C245.286 106.586 245.781 106.674 246.13 106.825Z" fill="#231F20"/>
<path d="M200.786 136.441C199.801 136.623 199.176 136.706 198.911 136.691C198.65 136.665 198.452 136.451 198.327 136.045C198.135 135.644 198.244 134.993 198.661 134.086C199.244 133.003 200.129 131.909 201.307 130.795C202.489 129.67 203.692 128.847 204.911 128.316C206.879 127.373 208.025 127.227 208.348 127.878C208.458 128.211 207.588 129.128 205.744 130.628C204.734 131.493 203.885 132.144 203.202 132.586C202.51 133.034 201.827 133.373 201.161 133.607C200.426 133.847 199.989 134.185 199.848 134.628C199.546 135.003 199.525 135.222 199.786 135.274C200.567 135.456 204.406 133.665 211.307 129.899L211.557 129.753L211.932 129.711L212.057 129.836C212.416 129.961 212.478 130.17 212.244 130.461L210.661 131.357L205.202 134.399C204.161 135.097 203.338 135.555 202.723 135.774C202.098 135.982 201.452 136.206 200.786 136.441ZM201.432 132.17C201.364 132.269 201.515 132.243 201.89 132.086C202.254 131.92 202.754 131.644 203.39 131.253C203.963 130.852 204.577 130.394 205.244 129.878C205.921 129.352 206.307 129.04 206.39 128.941C206.359 128.774 206.124 128.816 205.682 129.066C205.234 129.316 204.807 129.555 204.39 129.774C204.004 129.888 203.432 130.274 202.682 130.941C201.921 131.597 201.504 132.003 201.432 132.17Z" fill="#231F20"/>
</svg>
