<svg width="272" height="354" viewBox="0 0 272 354" fill="none" xmlns="http://www.w3.org/2000/svg">
<path d="M30.7299 306.617C30.1726 306.617 29.6674 306.502 29.2091 306.263C28.7507 306.029 28.3757 305.69 28.0841 305.242L28.6882 304.575C29.2143 305.357 29.8966 305.742 30.7299 305.742C31.9226 305.742 32.5216 305.044 32.5216 303.638V297.846H29.0216V296.992H33.5007V303.596C33.5007 304.596 33.2611 305.357 32.7924 305.867C32.3341 306.367 31.6466 306.617 30.7299 306.617Z" fill="#262728"/>
<path d="M39.8262 306.596C39.1282 306.596 38.5032 306.445 37.9512 306.138C37.3939 305.82 36.9564 305.383 36.6387 304.825C36.3158 304.273 36.1595 303.648 36.1595 302.95C36.1595 302.242 36.3158 301.612 36.6387 301.055C36.9564 300.502 37.3939 300.07 37.9512 299.763C38.5032 299.461 39.1282 299.305 39.8262 299.305C40.5032 299.305 41.123 299.461 41.6803 299.763C42.2324 300.07 42.6699 300.502 42.9928 301.055C43.3105 301.612 43.472 302.242 43.472 302.95C43.472 303.648 43.3105 304.273 42.9928 304.825C42.6699 305.383 42.2324 305.82 41.6803 306.138C41.123 306.445 40.5032 306.596 39.8262 306.596ZM39.8262 305.742C40.3262 305.742 40.7741 305.633 41.1803 305.409C41.597 305.174 41.9147 304.841 42.1387 304.409C42.3574 303.982 42.472 303.492 42.472 302.95C42.472 302.398 42.3574 301.909 42.1387 301.492C41.9147 301.065 41.597 300.732 41.1803 300.492C40.7741 300.258 40.3262 300.138 39.8262 300.138C39.3105 300.138 38.8522 300.258 38.4512 300.492C38.0449 300.732 37.7272 301.065 37.4928 301.492C37.2532 301.909 37.1387 302.398 37.1387 302.95C37.1387 303.492 37.2532 303.982 37.4928 304.409C37.7272 304.841 38.0449 305.174 38.4512 305.409C38.8522 305.633 39.3105 305.742 39.8262 305.742Z" fill="#262728"/>
<path d="M45.9973 299.346H46.9556V306.534H45.9973V299.346ZM46.4973 297.784C46.289 297.784 46.1119 297.716 45.9765 297.575C45.8358 297.44 45.7681 297.279 45.7681 297.096C45.7681 296.919 45.8358 296.758 45.9765 296.617C46.1119 296.482 46.289 296.409 46.4973 296.409C46.69 296.409 46.8567 296.482 46.9973 296.617C47.1327 296.742 47.2056 296.898 47.2056 297.075C47.2056 297.273 47.1327 297.44 46.9973 297.575C46.8567 297.716 46.69 297.784 46.4973 297.784Z" fill="#262728"/>
<path d="M53.8628 299.305C54.7639 299.305 55.4774 299.57 56.0087 300.096C56.5503 300.612 56.8212 301.367 56.8212 302.367V306.534H55.842V302.471C55.842 301.721 55.6545 301.154 55.2795 300.763C54.9149 300.377 54.3889 300.18 53.6962 300.18C52.9149 300.18 52.3003 300.409 51.842 300.867C51.3941 301.325 51.1753 301.961 51.1753 302.763V306.534H50.217V299.346H51.1337V300.68C51.3941 300.252 51.7639 299.919 52.2378 299.68C52.7066 299.43 53.2482 299.305 53.8628 299.305Z" fill="#262728"/>
<path d="M70.591 299.346V306.534H69.6743V305.221C69.4087 305.669 69.0545 306.008 68.6118 306.242C68.1639 306.482 67.6587 306.596 67.091 306.596C66.1587 306.596 65.4243 306.341 64.8826 305.825C64.341 305.299 64.0701 304.529 64.0701 303.513V299.346H65.0285V303.43C65.0285 304.18 65.216 304.753 65.591 305.138C65.966 305.529 66.4972 305.721 67.1951 305.721C67.9451 305.721 68.5337 305.492 68.966 305.034C69.4087 304.575 69.6326 303.94 69.6326 303.117V299.346H70.591Z" fill="#262728"/>
<path d="M75.786 306.596C75.2027 306.596 74.6454 306.513 74.1193 306.346C73.5881 306.18 73.1714 305.971 72.8693 305.721L73.3068 304.95C73.6089 305.19 73.9839 305.383 74.4318 305.534C74.8902 305.69 75.3589 305.763 75.8485 305.763C76.5152 305.763 76.9996 305.659 77.3068 305.45C77.6246 305.242 77.786 304.95 77.786 304.575C77.786 304.315 77.6923 304.112 77.5152 303.971C77.3485 303.82 77.1298 303.711 76.8693 303.638C76.6037 303.555 76.2548 303.471 75.8277 303.388C75.2443 303.279 74.7704 303.169 74.411 303.055C74.0464 302.945 73.7443 302.758 73.4943 302.492C73.2443 302.216 73.1193 301.836 73.1193 301.346C73.1193 300.752 73.3693 300.263 73.8693 299.888C74.3798 299.502 75.0829 299.305 75.9735 299.305C76.4318 299.305 76.8902 299.367 77.3485 299.492C77.8173 299.617 78.2079 299.779 78.5152 299.971L78.0777 300.742C77.4943 300.341 76.7912 300.138 75.9735 300.138C75.3485 300.138 74.8746 300.252 74.5568 300.471C74.2496 300.68 74.0985 300.966 74.0985 301.325C74.0985 301.591 74.1871 301.805 74.3693 301.971C74.5464 302.138 74.7704 302.263 75.036 302.346C75.2964 302.419 75.661 302.492 76.1193 302.575C76.6871 302.69 77.1454 302.799 77.4943 302.909C77.8381 303.023 78.1298 303.211 78.3693 303.471C78.6193 303.737 78.7443 304.096 78.7443 304.555C78.7443 305.18 78.4787 305.68 77.9527 306.055C77.4371 306.419 76.7131 306.596 75.786 306.596Z" fill="#262728"/>
<path d="M87.5926 297.159C87.1759 297.159 86.853 297.279 86.6343 297.513C86.4259 297.737 86.3218 298.07 86.3218 298.513V299.346H88.5301V300.18H86.3426V306.534H85.3843V300.18H84.0926V299.346H85.3843V298.471C85.3843 297.82 85.5718 297.305 85.9468 296.93C86.3218 296.544 86.853 296.346 87.5509 296.346C87.8114 296.346 88.0718 296.388 88.3218 296.471C88.5822 296.544 88.8061 296.648 88.9884 296.784L88.6551 297.513C88.3739 297.279 88.0197 297.159 87.5926 297.159Z" fill="#262728"/>
<path d="M93.3308 306.596C92.6329 306.596 92.0079 306.445 91.4558 306.138C90.8985 305.82 90.461 305.383 90.1433 304.825C89.8204 304.273 89.6642 303.648 89.6642 302.95C89.6642 302.242 89.8204 301.612 90.1433 301.055C90.461 300.502 90.8985 300.07 91.4558 299.763C92.0079 299.461 92.6329 299.305 93.3308 299.305C94.0079 299.305 94.6277 299.461 95.185 299.763C95.7371 300.07 96.1746 300.502 96.4975 301.055C96.8152 301.612 96.9767 302.242 96.9767 302.95C96.9767 303.648 96.8152 304.273 96.4975 304.825C96.1746 305.383 95.7371 305.82 95.185 306.138C94.6277 306.445 94.0079 306.596 93.3308 306.596ZM93.3308 305.742C93.8308 305.742 94.2787 305.633 94.685 305.409C95.1017 305.174 95.4194 304.841 95.6433 304.409C95.8621 303.982 95.9767 303.492 95.9767 302.95C95.9767 302.398 95.8621 301.909 95.6433 301.492C95.4194 301.065 95.1017 300.732 94.685 300.492C94.2787 300.258 93.8308 300.138 93.3308 300.138C92.8152 300.138 92.3569 300.258 91.9558 300.492C91.5496 300.732 91.2319 301.065 90.9975 301.492C90.7579 301.909 90.6433 302.398 90.6433 302.95C90.6433 303.492 90.7579 303.982 90.9975 304.409C91.2319 304.841 91.5496 305.174 91.9558 305.409C92.3569 305.633 92.8152 305.742 93.3308 305.742Z" fill="#262728"/>
<path d="M100.419 300.763C100.653 300.279 100.991 299.919 101.439 299.68C101.898 299.43 102.45 299.305 103.106 299.305V300.242L102.877 300.221C102.127 300.221 101.533 300.461 101.106 300.93C100.674 301.388 100.46 302.034 100.46 302.867V306.534H99.5019V299.346H100.419V300.763Z" fill="#262728"/>
<path d="M112.148 299.305C113.091 299.305 113.815 299.544 114.315 300.013C114.815 300.471 115.065 301.159 115.065 302.075V306.534H114.128V305.409C113.919 305.784 113.596 306.075 113.169 306.284C112.753 306.492 112.253 306.596 111.669 306.596C110.862 306.596 110.221 306.409 109.753 306.034C109.279 305.648 109.044 305.138 109.044 304.513C109.044 303.904 109.263 303.409 109.711 303.034C110.154 302.659 110.857 302.471 111.815 302.471H114.086V302.055C114.086 301.43 113.909 300.961 113.565 300.638C113.232 300.305 112.732 300.138 112.065 300.138C111.607 300.138 111.169 300.216 110.753 300.367C110.336 300.523 109.971 300.732 109.669 300.992L109.232 300.263C109.591 299.961 110.029 299.721 110.544 299.555C111.055 299.388 111.591 299.305 112.148 299.305ZM111.815 305.846C112.357 305.846 112.82 305.721 113.211 305.471C113.612 305.221 113.904 304.862 114.086 304.388V303.2H111.836C110.612 303.2 110.003 303.633 110.003 304.492C110.003 304.909 110.159 305.242 110.482 305.492C110.799 305.732 111.242 305.846 111.815 305.846Z" fill="#262728"/>
<path d="M129.022 299.346V305.659C129.022 306.877 128.72 307.784 128.126 308.367C127.527 308.95 126.631 309.242 125.438 309.242C124.772 309.242 124.136 309.143 123.543 308.95C122.944 308.752 122.459 308.482 122.084 308.138L122.584 307.409C122.928 307.711 123.345 307.95 123.834 308.117C124.334 308.294 124.855 308.388 125.397 308.388C126.313 308.388 126.98 308.169 127.397 307.742C127.824 307.325 128.043 306.669 128.043 305.784V304.867C127.751 305.325 127.36 305.674 126.876 305.909C126.386 306.148 125.845 306.263 125.251 306.263C124.584 306.263 123.97 306.117 123.418 305.825C122.86 305.523 122.423 305.107 122.105 304.575C121.798 304.049 121.647 303.445 121.647 302.763C121.647 302.096 121.798 301.502 122.105 300.971C122.423 300.445 122.855 300.034 123.397 299.742C123.949 299.45 124.569 299.305 125.251 299.305C125.86 299.305 126.407 299.43 126.897 299.68C127.397 299.919 127.793 300.273 128.084 300.742V299.346H129.022ZM125.355 305.409C125.866 305.409 126.334 305.299 126.751 305.075C127.168 304.857 127.491 304.544 127.73 304.138C127.964 303.737 128.084 303.279 128.084 302.763C128.084 302.263 127.964 301.82 127.73 301.43C127.491 301.029 127.168 300.716 126.751 300.492C126.345 300.258 125.881 300.138 125.355 300.138C124.824 300.138 124.355 300.252 123.938 300.471C123.532 300.695 123.214 301.008 122.98 301.409C122.741 301.815 122.626 302.263 122.626 302.763C122.626 303.279 122.741 303.737 122.98 304.138C123.214 304.544 123.532 304.857 123.938 305.075C124.355 305.299 124.824 305.409 125.355 305.409Z" fill="#262728"/>
<path d="M133.207 300.763C133.441 300.279 133.78 299.919 134.228 299.68C134.686 299.43 135.238 299.305 135.894 299.305V300.242L135.665 300.221C134.915 300.221 134.321 300.461 133.894 300.93C133.462 301.388 133.249 302.034 133.249 302.867V306.534H132.29V299.346H133.207V300.763Z" fill="#262728"/>
<path d="M140.813 299.305C141.755 299.305 142.479 299.544 142.979 300.013C143.479 300.471 143.729 301.159 143.729 302.075V306.534H142.792V305.409C142.583 305.784 142.26 306.075 141.833 306.284C141.417 306.492 140.917 306.596 140.333 306.596C139.526 306.596 138.885 306.409 138.417 306.034C137.943 305.648 137.708 305.138 137.708 304.513C137.708 303.904 137.927 303.409 138.375 303.034C138.818 302.659 139.521 302.471 140.479 302.471H142.75V302.055C142.75 301.43 142.573 300.961 142.229 300.638C141.896 300.305 141.396 300.138 140.729 300.138C140.271 300.138 139.833 300.216 139.417 300.367C139 300.523 138.635 300.732 138.333 300.992L137.896 300.263C138.255 299.961 138.693 299.721 139.208 299.555C139.719 299.388 140.255 299.305 140.813 299.305ZM140.479 305.846C141.021 305.846 141.484 305.721 141.875 305.471C142.276 305.221 142.568 304.862 142.75 304.388V303.2H140.5C139.276 303.2 138.667 303.633 138.667 304.492C138.667 304.909 138.823 305.242 139.146 305.492C139.464 305.732 139.906 305.846 140.479 305.846Z" fill="#262728"/>
<path d="M153.458 296.409V306.534H152.541V305.117C152.249 305.607 151.859 305.971 151.374 306.221C150.9 306.471 150.364 306.596 149.77 306.596C149.088 306.596 148.478 306.445 147.937 306.138C147.395 305.836 146.963 305.404 146.645 304.846C146.338 304.294 146.187 303.659 146.187 302.95C146.187 302.242 146.338 301.612 146.645 301.055C146.963 300.503 147.395 300.07 147.937 299.763C148.478 299.461 149.088 299.305 149.77 299.305C150.353 299.305 150.874 299.43 151.333 299.68C151.801 299.919 152.192 300.263 152.499 300.721V296.409H153.458ZM149.853 305.742C150.353 305.742 150.801 305.633 151.208 305.409C151.609 305.174 151.921 304.841 152.145 304.409C152.38 303.982 152.499 303.492 152.499 302.95C152.499 302.398 152.38 301.909 152.145 301.492C151.921 301.065 151.609 300.732 151.208 300.492C150.801 300.258 150.353 300.138 149.853 300.138C149.338 300.138 148.88 300.258 148.478 300.492C148.072 300.732 147.755 301.065 147.52 301.492C147.281 301.909 147.166 302.398 147.166 302.95C147.166 303.492 147.281 303.982 147.52 304.409C147.755 304.841 148.072 305.174 148.478 305.409C148.88 305.633 149.338 305.742 149.853 305.742Z" fill="#262728"/>
<path d="M163.179 299.346V306.534H162.263V305.221C161.997 305.669 161.643 306.008 161.2 306.242C160.752 306.482 160.247 306.596 159.679 306.596C158.747 306.596 158.013 306.341 157.471 305.825C156.929 305.299 156.659 304.529 156.659 303.513V299.346H157.617V303.43C157.617 304.18 157.804 304.753 158.179 305.138C158.554 305.529 159.086 305.721 159.784 305.721C160.534 305.721 161.122 305.492 161.554 305.034C161.997 304.575 162.221 303.94 162.221 303.117V299.346H163.179Z" fill="#262728"/>
<path d="M168.958 299.305C169.9 299.305 170.624 299.544 171.124 300.013C171.624 300.471 171.874 301.159 171.874 302.075V306.534H170.937V305.409C170.729 305.784 170.406 306.075 169.979 306.284C169.562 306.492 169.062 306.596 168.479 306.596C167.671 306.596 167.031 306.409 166.562 306.034C166.088 305.648 165.854 305.138 165.854 304.513C165.854 303.904 166.072 303.409 166.52 303.034C166.963 302.659 167.666 302.471 168.624 302.471H170.895V302.055C170.895 301.43 170.718 300.961 170.374 300.638C170.041 300.305 169.541 300.138 168.874 300.138C168.416 300.138 167.979 300.216 167.562 300.367C167.145 300.523 166.781 300.732 166.479 300.992L166.041 300.263C166.4 299.961 166.838 299.721 167.354 299.555C167.864 299.388 168.4 299.305 168.958 299.305ZM168.624 305.846C169.166 305.846 169.63 305.721 170.02 305.471C170.421 305.221 170.713 304.862 170.895 304.388V303.2H168.645C167.421 303.2 166.812 303.633 166.812 304.492C166.812 304.909 166.968 305.242 167.291 305.492C167.609 305.732 168.052 305.846 168.624 305.846Z" fill="#262728"/>
<path d="M178.832 306.096C178.65 306.263 178.426 306.388 178.165 306.471C177.9 306.555 177.624 306.596 177.332 306.596C176.65 306.596 176.129 306.419 175.769 306.055C175.405 305.695 175.228 305.18 175.228 304.513V300.18H173.936V299.346H175.228V297.784H176.186V299.346H178.374V300.18H176.186V304.45C176.186 304.883 176.29 305.211 176.499 305.43C176.717 305.654 177.03 305.763 177.436 305.763C177.629 305.763 177.816 305.737 177.999 305.68C178.191 305.612 178.358 305.523 178.499 305.409L178.832 306.096Z" fill="#262728"/>
<path d="M181.152 299.346H182.11V306.534H181.152V299.346ZM181.652 297.784C181.444 297.784 181.266 297.716 181.131 297.575C180.99 297.44 180.923 297.279 180.923 297.096C180.923 296.919 180.99 296.758 181.131 296.617C181.266 296.482 181.444 296.409 181.652 296.409C181.845 296.409 182.011 296.482 182.152 296.617C182.287 296.742 182.36 296.898 182.36 297.075C182.36 297.273 182.287 297.44 182.152 297.575C182.011 297.716 181.845 297.784 181.652 297.784Z" fill="#262728"/>
<path d="M188.309 306.596C187.611 306.596 186.986 306.445 186.434 306.138C185.877 305.82 185.439 305.383 185.122 304.825C184.799 304.273 184.642 303.648 184.642 302.95C184.642 302.242 184.799 301.612 185.122 301.055C185.439 300.502 185.877 300.07 186.434 299.763C186.986 299.461 187.611 299.305 188.309 299.305C188.986 299.305 189.606 299.461 190.163 299.763C190.715 300.07 191.153 300.502 191.476 301.055C191.793 301.612 191.955 302.242 191.955 302.95C191.955 303.648 191.793 304.273 191.476 304.825C191.153 305.383 190.715 305.82 190.163 306.138C189.606 306.445 188.986 306.596 188.309 306.596ZM188.309 305.742C188.809 305.742 189.257 305.633 189.663 305.409C190.08 305.174 190.398 304.841 190.622 304.409C190.84 303.982 190.955 303.492 190.955 302.95C190.955 302.398 190.84 301.909 190.622 301.492C190.398 301.065 190.08 300.732 189.663 300.492C189.257 300.258 188.809 300.138 188.309 300.138C187.793 300.138 187.335 300.258 186.934 300.492C186.528 300.732 186.21 301.065 185.976 301.492C185.736 301.909 185.622 302.398 185.622 302.95C185.622 303.492 185.736 303.982 185.976 304.409C186.21 304.841 186.528 305.174 186.934 305.409C187.335 305.633 187.793 305.742 188.309 305.742Z" fill="#262728"/>
<path d="M198.126 299.305C199.027 299.305 199.741 299.57 200.272 300.096C200.814 300.612 201.084 301.367 201.084 302.367V306.534H200.105V302.471C200.105 301.721 199.918 301.154 199.543 300.763C199.178 300.377 198.652 300.18 197.959 300.18C197.178 300.18 196.564 300.409 196.105 300.867C195.657 301.325 195.439 301.961 195.439 302.763V306.534H194.48V299.346H195.397V300.68C195.657 300.252 196.027 299.919 196.501 299.68C196.97 299.43 197.511 299.305 198.126 299.305Z" fill="#262728"/>
<path d="M212.083 299.305C212.76 299.305 213.375 299.461 213.917 299.763C214.458 300.07 214.88 300.502 215.187 301.055C215.505 301.612 215.667 302.242 215.667 302.95C215.667 303.659 215.505 304.294 215.187 304.846C214.88 305.404 214.458 305.836 213.917 306.138C213.375 306.445 212.76 306.596 212.083 306.596C211.5 306.596 210.969 306.482 210.5 306.242C210.042 306.008 209.656 305.654 209.354 305.18V309.18H208.396V299.346H209.312V300.784C209.604 300.315 209.984 299.95 210.458 299.7C210.943 299.44 211.484 299.305 212.083 299.305ZM212.021 305.742C212.521 305.742 212.969 305.633 213.375 305.409C213.792 305.174 214.109 304.841 214.333 304.409C214.568 303.982 214.687 303.492 214.687 302.95C214.687 302.398 214.568 301.909 214.333 301.492C214.109 301.075 213.792 300.752 213.375 300.513C212.969 300.263 212.521 300.138 212.021 300.138C211.505 300.138 211.047 300.263 210.646 300.513C210.24 300.752 209.922 301.075 209.687 301.492C209.464 301.909 209.354 302.398 209.354 302.95C209.354 303.492 209.464 303.982 209.687 304.409C209.922 304.841 210.24 305.174 210.646 305.409C211.047 305.633 211.505 305.742 212.021 305.742Z" fill="#262728"/>
<path d="M220.701 299.305C221.644 299.305 222.368 299.544 222.868 300.013C223.368 300.471 223.618 301.159 223.618 302.075V306.534H222.68V305.409C222.472 305.784 222.149 306.075 221.722 306.284C221.305 306.492 220.805 306.596 220.222 306.596C219.414 306.596 218.774 306.409 218.305 306.034C217.831 305.648 217.597 305.138 217.597 304.513C217.597 303.904 217.815 303.409 218.263 303.034C218.706 302.659 219.409 302.471 220.368 302.471H222.638V302.055C222.638 301.43 222.461 300.961 222.118 300.638C221.784 300.305 221.284 300.138 220.618 300.138C220.159 300.138 219.722 300.216 219.305 300.367C218.888 300.523 218.524 300.732 218.222 300.992L217.784 300.263C218.144 299.961 218.581 299.721 219.097 299.555C219.607 299.388 220.144 299.305 220.701 299.305ZM220.368 305.846C220.909 305.846 221.373 305.721 221.763 305.471C222.164 305.221 222.456 304.862 222.638 304.388V303.2H220.388C219.164 303.2 218.555 303.633 218.555 304.492C218.555 304.909 218.711 305.242 219.034 305.492C219.352 305.732 219.795 305.846 220.368 305.846Z" fill="#262728"/>
<path d="M227.721 300.763C227.955 300.279 228.294 299.919 228.742 299.68C229.2 299.43 229.752 299.305 230.408 299.305V300.242L230.179 300.221C229.429 300.221 228.836 300.461 228.408 300.93C227.976 301.388 227.763 302.034 227.763 302.867V306.534H226.804V299.346H227.721V300.763Z" fill="#262728"/>
<path d="M236.597 306.096C236.415 306.263 236.191 306.388 235.931 306.471C235.665 306.555 235.389 306.596 235.097 306.596C234.415 306.596 233.894 306.419 233.535 306.055C233.17 305.695 232.993 305.18 232.993 304.513V300.18H231.701V299.346H232.993V297.784H233.951V299.346H236.139V300.18H233.951V304.45C233.951 304.883 234.056 305.211 234.264 305.43C234.483 305.654 234.795 305.763 235.201 305.763C235.394 305.763 235.582 305.737 235.764 305.68C235.957 305.612 236.123 305.523 236.264 305.409L236.597 306.096Z" fill="#262728"/>
<path d="M244.938 299.346L241.355 307.388C241.063 308.065 240.719 308.544 240.334 308.825C239.959 309.102 239.5 309.242 238.959 309.242C238.625 309.242 238.303 309.185 238 309.075C237.693 308.977 237.438 308.815 237.23 308.596L237.667 307.867C238.026 308.227 238.464 308.409 238.98 308.409C239.313 308.409 239.589 308.315 239.813 308.138C240.047 307.956 240.271 307.648 240.48 307.221L240.792 306.513L237.584 299.346H238.584L241.292 305.45L244 299.346H244.938Z" fill="#262728"/>
<path d="M6.12792 350.735C6.71126 350.724 7.14876 350.662 7.44042 350.547C7.73209 350.422 7.96126 350.172 8.12792 349.797C8.30501 349.412 8.39876 348.797 8.39876 347.964V332.714H6.91959C5.66959 332.73 4.70084 333.151 4.02376 333.985C3.34147 334.808 3.00292 336.058 3.00292 337.735H0.898758L1.06542 330.547H20.3779L20.5654 337.735H18.4613C18.4613 336.058 18.1123 334.792 17.4196 333.943C16.7373 333.084 15.779 332.662 14.5446 332.672H13.0029V347.61C13.0029 349.042 12.9613 350 12.8779 350.485C13.5863 350.417 14.4404 350.381 15.4404 350.381V352.839H6.12792V350.735Z" fill="#46361C"/>
<path d="M24.8925 350.735C25.4759 350.724 25.9134 350.662 26.205 350.547C26.5071 350.422 26.7467 350.172 26.9134 349.797C27.08 349.412 27.1634 348.797 27.1634 347.964V335.756C27.1634 334.578 27.205 333.625 27.2884 332.901L24.8925 332.985V330.547L33.955 330.485C36.8561 330.459 39.1009 330.964 40.6842 332.006C42.2675 333.047 43.0592 334.735 43.0592 337.068C43.0592 338.542 42.5852 339.849 41.6425 340.985C40.6946 342.11 39.2988 342.938 37.455 343.464V343.506C37.83 343.662 38.2155 343.922 38.6217 344.297C39.0384 344.662 39.3769 345.063 39.6425 345.506L41.1425 347.735C41.8613 348.86 42.4602 349.641 42.9342 350.068C43.4186 350.5 44.0071 350.724 44.705 350.735V352.839H39.455C39.0905 352.589 38.7311 352.23 38.3717 351.756C38.0071 351.271 37.6009 350.631 37.1425 349.839L34.7675 346.026C34.2363 345.183 33.7936 344.563 33.4342 344.172H31.7884V347.589C31.7884 348.797 31.7467 349.766 31.6634 350.485C32.3405 350.417 33.2467 350.381 34.3717 350.381V352.839H24.8925V350.735ZM33.3092 341.881C35.0436 341.881 36.2988 341.495 37.08 340.714C37.8561 339.938 38.2467 338.724 38.2467 337.068C38.2467 335.308 37.7936 334.141 36.8925 333.568C35.9863 333 34.9967 332.714 33.9134 332.714C33.1738 332.714 32.6321 332.875 32.2884 333.193C31.955 333.516 31.7884 334.188 31.7884 335.214V341.756C32.4238 341.839 32.9342 341.881 33.3092 341.881Z" fill="#46361C"/>
<path d="M47.4918 350.631C48.0439 350.631 48.5022 350.48 48.8668 350.172C49.2418 349.855 49.5334 349.464 49.7418 349.006C49.9605 348.547 50.2314 347.881 50.5543 347.006L56.7626 329.964H58.9918L65.7835 347.318C65.9501 347.75 66.1272 348.276 66.3251 348.901C66.5178 349.526 66.6376 350.058 66.6793 350.485C67.372 350.417 67.9814 350.381 68.5126 350.381V352.839H59.9501V350.735C60.9605 350.735 61.471 350.313 61.471 349.464C61.471 349.037 61.3564 348.526 61.1376 347.943L60.4918 346.172L53.5751 346.318L53.0751 347.797C53.0022 347.98 52.8564 348.37 52.6376 348.964C52.4137 349.547 52.2209 350.021 52.0543 350.381C52.7314 350.329 53.4814 350.297 54.3043 350.297V352.839H47.4918V350.631ZM59.7001 343.922L58.221 339.943C57.6064 338.193 57.2053 336.735 57.0126 335.568H56.9918C56.6428 337.099 56.247 338.5 55.8043 339.776L54.3668 343.922H59.7001Z" fill="#46361C"/>
<path d="M79.205 340.131C78.6633 339.453 78.08 338.651 77.455 337.735H77.4133L77.4758 347.61C77.4758 348.808 77.4342 349.766 77.3508 350.485C78.0279 350.417 78.83 350.381 79.7467 350.381V352.839H72.4758V350.735C73.0435 350.724 73.4758 350.662 73.7675 350.547C74.0696 350.422 74.3092 350.172 74.4758 349.797C74.6529 349.412 74.7467 348.797 74.7467 347.964L74.6633 335.756C74.6633 334.339 74.7102 333.391 74.8092 332.901L72.3717 332.985V330.547H77.3717L87.1217 342.839C88.0227 344.006 88.7675 345.016 89.3508 345.86H89.3925V335.756C89.3925 334.381 89.4185 333.433 89.4758 332.901L87.1008 332.985V330.547H94.3508V332.651C93.7779 332.667 93.3404 332.735 93.0383 332.86C92.7467 332.974 92.5175 333.224 92.3508 333.61C92.1842 333.985 92.1008 334.589 92.1008 335.422V353.151H89.3925L79.205 340.131Z" fill="#46361C"/>
<path d="M113.989 350.735C114.572 350.724 115.01 350.662 115.301 350.547C115.593 350.422 115.822 350.172 115.989 349.797C116.166 349.412 116.26 348.797 116.26 347.964V332.714H114.78C113.53 332.73 112.562 333.151 111.885 333.985C111.202 334.808 110.864 336.058 110.864 337.735H108.76L108.926 330.547H128.239L128.426 337.735H126.322C126.322 336.058 125.973 334.792 125.28 333.943C124.598 333.084 123.64 332.662 122.405 332.672H120.864V347.61C120.864 349.042 120.822 350 120.739 350.485C121.447 350.417 122.301 350.381 123.301 350.381V352.839H113.989V350.735Z" fill="#46361C"/>
<path d="M132.753 350.735C133.337 350.724 133.774 350.662 134.066 350.547C134.368 350.422 134.608 350.172 134.774 349.797C134.941 349.412 135.024 348.797 135.024 347.964V335.756C135.024 334.578 135.066 333.625 135.149 332.901L132.753 332.985V330.547H141.899V332.651C141.326 332.667 140.889 332.735 140.587 332.86C140.295 332.974 140.066 333.224 139.899 333.61C139.733 333.985 139.649 334.589 139.649 335.422V340.381H148.399V335.756C148.399 334.339 148.441 333.391 148.524 332.901L146.149 332.985V330.547H155.274V332.651C154.701 332.667 154.264 332.735 153.962 332.86C153.67 332.974 153.441 333.224 153.274 333.61C153.108 333.985 153.024 334.589 153.024 335.422V347.61C153.024 348.808 152.983 349.766 152.899 350.485C153.576 350.417 154.368 350.381 155.274 350.381V352.839H146.149V350.735C146.717 350.724 147.149 350.662 147.441 350.547C147.743 350.422 147.983 350.172 148.149 349.797C148.316 349.412 148.399 348.797 148.399 347.964V342.797L139.649 342.901V347.61C139.649 348.808 139.608 349.766 139.524 350.485C140.201 350.417 140.993 350.381 141.899 350.381V352.839H132.753V350.735Z" fill="#46361C"/>
<path d="M160.667 350.735C161.25 350.724 161.687 350.662 161.979 350.547C162.281 350.422 162.521 350.172 162.687 349.797C162.854 349.412 162.937 348.797 162.937 347.964V335.756C162.937 334.578 162.979 333.625 163.062 332.901L160.667 332.985V330.547H169.812V332.651C169.239 332.667 168.802 332.735 168.5 332.86C168.208 332.974 167.979 333.224 167.812 333.61C167.646 333.985 167.562 334.589 167.562 335.422V347.61C167.562 348.808 167.521 349.766 167.437 350.485C168.114 350.417 168.906 350.381 169.812 350.381V352.839H160.667V350.735Z" fill="#46361C"/>
<path d="M185.776 350.735C186.359 350.724 186.797 350.662 187.088 350.547C187.39 350.422 187.63 350.172 187.797 349.797C187.963 349.412 188.047 348.797 188.047 347.964V335.756C188.047 334.578 188.088 333.625 188.172 332.901L185.776 332.985V330.547H194.922V332.651C194.349 332.667 193.911 332.735 193.609 332.86C193.317 332.974 193.088 333.224 192.922 333.61C192.755 333.985 192.672 334.589 192.672 335.422V347.61C192.672 348.766 192.63 349.703 192.547 350.422H196.797C198.073 350.396 199.057 349.943 199.755 349.068C200.463 348.183 200.817 346.891 200.817 345.193H202.963L202.755 352.839H185.776V350.735Z" fill="#46361C"/>
<path d="M207.221 350.735C207.804 350.724 208.241 350.662 208.533 350.547C208.835 350.422 209.075 350.172 209.241 349.797C209.408 349.412 209.491 348.797 209.491 347.964V335.756C209.491 334.578 209.533 333.625 209.616 332.901L207.221 332.985V330.547H216.366V332.651C215.793 332.667 215.356 332.735 215.054 332.86C214.762 332.974 214.533 333.224 214.366 333.61C214.2 333.985 214.116 334.589 214.116 335.422V347.61C214.116 348.808 214.075 349.766 213.991 350.485C214.668 350.417 215.46 350.381 216.366 350.381V352.839H207.221V350.735Z" fill="#46361C"/>
<path d="M228.521 340.131C227.98 339.453 227.396 338.651 226.771 337.735H226.73L226.792 347.61C226.792 348.808 226.751 349.766 226.667 350.485C227.344 350.417 228.146 350.381 229.063 350.381V352.839H221.792V350.735C222.36 350.724 222.792 350.662 223.084 350.547C223.386 350.422 223.626 350.172 223.792 349.797C223.969 349.412 224.063 348.797 224.063 347.964L223.98 335.756C223.98 334.339 224.027 333.391 224.126 332.901L221.688 332.985V330.547H226.688L236.438 342.839C237.339 344.006 238.084 345.016 238.667 345.86H238.709V335.756C238.709 334.381 238.735 333.433 238.792 332.901L236.417 332.985V330.547H243.667V332.651C243.094 332.667 242.657 332.735 242.355 332.86C242.063 332.974 241.834 333.224 241.667 333.61C241.501 333.985 241.417 334.589 241.417 335.422V353.151H238.709L228.521 340.131Z" fill="#46361C"/>
<path d="M248.58 350.735C249.164 350.724 249.601 350.662 249.893 350.547C250.195 350.422 250.435 350.172 250.601 349.797C250.768 349.412 250.851 348.797 250.851 347.964V335.756C250.851 334.578 250.893 333.625 250.976 332.901L248.58 332.985V330.547H257.726V332.651C257.153 332.667 256.716 332.735 256.414 332.86C256.122 332.974 255.893 333.224 255.726 333.61C255.56 333.985 255.476 334.589 255.476 335.422V340.381H264.226V335.756C264.226 334.339 264.268 333.391 264.351 332.901L261.976 332.985V330.547H271.101V332.651C270.528 332.667 270.091 332.735 269.789 332.86C269.497 332.974 269.268 333.224 269.101 333.61C268.935 333.985 268.851 334.589 268.851 335.422V347.61C268.851 348.808 268.81 349.766 268.726 350.485C269.403 350.417 270.195 350.381 271.101 350.381V352.839H261.976V350.735C262.544 350.724 262.976 350.662 263.268 350.547C263.57 350.422 263.81 350.172 263.976 349.797C264.143 349.412 264.226 348.797 264.226 347.964V342.797L255.476 342.901V347.61C255.476 348.808 255.435 349.766 255.351 350.485C256.028 350.417 256.82 350.381 257.726 350.381V352.839H248.58V350.735Z" fill="#46361C"/>
<path d="M49.0891 23.6042C48.7558 24.2708 48.3391 24.5781 47.8391 24.5208C47.3391 24.4688 47.3078 23.9948 47.7558 23.1042C51.1828 16.8958 56.4745 11.6615 63.6308 7.39583C70.7818 3.13542 79.6776 1 90.3183 1C98.3026 1 105.506 2.30729 111.922 4.91667C118.35 7.51563 123.475 11.1979 127.297 15.9583C131.131 20.724 133.047 26.4323 133.047 33.0833C133.047 41.8333 130.11 49.7604 124.235 56.8542C118.36 63.9531 110.433 70.2708 100.464 75.8125L65.2141 97.5833L114.922 92.6042C119.573 91.9375 123.141 91 125.631 89.7917C128.131 88.5729 130.073 86.625 131.464 83.9583C132.85 81.2917 134.157 77.4688 135.381 72.4792C135.6 71.8125 135.933 71.4792 136.381 71.4792C136.823 71.4792 136.99 71.8698 136.881 72.6458C135.657 81.1875 134.797 88.8958 134.297 95.7708C133.797 102.646 133.714 109.516 134.047 116.375C134.047 118.375 133.964 119.818 133.797 120.708C133.631 121.594 133.157 122.042 132.381 122.042C130.823 122.042 129.323 121.792 127.881 121.292C126.448 120.792 124.454 120.318 121.902 119.875C119.36 119.427 115.594 119.208 110.61 119.208H44.0891C41.7662 119.208 40.6099 118.542 40.6099 117.208C40.6099 116.766 40.7766 116.266 41.1099 115.708C41.4433 115.156 42.0995 114.495 43.0891 113.729L59.8808 98.9167C74.9641 87.0573 85.9641 75.75 92.8808 65C99.8079 54.25 103.277 44.5573 103.277 35.9167C103.277 27.599 100.975 20.8073 96.3808 15.5417C91.7818 10.2813 85.2141 7.64583 76.6724 7.64583C70.9068 7.64583 65.6724 8.84375 60.9641 11.2292C56.2558 13.6042 52.2974 17.7292 49.0891 23.6042Z" fill="#F9E1BC"/>
<path d="M196.407 122.042C185.975 122.042 176.907 119.354 169.199 113.979C161.501 108.604 155.543 101.208 151.324 91.7917C147.116 82.3646 145.012 71.6042 145.012 59.5208C145.012 47.6615 147.251 37.2708 151.741 28.3542C156.241 19.4271 162.501 12.4687 170.532 7.47917C178.574 2.49479 187.97 0 198.72 0C209.137 0 218.199 2.6875 225.907 8.0625C233.616 13.4375 239.574 20.8125 243.782 30.1875C247.991 39.5521 250.095 50.2656 250.095 62.3333C250.095 74.6406 247.85 85.2604 243.366 94.1875C238.876 103.104 232.616 109.979 224.574 114.813C216.543 119.63 207.157 122.042 196.407 122.042ZM208.199 118.208C214.407 118.208 218.866 115.854 221.574 111.146C224.293 106.438 225.657 99.2031 225.657 89.4375C225.657 84.4531 225.157 78.8854 224.157 72.7292C223.168 66.5781 221.762 60.2917 219.928 53.875C218.095 47.4479 215.954 41.2656 213.512 35.3333C211.079 29.4063 208.449 24.0573 205.616 19.2917C202.793 14.5156 199.829 10.7187 196.72 7.89583C193.621 5.0625 190.522 3.64583 187.428 3.64583C181.105 3.64583 176.501 6.09375 173.616 10.9792C170.741 15.8542 169.303 23 169.303 32.4167C169.303 38.5156 170.017 45.3333 171.449 52.875C172.892 60.4063 174.913 67.9948 177.512 75.6458C180.121 83.3021 183.058 90.3438 186.324 96.7708C189.6 103.188 193.121 108.37 196.887 112.313C200.663 116.245 204.433 118.208 208.199 118.208Z" fill="#F9E1BC"/>
<path d="M59.6555 156.346C59.3222 157.012 58.9055 157.32 58.4055 157.262C57.9055 157.21 57.8743 156.736 58.3222 155.846C61.7493 149.637 67.0409 144.403 74.1972 140.137C81.3482 135.877 90.244 133.742 100.885 133.742C108.869 133.742 116.072 135.049 122.489 137.658C128.916 140.257 134.041 143.939 137.864 148.7C141.697 153.466 143.614 159.174 143.614 165.825C143.614 174.575 140.676 182.502 134.801 189.596C128.926 196.695 120.999 203.012 111.031 208.554L75.7805 230.325L125.489 225.346C130.14 224.679 133.708 223.742 136.197 222.533C138.697 221.314 140.64 219.367 142.031 216.7C143.416 214.033 144.723 210.21 145.947 205.221C146.166 204.554 146.499 204.221 146.947 204.221C147.39 204.221 147.557 204.611 147.447 205.387C146.223 213.929 145.364 221.637 144.864 228.512C144.364 235.387 144.281 242.257 144.614 249.117C144.614 251.117 144.531 252.559 144.364 253.45C144.197 254.335 143.723 254.783 142.947 254.783C141.39 254.783 139.89 254.533 138.447 254.033C137.015 253.533 135.02 253.059 132.468 252.617C129.926 252.169 126.161 251.95 121.176 251.95H54.6555C52.3326 251.95 51.1763 251.283 51.1763 249.95C51.1763 249.507 51.343 249.007 51.6763 248.45C52.0097 247.898 52.6659 247.236 53.6555 246.471L70.4472 231.658C85.5305 219.799 96.5305 208.492 103.447 197.742C110.374 186.992 113.843 177.299 113.843 168.658C113.843 160.341 111.541 153.549 106.947 148.283C102.348 143.023 95.7805 140.387 87.2388 140.387C81.4732 140.387 76.2388 141.585 71.5305 143.971C66.8222 146.346 62.8638 150.471 59.6555 156.346Z" fill="#F9E1BC"/>
<path d="M154.599 253.783C153.484 253.783 152.932 253.533 152.932 253.033C152.932 252.533 153.484 252.283 154.599 252.283C157.807 252.283 161.708 251.95 166.307 251.283C170.901 250.617 175.666 249.377 180.599 247.554C185.541 245.721 190.172 243.064 194.494 239.575C198.812 236.075 202.297 231.528 204.953 225.929C207.619 220.335 208.953 213.429 208.953 205.221C208.953 197.252 206.791 191.049 202.474 186.617C198.151 182.174 193 179.95 187.015 179.95C183.791 179.95 180.625 180.564 177.515 181.783C174.416 183.007 171.375 184.945 168.39 187.596C167.276 188.596 166.224 189.096 165.224 189.096C163.901 189.096 163.401 188.049 163.724 185.95L173.369 138.721C173.922 137.502 174.619 136.669 175.453 136.221C176.286 135.778 177.588 135.554 179.369 135.554H219.432C222.875 135.554 225.479 135.387 227.244 135.054C229.021 134.721 230.411 134.341 231.411 133.908C232.411 133.466 233.458 133.132 234.557 132.908C235.224 132.689 235.724 132.773 236.057 133.158C236.39 133.549 236.276 134.346 235.724 135.554C234.609 140.762 233.526 144.95 232.474 148.117C231.432 151.273 230.13 153.653 228.578 155.262C227.021 156.877 224.88 157.96 222.161 158.512C219.453 159.07 215.937 159.346 211.619 159.346H174.536C172.213 159.346 170.724 160.507 170.057 162.825L165.224 185.95C165.109 186.382 165.25 186.71 165.64 186.929C166.026 187.153 166.442 186.986 166.89 186.429C168.666 184.669 170.854 182.867 173.453 181.033C176.062 179.2 179.333 177.679 183.265 176.471C187.208 175.252 192.062 174.637 197.828 174.637C205.687 174.637 212.807 175.971 219.182 178.637C225.557 181.294 230.625 185.085 234.39 190.012C238.166 194.945 240.057 200.96 240.057 208.054C240.057 222.794 232.958 234.096 218.765 241.971C204.583 249.846 183.192 253.783 154.599 253.783Z" fill="#F9E1BC"/>
<path d="M27.4522 193.359C24.6605 193.859 22.7335 193.296 21.6814 191.671C21.2907 191.14 21.2022 190.338 21.4105 189.254C21.6189 188.161 22.0147 187.202 22.598 186.379C22.848 186.187 22.9626 186.015 22.9522 185.859C22.9366 185.775 23.4157 185.202 24.3897 184.129C25.3585 183.062 26.3897 181.931 27.473 180.734C28.5564 179.541 29.3376 178.744 29.8272 178.338L31.473 176.796C32.3168 175.952 33.6397 174.812 35.4314 173.379C37.223 171.952 38.921 170.692 40.5355 169.609L41.598 168.754C42.9991 167.452 44.0407 166.556 44.723 166.067C45.4157 165.582 46.1657 165.129 46.973 164.713C47.473 164.504 47.921 164.275 48.3272 164.025C48.7282 163.775 48.973 163.603 49.0564 163.504L50.7439 162.463C51.1605 162.254 51.5199 162.062 51.8272 161.879C52.1449 161.687 52.3376 161.541 52.4105 161.442L52.7855 161.15L56.0772 159.317C58.9782 157.525 61.2074 156.353 62.7647 155.796C63.3585 155.661 63.8532 155.442 64.2439 155.15C64.4105 155.056 64.6397 154.957 64.9314 154.859C65.223 154.749 65.4835 154.64 65.723 154.525C66.473 154.291 67.1605 153.931 67.7855 153.442C68.4522 153.14 69.0043 152.879 69.4522 152.671C69.9105 152.463 70.598 152.228 71.5147 151.963L72.6189 151.484L73.9522 150.859C74.6189 150.64 75.0251 150.431 75.1814 150.234C75.1657 150.15 75.2439 150.103 75.4105 150.088C75.421 150.171 75.671 150.129 76.1605 149.963C76.6605 149.786 77.2439 149.582 77.9105 149.359C79.546 148.791 80.4939 148.457 80.7439 148.359C80.9939 148.249 81.1605 148.15 81.2439 148.067C81.3949 147.89 82.171 147.603 83.5772 147.213C84.1605 146.994 84.7126 146.796 85.2439 146.629C85.7855 146.452 86.1397 146.312 86.3064 146.213C86.4574 146.119 86.7022 146.015 87.0355 145.9C87.3689 145.775 87.6189 145.707 87.7855 145.692C88.5199 145.442 88.973 145.291 89.1397 145.234C89.3168 145.181 89.5668 145.098 89.8897 144.984L90.6397 144.546C90.723 144.536 91.0355 144.27 91.5772 143.754C92.1293 143.244 92.5564 142.796 92.848 142.421C92.9314 142.244 93.0668 142.088 93.2647 141.963C93.473 141.827 93.6032 141.707 93.6605 141.609C93.9939 141.416 94.2282 141.14 94.3689 140.775C94.5043 140.431 94.8532 140.015 95.4105 139.525L96.8064 138.004C96.9574 137.827 97.1085 137.666 97.2647 137.525C97.4314 137.374 97.5616 137.296 97.6605 137.296L98.5772 136.442C99.1189 135.806 99.473 135.478 99.6397 135.463L99.9939 135.046C100.129 134.619 100.317 134.348 100.556 134.234C100.707 134.041 101.369 133.338 102.536 132.129C103.702 130.921 104.713 129.859 105.577 128.942L107.348 127.109L107.681 126.713C107.608 126.796 107.536 126.848 107.452 126.859L107.098 127.129C107.082 126.963 106.536 127.103 105.452 127.546L103.723 128.213L102.369 128.588L86.223 135.109C84.1657 136.056 82.0876 136.707 79.9939 137.067C77.9105 137.431 76.3897 137.478 75.4314 137.213C74.8168 137.02 74.2126 136.692 73.6189 136.234C73.0199 135.775 72.6085 135.254 72.3897 134.671C71.4001 132.978 71.9782 130.291 74.1189 126.609C74.5616 125.89 74.8949 125.369 75.1189 125.046C75.3532 124.728 75.6085 124.306 75.8897 123.775C76.0564 123.681 76.1293 123.499 76.1189 123.234C76.1032 123.15 76.1397 123.103 76.223 123.088C76.4001 123.244 76.7907 122.827 77.3897 121.838C77.5407 121.671 77.6501 121.546 77.723 121.463C77.8064 121.369 77.848 121.317 77.848 121.317C77.8585 121.4 77.9418 121.353 78.098 121.171C78.2491 120.812 78.2751 120.629 78.1814 120.629C78.1657 120.546 78.2074 120.504 78.3064 120.504C78.4835 120.577 78.7647 120.379 79.1397 119.921L82.4105 116.421C82.7022 116.062 83.1449 115.645 83.7439 115.171C84.3532 114.702 84.7022 114.457 84.7855 114.442C84.7855 114.442 84.8585 114.374 85.0147 114.234C85.1814 114.098 85.3064 113.984 85.3897 113.9C85.5407 113.707 85.7282 113.515 85.9522 113.317C86.1866 113.124 86.4314 112.937 86.6814 112.754L88.9522 111.025L90.7439 109.609C91.2282 109.374 91.546 109.166 91.7022 108.984C91.7699 108.817 91.8897 108.728 92.0564 108.713C92.223 108.702 92.4626 108.504 92.7855 108.129L95.6605 106.088L96.598 105.359C96.9157 105.15 97.1189 105.004 97.2022 104.921L98.9105 103.754C99.296 103.478 99.6918 103.192 100.098 102.9C100.499 102.609 100.733 102.421 100.806 102.338L101.286 102.004L102.14 101.442C102.291 101.265 102.525 101.067 102.848 100.859C103.181 100.65 103.463 100.499 103.702 100.4C104.27 100.015 104.556 99.7752 104.556 99.6919C104.541 99.6085 104.582 99.6033 104.681 99.671C104.681 99.671 104.702 99.671 104.744 99.671C104.786 99.671 104.838 99.6241 104.911 99.5252C105.077 99.4314 105.577 99.1085 106.411 98.5669C107.254 98.0148 108.124 97.4835 109.015 96.9835C109.9 96.4835 110.437 96.1866 110.619 96.0877L111.931 95.3377C113.556 94.4366 114.692 93.8273 115.348 93.5044L116.931 92.7127C117.582 92.3273 117.994 92.1241 118.161 92.1085C118.744 92.0564 119.27 91.7491 119.744 91.1919L120.098 91.046L120.369 91.0044C120.786 90.895 120.9 90.8116 120.723 90.7544C121.14 90.6294 121.483 90.4939 121.765 90.3377C122.041 90.171 122.338 90.0356 122.661 89.921C123.504 89.77 124.379 89.4002 125.286 88.8169L125.14 88.8377L124.515 89.0044L124.265 89.0252L123.89 89.1919C123.791 89.1241 123.358 89.1189 122.598 89.171C119.999 89.5773 117.228 89.9523 114.286 90.296C111.338 90.6294 107.723 91.0356 103.431 91.5044L94.5772 92.4002L91.0355 92.9835C89.0355 93.2491 87.5668 93.4419 86.6397 93.5669C85.723 93.6919 84.848 93.8325 84.0147 93.9835L80.7439 94.6294C79.8949 94.7023 79.098 94.8116 78.348 94.9627C77.598 95.1189 76.2126 95.4158 74.2022 95.8585L71.2022 96.3794C70.5355 96.52 69.7647 96.671 68.8897 96.8377C68.0147 96.9939 67.5355 97.1189 67.4522 97.2127C67.3793 97.296 65.9574 97.6398 63.1814 98.2335L61.7022 98.6085L56.6189 100.088L53.4939 101.129L49.6605 102.463C48.9105 102.702 48.3376 102.973 47.9522 103.275C47.6293 103.556 47.296 103.707 46.9522 103.734C46.7126 103.749 46.4314 103.859 46.098 104.067L43.3064 105.588L42.7022 105.9C42.3532 106.015 41.848 106.312 41.1814 106.796C40.5147 107.286 40.0564 107.666 39.8064 107.942C39.5824 108.223 39.3897 108.369 39.223 108.379C39.1397 108.395 38.8064 108.749 38.223 109.442C37.6397 110.124 37.3532 110.546 37.3689 110.713C37.3949 110.963 37.5407 111.202 37.8064 111.421C38.098 111.744 38.2439 111.921 38.2439 111.963C38.2543 112.004 38.0876 112.046 37.7439 112.088C37.1605 112.129 36.723 111.937 36.4314 111.504C36.1397 111.062 36.1293 110.52 36.4105 109.879C36.546 109.452 36.9626 108.869 37.6605 108.129C38.3532 107.395 38.9835 106.832 39.5564 106.442C43.2491 103.9 47.6189 101.859 52.6605 100.317C53.8272 100.025 54.4835 99.7908 54.6397 99.6085L55.1397 99.4419L60.6189 97.9419C61.796 97.6658 62.8168 97.4106 63.6814 97.171C64.5564 96.921 65.2751 96.7283 65.848 96.5877L67.3897 96.3377L70.2439 95.671L78.0355 94.2544L82.5564 93.3377C83.6241 93.1606 84.4522 93.02 85.0355 92.921C85.6293 92.8273 86.2855 92.7283 86.9939 92.6294C87.7126 92.52 88.7491 92.3689 90.098 92.171C91.098 91.9939 91.9522 91.8325 92.6605 91.6919C93.3793 91.5408 93.7855 91.4627 93.8689 91.4627C93.8532 91.2856 94.0199 91.27 94.3689 91.421C94.4626 91.4939 94.6814 91.5148 95.0147 91.4835L100.161 90.7544L119.744 88.5252C120.921 88.3481 122.015 88.171 123.015 88.0044C124.025 87.8273 124.661 87.7231 124.911 87.6919L127.036 87.2544C128.213 87.1606 129.056 86.9939 129.556 86.7544C129.723 86.7439 129.911 86.7075 130.119 86.6502C130.327 86.5981 130.478 86.6033 130.577 86.671L131.202 86.6085C131.463 86.5981 131.692 86.7544 131.89 87.0877C131.999 87.4106 131.978 87.7023 131.827 87.9627C131.504 88.2544 131.02 88.5825 130.369 88.9419C129.728 89.2908 129.15 89.5356 128.64 89.671C128.416 89.8689 127.963 90.0356 127.286 90.171C126.702 90.2283 126.171 90.4366 125.702 90.796C125.546 90.895 125.306 91.0044 124.973 91.1294C124.64 91.2439 124.39 91.3064 124.223 91.3169C123.624 91.4575 122.937 91.6658 122.161 91.9419C121.379 92.2231 120.582 92.5252 119.765 92.8585C119.015 93.1919 118.046 93.6658 116.869 94.2752C115.702 94.8898 114.645 95.4314 113.702 95.9002C112.754 96.3585 112.249 96.6398 112.181 96.7335C112.108 96.8898 111.942 96.9783 111.681 97.0044C111.598 97.02 111.233 97.2283 110.598 97.6294C109.957 98.02 109.598 98.2231 109.515 98.2335C109.416 98.2335 109.348 98.2648 109.306 98.3169C109.275 98.3585 109.265 98.3794 109.265 98.3794C109.275 98.546 109.202 98.6398 109.036 98.6502C108.952 98.6502 107.098 99.796 103.473 102.088C102.166 102.879 101.374 103.374 101.098 103.567C100.832 103.765 100.582 103.994 100.348 104.254C100.041 104.536 99.7543 104.687 99.4939 104.713C99.4105 104.728 99.0407 104.937 98.3897 105.338L97.3064 106.192L93.723 108.817C93.3168 109.098 92.723 109.525 91.9314 110.109C91.1397 110.692 90.4001 111.249 89.723 111.775C89.0407 112.306 88.6605 112.619 88.5772 112.713L87.3689 113.567C86.6449 114.067 86.2907 114.4 86.3064 114.567C86.1501 114.749 86.0355 114.838 85.9522 114.838C85.8793 114.853 85.5876 115.077 85.0772 115.504C84.5616 115.921 84.1085 116.369 83.723 116.838L81.973 118.65C81.1918 119.4 80.3168 120.348 79.348 121.484C78.3741 122.624 77.4939 123.749 76.7022 124.859C75.9105 125.957 75.3689 126.77 75.0772 127.296L74.6189 127.963L73.8689 129.692C73.3949 130.931 73.1866 131.921 73.2439 132.671C73.3793 134.27 74.1605 135.353 75.5772 135.921C76.0199 136.129 76.4105 136.249 76.7439 136.275C77.0876 136.291 77.848 136.192 79.0147 135.984C80.3741 135.874 81.3376 135.728 81.9105 135.546C82.4939 135.369 83.7282 134.895 85.6189 134.129L88.8272 132.963C92.7022 131.437 94.7126 130.624 94.8689 130.525C95.0355 130.431 95.3324 130.359 95.7647 130.317C96.0147 130.306 96.2126 130.207 96.3689 130.025C96.3689 130.025 96.4939 129.973 96.7439 129.859C96.9939 129.749 97.2335 129.645 97.473 129.546L100.181 128.525C101.332 127.999 102.457 127.541 103.556 127.15C104.666 126.749 105.64 126.39 106.473 126.067C107.473 125.791 108.056 125.562 108.223 125.379C108.431 125.119 108.582 125.062 108.681 125.213C108.931 125.187 109.213 124.994 109.536 124.629C109.853 124.421 110.046 124.286 110.119 124.213C110.603 123.744 111.661 122.609 113.286 120.817C114.911 119.015 116.791 116.931 118.931 114.567C121.067 112.207 123.14 109.9 125.14 107.65C127.15 105.39 128.812 103.499 130.119 101.984C131.437 100.473 132.056 99.7127 131.973 99.7127C132.207 99.5044 132.421 99.2908 132.619 99.0669C132.812 98.8481 132.978 98.6033 133.119 98.3377C133.437 98.2283 133.775 98.0877 134.14 97.921C134.515 97.7544 134.869 97.5773 135.202 97.3794C136.02 96.8794 136.608 96.7856 136.973 97.0877C137.442 97.5616 136.957 98.3325 135.515 99.4002L113.723 123.129L111.744 125.067C111.754 125.317 111.681 125.452 111.515 125.463L111.036 125.775C110.327 126.431 109.661 127.109 109.036 127.817C108.421 128.515 107.963 129.041 107.661 129.4L103.556 133.463L101.911 135.129L99.5564 137.379C99.2335 137.661 98.6657 138.223 97.848 139.067C97.0407 139.9 96.223 140.734 95.3897 141.567C94.5668 142.4 93.973 143.046 93.598 143.504C93.2751 143.713 93.3585 143.796 93.848 143.754L94.9939 143.65C95.1605 143.64 95.2751 143.582 95.348 143.484C95.4314 143.39 95.5199 143.332 95.6189 143.317L96.2439 143.275L98.2439 142.588C98.5772 142.478 98.9001 142.369 99.223 142.254C99.5564 142.145 99.7647 142.082 99.848 142.067L100.431 141.754C100.442 141.853 100.577 141.838 100.827 141.713C100.994 141.619 101.858 141.312 103.431 140.796C104.999 140.286 106.744 139.77 108.661 139.254L111.515 138.504C114.416 137.645 116.895 137.041 118.952 136.692C121.004 136.348 122.254 136.317 122.702 136.609C123.671 136.957 124.233 137.504 124.39 138.254C124.541 138.994 124.327 139.473 123.744 139.692C123.588 139.806 123.457 139.744 123.348 139.504C123.233 139.254 123.171 139.046 123.161 138.879C123.129 138.536 122.978 138.249 122.702 138.025C122.504 137.791 122.233 137.666 121.89 137.65C121.556 137.64 120.515 137.796 118.765 138.129C117.666 138.296 116.629 138.452 115.661 138.588C114.702 138.713 114.062 138.874 113.744 139.067L110.994 139.838C110.494 139.963 109.661 140.202 108.494 140.546C107.338 140.895 106.291 141.223 105.348 141.525C104.4 141.817 103.848 142.015 103.681 142.109C103.608 142.207 103.202 142.374 102.452 142.609L99.9522 143.463L94.223 145.129C92.9157 145.494 92.0772 145.734 91.7022 145.859C91.3272 145.973 90.9782 146.213 90.6605 146.588L87.7647 149.65L84.5772 152.734C84.2699 153.098 83.6866 153.702 82.8272 154.546C81.9626 155.379 81.4522 155.89 81.2855 156.067L79.8897 157.609L78.2647 159.171L77.5564 159.838L72.2647 164.921L71.1814 165.754L69.8897 167.025C69.7335 167.124 69.4001 167.411 68.8897 167.879C68.3741 168.353 67.796 168.832 67.1605 169.317L65.0355 171.296L64.1814 171.879L63.3689 172.588L62.1814 173.713L57.5147 177.192L56.2022 178.192C55.796 178.39 55.6032 178.567 55.6189 178.734L55.5147 178.879C55.3324 178.895 54.9314 179.187 54.3064 179.754C53.7491 180.145 52.8897 180.754 51.723 181.588C50.5564 182.411 49.3741 183.207 48.1814 183.984L47.4522 184.567C47.4522 184.567 47.0043 184.838 46.1189 185.379C45.2282 185.921 44.296 186.478 43.3272 187.046C42.3532 187.603 41.7074 187.978 41.3897 188.171C39.848 189.004 39.0355 189.421 38.9522 189.421L38.223 189.734C36.9157 190.442 35.2282 191.14 33.1605 191.838C31.1032 192.53 29.2022 193.036 27.4522 193.359ZM24.4314 192.713C25.7491 193.114 27.8741 192.864 30.8064 191.963C33.7491 191.056 36.848 189.754 40.098 188.046C41.1657 187.52 41.8793 187.161 42.2439 186.963C42.6032 186.754 42.8689 186.603 43.0355 186.504L43.8689 185.9C44.1032 185.723 44.5824 185.411 45.3064 184.963C46.0407 184.504 46.7491 184.062 47.4314 183.629C48.1241 183.187 48.473 182.963 48.473 182.963L50.1397 181.775C51.1085 181.192 51.7126 180.754 51.9522 180.463L55.6397 177.609C58.4157 175.484 60.2439 173.999 61.1189 173.15L62.5564 172.025C63.4418 171.525 64.0199 171.161 64.2855 170.921C64.5616 170.687 65.2126 170.046 66.2439 169.004L67.7855 167.588L73.1189 162.796C73.2699 162.619 73.3897 162.525 73.473 162.525C73.5564 162.515 73.6605 162.416 73.7855 162.234C73.9366 162.041 74.0876 161.853 74.2439 161.671C74.4105 161.494 74.5772 161.353 74.7439 161.254C75.0616 161.062 75.4157 160.754 75.8064 160.338C76.1918 159.911 76.3064 159.702 76.1397 159.713C76.1397 159.713 76.3324 159.494 76.723 159.046L77.7855 158.067L79.1814 156.65C79.8897 155.999 80.2439 155.629 80.2439 155.546C80.2439 155.546 80.3168 155.478 80.473 155.338C80.6241 155.187 80.7751 155.015 80.9314 154.817C81.4157 154.442 81.8116 154.082 82.1189 153.734C82.5043 153.265 82.9418 152.879 83.4314 152.588C84.0407 152.02 84.5043 151.556 84.8272 151.192C85.0355 150.65 85.3064 150.369 85.6397 150.338C85.723 150.327 85.7751 150.296 85.8064 150.254C85.848 150.213 85.8689 150.192 85.8689 150.192C85.8532 150.025 86.0616 149.692 86.4939 149.192C86.9366 148.681 87.1918 148.374 87.2647 148.275L87.8272 147.609C88.1449 147.249 88.2126 147.077 88.0355 147.088L87.8064 147.234L86.7855 147.442L85.1814 147.963C85.0147 148.062 84.723 148.192 84.3064 148.359C83.9001 148.515 83.4991 148.65 83.098 148.775C82.7647 148.89 82.3272 149.015 81.7855 149.15C81.2439 149.275 80.7647 149.442 80.348 149.65C80.0251 149.765 79.6605 149.9 79.2439 150.067C78.8272 150.234 78.4939 150.374 78.2439 150.484C77.671 150.624 77.0564 150.827 76.3897 151.088C75.7335 151.353 75.2074 151.598 74.8064 151.817C74.473 152.015 74.223 152.119 74.0564 152.129C73.8064 152.161 73.0199 152.421 71.7022 152.921C70.3949 153.421 69.5407 153.817 69.1397 154.109C68.6397 154.317 67.8168 154.707 66.6814 155.275C65.5564 155.832 64.1657 156.437 62.5147 157.088C61.1085 157.645 59.7647 158.317 58.473 159.109C57.348 159.817 56.5407 160.275 56.0564 160.484L54.348 161.4L51.9522 163.004C51.5355 163.213 51.1189 163.442 50.7022 163.692C50.296 163.931 50.0199 164.145 49.8689 164.338C49.3272 164.728 48.8064 165.025 48.3064 165.234C48.0564 165.348 47.8272 165.457 47.6189 165.567C47.4105 165.666 47.1918 165.812 46.973 166.004C46.5564 166.213 46.1293 166.504 45.7022 166.879C45.2699 167.254 44.8116 167.556 44.3272 167.775L43.348 168.463C43.1918 168.577 42.9939 168.707 42.7439 168.859C42.5043 168.999 42.3116 169.161 42.1605 169.338C42.0772 169.437 41.9522 169.515 41.7855 169.567C41.6293 169.624 41.4782 169.744 41.3272 169.921L40.473 170.65C40.1657 170.848 40.0147 170.942 40.0147 170.942L39.6605 171.338L39.1605 171.671L37.9522 172.525C37.0043 173.207 36.0772 173.952 35.1605 174.754C34.2543 175.562 33.3272 176.338 32.3689 177.088L31.8064 177.671L30.848 178.65L29.6605 179.629C29.3532 179.937 28.8689 180.457 28.2022 181.192C27.5355 181.916 27.0147 182.463 26.6397 182.838L25.9522 183.671C25.6293 183.869 25.0564 184.556 24.223 185.734C23.3897 186.9 22.8949 187.707 22.7439 188.15C22.1866 189.234 22.0199 190.15 22.2439 190.9C22.4782 191.801 23.2074 192.405 24.4314 192.713Z" fill="#231F20"/>
<path d="M119.701 145.922C119.398 146.297 119.029 146.463 118.596 146.422C118.169 146.369 117.971 146.083 118.013 145.567C118.086 145.39 118.346 144.953 118.805 144.255L119.826 142.755C120.242 142.036 120.982 141.078 122.034 139.88C123.091 138.672 123.898 137.875 124.451 137.484C124.857 137.192 125.221 137.083 125.555 137.151C126.331 137.333 126.143 138.062 124.992 139.338C124.523 139.812 124.216 140.161 124.076 140.38C123.925 140.604 123.925 140.666 124.076 140.567L125.18 139.963C125.487 139.77 126.107 139.401 127.034 138.859C127.977 138.307 128.492 137.979 128.576 137.88C129.294 137.479 129.732 137.619 129.888 138.297C129.997 138.604 130.18 138.75 130.43 138.734C130.846 138.692 131.518 138.401 132.451 137.859C133.378 137.317 134.128 136.854 134.701 136.463C135.086 136.161 135.367 136 135.534 135.984C135.534 135.984 135.852 135.791 136.492 135.401C137.284 134.651 137.831 134.52 138.138 135.005C138.414 135.328 138.242 135.854 137.617 136.588C137.31 136.869 136.982 137.02 136.638 137.047C136.221 137.088 135.852 137.208 135.534 137.401L134.201 138.172L132.263 139.338C130.638 140.078 129.471 140.307 128.763 140.026C128.388 139.807 127.956 139.807 127.471 140.026L126.138 140.922C124.846 141.619 123.966 142.14 123.492 142.484C123.008 142.833 122.648 143.14 122.409 143.401L121.096 144.547C120.862 144.744 120.612 144.979 120.346 145.255C120.07 145.52 119.857 145.744 119.701 145.922Z" fill="#231F20"/>
<path d="M145.594 143.141C145.193 143.183 144.839 143.011 144.532 142.62C144.173 142.235 144.048 141.777 144.157 141.245C144.115 140.735 144.214 140.297 144.449 139.933L144.74 138.995C144.74 138.912 144.443 139.094 143.844 139.537C143.235 139.969 142.693 140.428 142.219 140.912C141.735 141.287 141.032 141.777 140.115 142.37C139.199 142.954 138.568 143.261 138.219 143.287C137.459 143.36 137.053 143.141 137.011 142.641C136.985 142.381 137.251 141.969 137.803 141.412C138.511 140.678 139.386 139.922 140.428 139.141C141.459 138.365 142.417 137.693 143.303 137.12C144.344 136.428 145.011 136.027 145.303 135.912C145.584 135.803 145.777 135.865 145.886 136.099C145.897 136.266 146.115 136.339 146.532 136.308C147.292 136.24 147.532 136.495 147.24 137.079C146.959 137.652 146.704 138.115 146.469 138.474C146.162 138.839 145.891 139.349 145.657 140.016C145.423 140.683 145.449 141.303 145.74 141.87C145.855 142.12 146.178 142.162 146.719 141.995C147.261 141.818 147.532 141.724 147.532 141.724C148.365 141.464 149.667 140.87 151.449 139.954C153.24 139.037 155.475 137.86 158.157 136.412L158.407 136.266L158.782 136.224L158.907 136.349C159.084 136.422 159.183 136.527 159.199 136.662C159.209 136.787 159.136 136.902 158.969 136.995L152.032 140.912C150.917 141.62 149.886 142.141 148.928 142.474C147.98 142.808 147.511 142.974 147.511 142.974L147.115 143.016C146.626 143.141 146.12 143.183 145.594 143.141ZM138.386 142.12L139.115 141.808C139.605 141.516 140.251 141.079 141.053 140.495C141.844 139.912 142.277 139.579 142.344 139.495C142.652 139.11 143.214 138.672 144.032 138.183C144.522 137.964 144.756 137.766 144.74 137.599C144.73 137.448 144.647 137.402 144.49 137.454C144.324 137.495 143.923 137.761 143.282 138.245C142.464 138.662 141.657 139.204 140.865 139.87C140.074 140.527 139.485 141.089 139.094 141.558L138.386 142.12Z" fill="#231F20"/>
<path d="M162.319 146.152C162.163 146.251 161.965 146.251 161.715 146.152C161.454 146.043 161.256 145.829 161.131 145.506C161.105 145.329 161.392 144.746 161.986 143.756C162.579 142.756 163.329 141.605 164.236 140.298C165.137 138.98 165.986 137.756 166.777 136.631C167.579 135.506 168.173 134.709 168.548 134.235C168.85 133.959 169.1 133.683 169.298 133.402C169.491 133.126 169.59 132.985 169.59 132.985C169.506 133.001 169.282 133.131 168.923 133.381C168.558 133.631 168.095 133.954 167.527 134.34L163.465 137.36L162.381 138.09L161.194 138.84C160.876 139.048 160.621 139.251 160.423 139.444C160.215 139.626 160.069 139.715 159.986 139.715L159.506 140.006C159.022 140.413 158.376 140.855 157.569 141.34C156.751 141.829 156.022 142.189 155.381 142.423C154.715 142.73 154.288 142.725 154.09 142.402C153.897 142.084 153.98 141.61 154.34 140.985C154.788 140.183 155.569 139.183 156.694 137.985C157.819 136.777 158.793 135.923 159.611 135.423C161.85 133.855 163.433 133.584 164.381 134.61L164.798 134.965L165.652 134.36L167.527 132.923C167.861 132.73 168.282 132.439 168.798 132.048C169.324 131.663 169.871 131.314 170.444 131.006C172.527 129.73 174.074 128.485 175.09 127.277L179.59 121.777L180.756 120.402C181.673 119.392 182.319 118.652 182.694 118.194C183.079 117.735 183.621 117.048 184.319 116.131C185.163 115.048 186.027 114.001 186.902 112.985C187.788 111.975 188.517 111.267 189.09 110.86L191.09 109.027C191.392 108.668 191.762 108.298 192.194 107.923C192.621 107.538 192.954 107.251 193.194 107.069C194.486 106.194 195.204 106.09 195.361 106.756C195.47 107.079 195.152 107.871 194.402 109.131C193.512 110.579 192.142 112.397 190.298 114.59C189.767 115.314 188.85 116.308 187.548 117.569C186.256 118.834 185.262 119.751 184.569 120.319L182.777 122.027C182.47 122.392 181.923 122.902 181.131 123.569C180.35 124.225 179.756 124.704 179.34 125.006L177.569 126.569L175.923 128.11L173.819 130.465C172.803 131.413 171.512 132.933 169.944 135.027C168.387 137.11 166.866 139.319 165.381 141.652L162.319 146.152ZM180.59 123.11L182.59 121.277L184.486 119.444C184.871 119.058 185.381 118.564 186.006 117.965C186.631 117.371 187.215 116.788 187.756 116.215C189.157 114.647 190.142 113.517 190.715 112.819C191.282 112.126 191.829 111.381 192.361 110.59C193.178 109.329 193.444 108.751 193.152 108.86C192.871 108.959 191.949 109.725 190.381 111.152L188.84 112.673L187.923 113.777C186.84 114.902 185.954 116.006 185.277 117.09L183.777 118.86C182.611 120.084 181.699 121.126 181.048 121.985C180.407 122.85 180.256 123.225 180.59 123.11ZM156.444 140.402C156.527 140.402 156.756 140.288 157.131 140.048C157.496 139.798 157.876 139.522 158.277 139.215C159.402 138.538 160.048 138.189 160.215 138.173C160.298 138.079 160.444 137.954 160.652 137.798C160.85 137.647 161.1 137.475 161.402 137.277C161.902 136.985 162.282 136.663 162.548 136.298C162.808 135.939 162.85 135.725 162.673 135.652C162.241 135.527 161.746 135.579 161.173 135.798L159.944 136.506C159.376 136.829 159.017 137.079 158.861 137.256L157.923 138.235C157.381 138.793 156.96 139.298 156.652 139.756C156.35 140.204 156.277 140.418 156.444 140.402Z" fill="#231F20"/>
<path d="M176.509 140.672L176.093 140.088C175.968 139.755 175.921 139.422 175.947 139.088C175.962 138.745 175.999 138.437 176.051 138.172C176.165 137.562 176.697 136.687 177.655 135.547C178.613 134.411 179.29 133.562 179.676 133.005C180.067 132.646 180.358 132.536 180.551 132.672C180.983 132.812 180.895 133.333 180.28 134.234C179.77 134.958 179.093 135.911 178.259 137.088C177.415 138.271 177.04 138.984 177.134 139.234C177.343 139.557 177.817 139.474 178.551 138.984C179.275 138.484 180.046 137.817 180.863 136.984C181.671 136.14 182.332 135.354 182.863 134.63L183.093 134.213L183.78 133.422L184.009 133.005C184.395 132.547 184.759 132.349 185.093 132.401C185.634 132.526 185.66 132.974 185.176 133.734C184.686 134.5 184.176 135.25 183.634 135.984C182.728 137.333 182.468 138.25 182.843 138.734C182.952 139.057 183.218 139.14 183.634 138.984C184.051 138.817 184.259 138.734 184.259 138.734C185.176 138.484 186.53 137.901 188.322 136.984C190.113 136.057 192.343 134.87 195.009 133.422L195.259 133.276L195.509 133.255L195.78 133.359C195.957 133.442 196.035 133.547 196.009 133.672C195.978 133.797 195.874 133.911 195.697 134.005L194.238 134.922L188.905 137.942C187.749 138.557 186.702 139.047 185.759 139.422C184.827 139.797 184.363 139.984 184.363 139.984L183.988 140.026C182.915 140.375 182.238 140.312 181.947 139.838C181.645 139.354 181.504 138.807 181.53 138.192L181.488 137.692L181.384 137.838L180.551 138.692C180.249 138.974 179.754 139.354 179.072 139.838C178.379 140.312 177.775 140.567 177.259 140.609L176.509 140.672Z" fill="#231F20"/>
<path d="M198.762 138.46C198.361 138.502 198.007 138.33 197.7 137.939C197.341 137.554 197.216 137.096 197.325 136.564C197.283 136.054 197.382 135.616 197.617 135.252L197.908 134.314C197.908 134.231 197.611 134.413 197.012 134.856C196.403 135.288 195.861 135.747 195.387 136.231C194.903 136.606 194.2 137.096 193.283 137.689C192.367 138.273 191.736 138.58 191.387 138.606C190.627 138.679 190.221 138.46 190.179 137.96C190.153 137.7 190.419 137.288 190.971 136.731C191.679 135.997 192.554 135.241 193.596 134.46C194.627 133.684 195.585 133.012 196.471 132.439C197.512 131.747 198.179 131.346 198.471 131.231C198.752 131.122 198.945 131.184 199.054 131.419C199.064 131.585 199.283 131.658 199.7 131.627C200.46 131.559 200.7 131.814 200.408 132.398C200.127 132.971 199.872 133.434 199.637 133.794C199.33 134.158 199.059 134.669 198.825 135.335C198.591 136.002 198.617 136.622 198.908 137.189C199.023 137.439 199.346 137.481 199.887 137.314C200.429 137.137 200.7 137.044 200.7 137.044C201.533 136.783 202.835 136.189 204.617 135.273C206.408 134.356 208.643 133.179 211.325 131.731L211.575 131.585L211.95 131.544L212.075 131.669C212.252 131.741 212.351 131.846 212.367 131.981C212.377 132.106 212.304 132.221 212.137 132.314L205.2 136.231C204.085 136.939 203.054 137.46 202.096 137.794C201.148 138.127 200.679 138.294 200.679 138.294L200.283 138.335C199.794 138.46 199.288 138.502 198.762 138.46ZM191.554 137.439L192.283 137.127C192.773 136.835 193.419 136.398 194.221 135.814C195.012 135.231 195.445 134.898 195.512 134.814C195.82 134.429 196.382 133.991 197.2 133.502C197.689 133.283 197.924 133.085 197.908 132.919C197.898 132.767 197.814 132.721 197.658 132.773C197.492 132.814 197.091 133.08 196.45 133.564C195.632 133.981 194.825 134.523 194.033 135.189C193.242 135.846 192.653 136.408 192.262 136.877L191.554 137.439Z" fill="#231F20"/>
<path d="M267.029 106.825C267.831 107.174 267.674 107.695 266.549 108.388L265.341 109.013C265.268 109.096 265.091 109.029 264.799 108.805C264.601 108.57 264.581 108.357 264.737 108.159C264.888 107.898 264.914 107.753 264.82 107.721C264.737 107.68 264.351 107.69 263.674 107.742C263.341 107.69 262.914 107.669 262.404 107.68C261.888 107.68 261.424 107.654 261.008 107.596C260.409 107.57 258.976 107.591 256.716 107.659C254.466 107.732 251.883 107.846 248.966 108.013C246.049 108.18 243.195 108.346 240.404 108.513C237.612 108.68 235.289 108.841 233.445 108.992L232.924 109.055C232.758 109.07 232.476 109.075 232.091 109.075C231.716 109.065 231.279 109.117 230.779 109.242L230.174 109.659C230.101 109.841 229.966 110.029 229.758 110.221C229.56 110.419 229.393 110.648 229.258 110.909L228.216 112.159C227.935 112.7 227.56 113.221 227.091 113.721C226.633 114.221 226.091 114.883 225.466 115.7L223.529 118.159C223.081 118.898 222.664 119.487 222.279 119.93C222.122 120.112 221.872 120.43 221.529 120.888C221.18 121.346 220.82 121.805 220.445 122.263C219.456 123.638 218.7 124.711 218.174 125.471C217.643 126.237 217.112 126.982 216.57 127.7L215.195 129.492L214.195 130.992L211.091 135.096L207.362 140.263L205.529 142.867C204.32 144.482 202.966 146.419 201.466 148.68C199.966 150.945 198.565 153.138 197.258 155.263C195.94 157.378 194.919 159.049 194.195 160.284C193.836 161.008 193.482 161.836 193.133 162.763C192.789 163.68 192.591 164.32 192.549 164.68C192.581 165.096 192.758 165.284 193.091 165.242C193.44 165.299 193.539 165.461 193.383 165.721C193.315 165.904 193.029 166.013 192.529 166.055C192.185 166.003 191.898 165.69 191.674 165.117C191.549 164.617 191.648 163.799 191.966 162.659C192.107 162.232 192.226 161.841 192.32 161.492C192.419 161.133 192.476 160.992 192.487 161.075C192.57 161.075 192.601 160.95 192.57 160.7C192.57 160.7 192.591 160.68 192.633 160.638C192.664 160.586 192.674 160.508 192.674 160.409C192.841 160.492 192.956 160.367 193.008 160.034C193.081 159.857 193.107 159.638 193.091 159.388L193.049 159.117C193.247 159.2 193.924 158.253 195.091 156.263L199.674 148.846L202.508 144.638C203.122 143.737 203.669 142.924 204.154 142.2C204.627 141.482 204.904 141.075 204.987 140.992C205.143 140.898 205.357 140.669 205.633 140.305C205.898 139.93 206.174 139.523 206.466 139.075C207.383 137.633 208.039 136.659 208.424 136.159C208.799 135.659 209.029 135.404 209.112 135.388C209.195 135.388 209.336 135.159 209.529 134.7L210.445 133.346L211.362 132.138C212.57 130.419 213.44 129.195 213.966 128.471C214.497 127.737 214.914 127.18 215.216 126.805C215.841 126.086 216.143 125.68 216.133 125.596C216.143 125.68 216.456 125.294 217.07 124.43C217.68 123.57 217.987 123.138 217.987 123.138C218.346 122.503 219.018 121.503 220.008 120.138C220.992 118.779 222.034 117.367 223.133 115.909C224.242 114.45 225.06 113.404 225.591 112.763L226.966 110.971L227.32 110.45L227.674 110.138C227.742 109.971 227.81 109.846 227.883 109.763C227.966 109.669 228.039 109.57 228.112 109.471C226.763 109.596 225.2 109.737 223.424 109.888C221.659 110.044 220.487 110.19 219.904 110.325L215.758 110.93L212.341 111.367L209.174 111.909C207.69 112.133 206.294 112.362 204.987 112.596C203.685 112.836 202.945 113.008 202.779 113.117C201.961 113.357 201.049 113.565 200.049 113.742C199.039 113.909 198.487 113.95 198.404 113.867C197.935 113.492 198.279 113.075 199.445 112.617C199.768 112.508 200.539 112.341 201.758 112.117C202.966 111.883 204.237 111.648 205.57 111.409C206.904 111.159 207.914 111.003 208.591 110.93L211.362 110.45L229.154 108.471L229.633 107.95L230.57 106.721L230.904 106.305C231.055 106.112 231.424 105.716 232.008 105.117C232.601 104.508 233.164 103.888 233.695 103.263C234.221 102.628 234.529 102.258 234.612 102.159C234.68 101.966 235.268 101.357 236.383 100.325L237.424 99.2213C237.508 99.0442 237.799 98.7161 238.299 98.2421C238.799 97.7734 239.091 97.5286 239.174 97.513C239.424 97.5026 239.601 97.6171 239.716 97.8671C239.924 98.1901 239.909 98.4869 239.674 98.763L239.216 99.4505L238.07 100.575C237.664 100.95 237.133 101.508 236.466 102.242C235.81 102.982 235.367 103.523 235.133 103.867C234.685 104.523 234.237 105.075 233.779 105.534C233.471 105.909 233.081 106.378 232.612 106.93C232.154 107.471 231.846 107.867 231.695 108.117L234.091 107.909L237.654 107.721C238.247 107.68 239.726 107.596 242.091 107.471C244.466 107.346 247.091 107.221 249.966 107.096C252.851 106.971 255.476 106.846 257.841 106.721C260.216 106.596 261.747 106.549 262.445 106.575C263.872 106.534 264.909 106.529 265.549 106.555C266.185 106.586 266.68 106.674 267.029 106.825Z" fill="#231F20"/>
<path d="M221.684 136.441C220.7 136.623 220.075 136.706 219.809 136.691C219.549 136.665 219.351 136.451 219.226 136.045C219.033 135.644 219.143 134.993 219.559 134.086C220.143 133.003 221.028 131.909 222.205 130.795C223.388 129.67 224.591 128.847 225.809 128.316C227.778 127.373 228.924 127.227 229.247 127.878C229.356 128.211 228.487 129.128 226.643 130.628C225.632 131.493 224.783 132.144 224.101 132.586C223.408 133.034 222.726 133.373 222.059 133.607C221.325 133.847 220.888 134.185 220.747 134.628C220.445 135.003 220.424 135.222 220.684 135.274C221.466 135.456 225.304 133.665 232.205 129.899L232.455 129.753L232.83 129.711L232.955 129.836C233.315 129.961 233.377 130.17 233.143 130.461L231.559 131.357L226.101 134.399C225.059 135.097 224.237 135.555 223.622 135.774C222.997 135.982 222.351 136.206 221.684 136.441ZM222.33 132.17C222.263 132.269 222.414 132.243 222.789 132.086C223.153 131.92 223.653 131.644 224.289 131.253C224.862 130.852 225.476 130.394 226.143 129.878C226.82 129.352 227.205 129.04 227.289 128.941C227.257 128.774 227.023 128.816 226.58 129.066C226.132 129.316 225.705 129.555 225.289 129.774C224.903 129.888 224.33 130.274 223.58 130.941C222.82 131.597 222.403 132.003 222.33 132.17Z" fill="#231F20"/>
</svg>
