<svg width="457" height="473" viewBox="0 0 457 473" fill="none" xmlns="http://www.w3.org/2000/svg">
<path d="M51.7744 44.3779C51.1592 45.6084 50.3901 46.1742 49.4673 46.0698C48.5444 45.971 48.4895 45.0975 49.3135 43.4551C55.6855 31.9579 65.4908 22.2515 78.7349 14.3413C91.9734 6.43117 108.453 2.47609 128.173 2.47609C142.95 2.47609 156.298 4.89308 168.208 9.72707C180.128 14.5501 189.631 21.3726 196.706 30.2056C203.792 39.0386 207.341 49.6184 207.341 61.9341C207.341 78.1664 201.897 92.8496 191.015 105.989C180.128 119.129 165.444 130.835 146.96 141.102L81.6572 181.465L173.767 172.215C182.391 170.984 189.016 169.243 193.63 166.985C198.255 164.717 201.853 161.119 204.418 156.197C206.978 151.275 209.39 144.194 211.647 134.949C212.054 133.719 212.669 133.104 213.493 133.104C214.312 133.104 214.619 133.823 214.416 135.257C212.158 151.066 210.571 165.332 209.648 178.06C208.725 190.793 208.571 203.526 209.187 216.27C209.187 219.961 209.033 222.626 208.725 224.268C208.417 225.905 207.544 226.729 206.11 226.729C203.237 226.729 200.463 226.268 197.783 225.345C195.113 224.422 191.416 223.548 186.687 222.73C181.968 221.906 174.986 221.5 165.747 221.5H42.5459C38.2228 221.5 36.064 220.269 36.064 217.808C36.064 216.99 36.3716 216.067 36.9868 215.04C37.6021 214.018 38.838 212.776 40.7002 211.326L71.8135 183.926C99.7297 161.954 120.109 141.008 132.941 121.084C145.784 101.166 152.211 83.1926 152.211 67.1636C152.211 51.7717 147.949 39.1924 139.423 29.4365C130.898 19.6807 118.731 14.8027 102.927 14.8027C92.248 14.8027 82.5416 17.0165 73.813 21.4385C65.0789 25.8495 57.7345 33.496 51.7744 44.3779Z" fill="white"/>
<path d="M324.694 226.729C305.402 226.729 288.615 221.747 274.333 211.788C260.062 201.829 249.026 188.123 241.22 170.677C233.425 153.219 229.531 133.296 229.531 110.911C229.531 88.9385 233.683 69.6904 241.989 53.167C250.306 36.6326 261.907 23.7401 276.794 14.4951C291.691 5.25563 309.099 0.630386 329.023 0.630386C348.326 0.630386 365.113 5.61269 379.384 15.5718C393.65 25.5364 404.686 39.1924 412.497 56.5508C420.303 73.8982 424.208 93.767 424.208 116.163C424.208 138.959 420.045 158.625 411.728 175.159C403.406 191.683 391.799 204.416 376.901 213.348C362.015 222.269 344.612 226.729 324.694 226.729ZM346.579 219.654C358.076 219.654 366.338 215.292 371.364 206.558C376.401 197.829 378.923 184.432 378.923 166.37C378.923 157.131 377.989 146.809 376.132 135.411C374.286 124.018 371.672 112.361 368.288 100.452C364.904 88.532 360.949 77.0733 356.423 66.0869C351.907 55.1006 347.029 45.2019 341.789 36.3799C336.559 27.5469 331.066 20.5156 325.309 15.2861C319.564 10.0457 313.818 7.41994 308.061 7.41994C296.355 7.41994 287.83 11.9408 282.485 20.9771C277.151 30.0023 274.487 43.2464 274.487 60.7036C274.487 71.9976 275.816 84.6319 278.486 98.6065C281.166 112.57 284.913 126.633 289.736 140.794C294.57 154.961 300.008 168.007 306.061 179.927C312.126 191.836 318.641 201.438 325.617 208.733C332.604 216.017 339.592 219.654 346.579 219.654Z" fill="white"/>
<path d="M71.3503 290.302C70.7351 291.533 69.9661 292.099 69.0432 291.994C68.1204 291.895 68.0654 291.022 68.8894 289.38C75.2615 277.882 85.0668 268.176 98.3108 260.266C111.549 252.356 128.029 248.401 147.749 248.401C162.526 248.401 175.874 250.818 187.783 255.651C199.704 260.474 209.207 267.297 216.282 276.13C223.368 284.963 226.917 295.543 226.917 307.859C226.917 324.091 221.473 338.774 210.591 351.914C199.704 365.053 185.02 376.759 166.536 387.026L101.233 427.39L193.343 418.139C201.967 416.909 208.592 415.167 213.206 412.91C217.831 410.641 221.429 407.043 223.994 402.121C226.554 397.199 228.966 390.119 231.223 380.874C231.63 379.643 232.245 379.028 233.069 379.028C233.888 379.028 234.195 379.748 233.992 381.181C231.734 396.991 230.147 411.256 229.224 423.984C228.301 436.717 228.147 449.45 228.762 462.194C228.762 465.886 228.609 468.55 228.301 470.193C227.993 471.829 227.12 472.653 225.686 472.653C222.813 472.653 220.039 472.192 217.359 471.269C214.689 470.346 210.992 469.473 206.262 468.654C201.544 467.83 194.562 467.424 185.323 467.424H62.1218C57.7987 467.424 55.6399 466.193 55.6399 463.733C55.6399 462.914 55.9475 461.991 56.5627 460.964C57.178 459.942 58.4139 458.701 60.2761 457.251L91.3894 429.851C119.306 407.878 139.685 386.933 152.517 367.009C165.36 347.091 171.787 329.117 171.787 313.088C171.787 297.696 167.525 285.117 158.999 275.361C150.474 265.605 138.307 260.727 122.503 260.727C111.824 260.727 102.118 262.941 93.3889 267.363C84.6548 271.774 77.3104 279.42 71.3503 290.302Z" fill="white"/>
<path d="M247.239 470.808C245.184 470.808 244.162 470.346 244.162 469.423C244.162 468.501 245.184 468.039 247.239 468.039C253.199 468.039 260.444 467.424 268.97 466.193C277.495 464.963 286.317 462.656 295.447 459.272C304.587 455.877 313.162 450.944 321.177 444.484C329.186 438.014 335.657 429.587 340.578 419.216C345.511 408.845 347.983 396.068 347.983 380.874C347.983 366.081 343.973 354.583 335.964 346.377C327.95 338.159 318.397 334.05 307.312 334.05C301.363 334.05 295.513 335.181 289.756 337.434C284.01 339.691 278.363 343.289 272.815 348.222C270.76 350.068 268.816 350.991 266.97 350.991C264.493 350.991 263.57 349.035 264.201 345.124L282.065 257.651C283.087 255.399 284.372 253.861 285.91 253.037C287.449 252.218 289.855 251.806 293.139 251.806H367.385C373.741 251.806 378.558 251.499 381.843 250.883C385.139 250.268 387.71 249.554 389.555 248.73C391.401 247.895 393.357 247.274 395.422 246.862C396.653 246.456 397.576 246.61 398.191 247.324C398.806 248.043 398.597 249.538 397.576 251.806C395.521 261.463 393.516 269.22 391.555 275.075C389.605 280.92 387.193 285.331 384.326 288.303C381.453 291.28 377.498 293.28 372.461 294.301C367.435 295.329 360.914 295.839 352.905 295.839H284.219C279.895 295.839 277.121 298.004 275.891 302.321L266.97 345.124C266.761 345.959 267.019 346.585 267.739 346.992C268.453 347.404 269.222 347.096 270.046 346.069C273.326 342.773 277.374 339.433 282.197 336.049C287.031 332.666 293.085 329.848 300.368 327.59C307.663 325.321 316.65 324.184 327.329 324.184C341.919 324.184 355.113 326.656 366.924 331.589C378.728 336.511 388.116 343.542 395.093 352.683C402.08 361.823 405.574 372.963 405.574 386.103C405.574 413.426 392.423 434.372 366.133 448.945C339.853 463.524 300.22 470.808 247.239 470.808Z" fill="white"/>
<path d="M11.694 358.868C6.55241 359.79 2.99284 358.763 1.0153 355.791C0.279214 354.748 0.103433 353.226 0.487955 351.221C0.866983 349.216 1.61405 347.458 2.72917 345.948C3.16862 345.596 3.37187 345.267 3.3444 344.959C3.32792 344.8 4.22331 343.728 6.02506 341.751C7.82682 339.773 9.72746 337.68 11.738 335.467C13.743 333.242 15.1932 331.775 16.0885 331.072L19.1208 328.194C20.7303 326.645 23.1912 324.541 26.5036 321.888C29.8105 319.223 32.9526 316.894 35.9298 314.9L37.9294 313.318C40.5496 310.89 42.4832 309.226 43.7301 308.33C44.9881 307.424 46.3724 306.584 47.883 305.804C48.8058 305.408 49.6408 304.985 50.3879 304.529C51.1349 304.062 51.5799 303.738 51.7282 303.562L54.8703 301.651C55.6009 301.272 56.2655 300.898 56.8698 300.53C57.485 300.168 57.8641 299.893 58.0124 299.717L58.6715 299.19L64.758 295.828C70.1303 292.505 74.2611 290.329 77.1506 289.302C78.2327 289.055 79.1501 288.659 79.8971 288.116C80.2048 287.929 80.6222 287.731 81.1496 287.522C81.6879 287.319 82.1823 287.116 82.6217 286.907C83.995 286.468 85.2859 285.809 86.4889 284.93C87.6864 284.347 88.6972 283.864 89.5212 283.479C90.3561 283.084 91.6141 282.655 93.3005 282.183L95.3879 281.304L97.8927 280.14C99.0902 279.717 99.8373 279.338 100.134 278.997C100.117 278.838 100.266 278.744 100.573 278.711C100.584 278.876 101.057 278.794 101.98 278.47C102.903 278.151 103.968 277.778 105.188 277.349C108.264 276.294 110.022 275.674 110.461 275.481C110.912 275.295 111.214 275.108 111.362 274.932C111.637 274.597 113.081 274.075 115.691 273.372C116.773 272.966 117.811 272.597 118.811 272.273C119.805 271.938 120.448 271.68 120.744 271.504C121.052 271.329 121.502 271.131 122.107 270.911C122.722 270.691 123.189 270.57 123.513 270.538C124.886 270.115 125.721 269.851 126.018 269.747C126.325 269.631 126.787 269.461 127.402 269.241L128.742 268.428C128.902 268.417 129.489 267.934 130.5 266.978C131.522 266.028 132.324 265.209 132.895 264.517C133.027 264.198 133.274 263.902 133.642 263.638C134.005 263.363 134.263 263.133 134.411 262.957C135.01 262.594 135.444 262.095 135.708 261.463C135.971 260.804 136.609 260.029 137.619 259.134L140.212 256.321C140.503 255.97 140.794 255.673 141.091 255.42C141.382 255.157 141.602 255.019 141.75 255.003L143.508 253.443C144.502 252.245 145.156 251.63 145.464 251.597L146.123 250.828C146.353 250.026 146.705 249.521 147.177 249.312C147.452 248.993 148.672 247.708 150.825 245.467C152.989 243.226 154.873 241.242 156.472 239.512L159.724 236.172L160.361 235.403C160.213 235.568 160.059 235.656 159.9 235.667L159.24 236.216C159.207 235.898 158.208 236.128 156.23 236.919L153.022 238.172L150.495 238.853L120.59 250.96C116.795 252.718 112.955 253.921 109.077 254.563C105.21 255.212 102.386 255.305 100.617 254.849C99.4748 254.454 98.3542 253.838 97.2555 253.003C96.1569 252.168 95.4098 251.213 95.0143 250.125C93.1521 246.994 94.2068 242.017 98.1784 235.206C99.0133 233.876 99.6341 232.915 100.046 232.327C100.453 231.728 100.93 230.937 101.474 229.954C101.782 229.778 101.914 229.449 101.87 228.965C101.853 228.822 101.925 228.74 102.09 228.724C102.441 229.004 103.155 228.218 104.243 226.372C104.534 226.037 104.754 225.79 104.902 225.625C105.045 225.45 105.122 225.362 105.122 225.362C105.133 225.527 105.281 225.439 105.561 225.098C105.808 224.455 105.852 224.142 105.693 224.153C105.677 223.994 105.748 223.906 105.913 223.89C106.231 224.021 106.753 223.659 107.473 222.791L113.537 216.353C114.109 215.683 114.944 214.897 116.042 214.002C117.152 213.112 117.783 212.656 117.932 212.64C117.932 212.64 118.075 212.508 118.371 212.244C118.662 211.98 118.882 211.772 119.03 211.607C119.305 211.288 119.668 210.948 120.107 210.596C120.558 210.234 120.997 209.871 121.425 209.519L125.644 206.289L128.962 203.653C129.868 203.274 130.467 202.906 130.764 202.554C130.896 202.236 131.115 202.06 131.423 202.027C131.742 201.999 132.176 201.642 132.719 200.95L138.081 197.193L139.839 195.831C140.437 195.468 140.816 195.193 140.981 195.018L144.079 192.842C144.81 192.331 145.551 191.804 146.299 191.26C147.057 190.722 147.507 190.359 147.639 190.184L148.518 189.656L150.078 188.558C150.369 188.206 150.808 187.854 151.396 187.503C151.995 187.14 152.528 186.855 153 186.646C154.038 185.932 154.549 185.492 154.538 185.328C154.522 185.185 154.593 185.174 154.758 185.306C154.758 185.306 154.791 185.306 154.868 185.306C154.956 185.295 155.071 185.207 155.219 185.042C155.511 184.855 156.433 184.262 157.988 183.262C159.554 182.251 161.163 181.285 162.822 180.362C164.475 179.428 165.448 178.862 165.744 178.67L168.227 177.286C171.243 175.588 173.352 174.451 174.555 173.88L177.5 172.408C178.697 171.705 179.461 171.342 179.785 171.309C180.867 171.21 181.834 170.644 182.685 169.617L183.366 169.331L183.85 169.288C184.608 169.057 184.828 168.87 184.509 168.738C185.267 168.508 185.904 168.249 186.421 167.969C186.948 167.695 187.525 167.453 188.156 167.244C189.705 166.953 191.299 166.25 192.924 165.135L192.705 165.157L191.54 165.508L191.101 165.552L190.398 165.86C190.233 165.717 189.442 165.7 188.025 165.816C183.202 166.563 178.06 167.261 172.6 167.903C167.151 168.535 160.438 169.282 152.473 170.144L136.081 171.836L129.533 172.869C125.798 173.369 123.073 173.726 121.36 173.946C119.646 174.165 118.02 174.429 116.482 174.737L110.461 175.967C108.879 176.116 107.39 176.33 106.001 176.604C104.605 176.885 102.057 177.428 98.3542 178.23L92.7731 179.197C91.5262 179.461 90.0815 179.741 88.4445 180.032C86.8185 180.329 85.9396 180.56 85.8078 180.735C85.6595 180.911 83.0392 181.543 77.9416 182.625L75.173 183.328L65.7248 186.053L59.9679 187.986L52.8708 190.491C51.5085 190.931 50.4428 191.414 49.6847 191.941C49.097 192.485 48.4872 192.787 47.861 192.842C47.3886 192.886 46.8558 193.084 46.257 193.435L41.0714 196.248L39.9508 196.841C39.3466 197.034 38.4128 197.583 37.1383 198.489C35.8749 199.385 35.04 200.093 34.6335 200.621C34.194 201.137 33.8205 201.406 33.5129 201.434C33.3481 201.45 32.7273 202.093 31.6452 203.367C30.574 204.642 30.0522 205.433 30.0851 205.74C30.1291 206.213 30.4037 206.658 30.9201 207.081C31.4474 207.652 31.7111 207.981 31.7111 208.069C31.7221 208.146 31.4255 208.212 30.8102 208.267C29.7226 208.371 28.9041 208.014 28.3493 207.19C27.789 206.372 27.7835 205.389 28.3273 204.246C28.5745 203.428 29.3435 202.334 30.6344 200.972C31.9363 199.599 33.1064 198.544 34.1501 197.808C40.9726 193.106 49.0695 189.327 58.4298 186.47C60.5942 185.959 61.8191 185.536 62.0993 185.196L63.0002 184.888L73.1515 182.076C75.3158 181.565 77.2055 181.087 78.8205 180.647C80.4464 180.208 81.7978 179.856 82.8854 179.593L85.6759 179.109L90.9933 177.923L105.407 175.242L113.779 173.55C115.811 173.215 117.371 172.957 118.459 172.781C119.541 172.605 120.744 172.424 122.063 172.232C123.381 172.045 125.282 171.759 127.776 171.375C129.632 171.04 131.225 170.738 132.544 170.474C133.862 170.21 134.598 170.073 134.763 170.057C134.73 169.738 135.038 169.716 135.686 169.991C135.845 170.112 136.241 170.139 136.872 170.079L146.43 168.782L182.707 164.651C184.872 164.3 186.893 163.965 188.772 163.641C190.645 163.322 191.815 163.135 192.287 163.091L196.242 162.278C198.423 162.091 199.967 161.795 200.879 161.399C201.197 161.372 201.549 161.3 201.933 161.18C202.312 161.064 202.581 161.081 202.746 161.224L203.933 161.114C204.4 161.07 204.817 161.355 205.185 161.971C205.388 162.586 205.35 163.146 205.075 163.641C204.504 164.14 203.609 164.717 202.395 165.376C201.192 166.036 200.132 166.492 199.209 166.739C198.769 167.09 197.934 167.398 196.704 167.662C195.605 167.766 194.616 168.167 193.737 168.87C193.43 169.062 192.974 169.266 192.375 169.485C191.771 169.694 191.309 169.809 190.991 169.837C189.903 170.09 188.629 170.469 187.168 170.979C185.717 171.496 184.229 172.067 182.707 172.693C181.356 173.281 179.587 174.143 177.39 175.286C175.204 176.418 173.248 177.412 171.523 178.274C169.793 179.142 168.853 179.653 168.711 179.812C168.579 180.153 168.277 180.34 167.81 180.384C167.645 180.4 166.964 180.774 165.766 181.504C164.58 182.251 163.904 182.636 163.745 182.647C163.58 182.663 163.465 182.707 163.393 182.779C163.333 182.856 163.305 182.889 163.305 182.889C163.333 183.213 163.184 183.388 162.866 183.416C162.718 183.432 159.284 185.547 152.561 189.766C150.155 191.233 148.699 192.15 148.188 192.513C147.672 192.864 147.205 193.298 146.782 193.809C146.194 194.336 145.667 194.622 145.2 194.666C145.035 194.666 144.348 195.039 143.134 195.787L141.179 197.369L134.499 202.225C133.763 202.752 132.653 203.559 131.159 204.642C129.676 205.713 128.308 206.74 127.05 207.718C125.804 208.701 125.117 209.272 124.985 209.432L122.744 211.058C121.425 211.953 120.772 212.563 120.788 212.881C120.508 213.222 120.288 213.398 120.129 213.409C119.964 213.425 119.409 213.837 118.459 214.639C117.503 215.43 116.668 216.254 115.954 217.1L112.724 220.462C111.258 221.841 109.632 223.598 107.846 225.735C106.072 227.861 104.441 229.932 102.946 231.954C101.463 233.964 100.469 235.464 99.9582 236.458L99.1232 237.71L97.7389 240.918C96.8271 243.204 96.4316 245.049 96.5524 246.456C96.8161 249.433 98.2553 251.432 100.881 252.454C101.716 252.85 102.441 253.064 103.056 253.091C103.683 253.108 105.089 252.948 107.275 252.608C109.78 252.388 111.565 252.113 112.636 251.773C113.702 251.438 115.982 250.564 119.47 249.158L125.446 246.961C132.593 244.137 136.323 242.632 136.631 242.456C136.938 242.27 137.476 242.143 138.257 242.083C138.723 242.039 139.102 241.841 139.399 241.49C139.399 241.49 139.624 241.396 140.08 241.204C140.531 241.001 140.981 240.803 141.421 240.611L146.474 238.743C148.595 237.776 150.682 236.93 152.736 236.194C154.802 235.447 156.587 234.777 158.098 234.173C159.955 233.706 161.026 233.294 161.306 232.942C161.756 232.431 162.064 232.327 162.229 232.635C162.696 232.591 163.217 232.228 163.789 231.536C164.387 231.174 164.761 230.91 164.909 230.745C165.772 229.883 167.711 227.779 170.732 224.439C173.748 221.099 177.236 217.248 181.191 212.881C185.146 208.52 188.98 204.241 192.705 200.049C196.44 195.863 199.516 192.359 201.933 189.546C204.361 186.734 205.498 185.339 205.339 185.35C205.789 184.987 206.196 184.597 206.548 184.185C206.899 183.762 207.212 183.301 207.492 182.801C208.108 182.581 208.75 182.328 209.426 182.032C210.096 181.724 210.733 181.389 211.338 181.021C212.843 180.115 213.941 179.944 214.633 180.516C215.468 181.383 214.568 182.801 211.931 184.778L171.589 228.724L167.876 232.371C167.92 232.854 167.788 233.107 167.48 233.118L166.579 233.667C165.272 234.898 164.041 236.161 162.888 237.447C161.745 238.721 160.888 239.699 160.317 240.369L152.715 247.884L149.66 250.982L145.31 255.135C144.722 255.679 143.667 256.728 142.146 258.277C140.635 259.831 139.119 261.386 137.597 262.935C136.087 264.473 134.966 265.676 134.236 266.539C133.648 266.907 133.824 267.044 134.763 266.956L136.872 266.78C137.191 266.753 137.422 266.659 137.553 266.495C137.685 266.319 137.828 266.225 137.993 266.209L139.179 266.099L142.871 264.825C143.47 264.621 144.079 264.418 144.694 264.209C145.31 263.99 145.689 263.874 145.837 263.858L146.98 263.265C146.991 263.429 147.227 263.413 147.683 263.221C147.974 263.045 149.578 262.474 152.495 261.507C155.406 260.529 158.631 259.568 162.163 258.628L167.48 257.244C172.869 255.662 177.461 254.552 181.257 253.904C185.064 253.245 187.376 253.196 188.2 253.75C189.986 254.382 191.024 255.393 191.32 256.783C191.595 258.178 191.2 259.079 190.134 259.485C189.826 259.661 189.568 259.524 189.365 259.068C189.173 258.617 189.063 258.227 189.035 257.903C188.991 257.288 188.711 256.772 188.2 256.343C187.849 255.904 187.349 255.679 186.706 255.662C186.075 255.651 184.135 255.937 180.883 256.519C178.862 256.86 176.956 257.145 175.171 257.376C173.38 257.612 172.188 257.92 171.589 258.299L166.491 259.683C165.58 259.903 164.052 260.353 161.899 261.023C159.757 261.683 157.801 262.292 156.032 262.847C154.275 263.391 153.247 263.759 152.956 263.946C152.808 264.122 152.039 264.424 150.649 264.847L146.057 266.429L135.466 269.483C133.005 270.175 131.423 270.636 130.72 270.867C130.028 271.087 129.407 271.543 128.852 272.229L123.447 277.876L117.536 283.611C116.965 284.287 115.877 285.408 114.284 286.973C112.702 288.528 111.763 289.472 111.472 289.808L108.901 292.62L105.869 295.498L104.528 296.817L94.7287 306.155L92.7511 307.781L90.3341 310.11C90.0375 310.303 89.4168 310.83 88.4665 311.692C87.5271 312.56 86.456 313.445 85.2585 314.351L81.3473 317.998L79.7653 319.075L78.2492 320.393L76.0739 322.481L67.4167 328.919L64.9997 330.765C64.2196 331.149 63.8461 331.501 63.8791 331.819L63.6593 332.083C63.3627 332.116 62.6321 332.649 61.4621 333.687C60.4184 334.423 58.8254 335.549 56.672 337.071C54.5187 338.598 52.3269 340.092 50.1022 341.553L48.7619 342.63C48.7619 342.63 47.9324 343.13 46.279 344.124C44.6365 345.124 42.9172 346.14 41.1154 347.178C39.3246 348.205 38.1326 348.909 37.5339 349.288C34.6774 350.771 33.1668 351.518 33.0075 351.529L31.6452 352.144C29.2392 353.462 26.13 354.759 22.3068 356.033C18.4836 357.308 14.946 358.252 11.694 358.868ZM6.13493 357.703C8.56291 358.417 12.507 357.95 17.9562 356.297C23.4054 354.638 29.1403 352.21 35.1608 349.002C37.1219 348.052 38.4402 347.387 39.1159 347.002C39.786 346.623 40.2694 346.343 40.5661 346.167L42.1042 345.069C42.5711 344.717 43.4775 344.135 44.8288 343.311C46.1746 342.476 47.4765 341.652 48.7399 340.828C50.0143 340.01 50.6515 339.598 50.6515 339.598L53.7497 337.422C55.5514 336.34 56.661 335.544 57.0895 335.027L63.945 329.688C69.1141 325.777 72.4978 323.041 74.0964 321.47L76.7331 319.339C78.403 318.416 79.4851 317.735 79.985 317.295C80.4959 316.845 81.6879 315.664 83.5666 313.758L86.423 311.165L96.2668 302.266C96.5414 301.931 96.7611 301.755 96.9259 301.739C97.0852 301.728 97.305 301.541 97.5851 301.189C97.8927 300.854 98.1839 300.519 98.464 300.179C98.7387 299.827 99.0353 299.558 99.3429 299.366C99.9417 299.031 100.595 298.476 101.299 297.696C102.013 296.905 102.221 296.526 101.914 296.553C101.914 296.553 102.271 296.136 102.99 295.301L104.968 293.455L107.561 290.862C108.879 289.632 109.527 288.945 109.516 288.797C109.516 288.797 109.659 288.676 109.956 288.423C110.247 288.16 110.538 287.852 110.835 287.5C111.697 286.797 112.417 286.105 112.988 285.413C113.702 284.578 114.515 283.886 115.427 283.326C116.58 282.26 117.448 281.392 118.02 280.733C118.415 279.755 118.926 279.233 119.558 279.173C119.701 279.162 119.81 279.118 119.887 279.041C119.959 278.953 119.997 278.909 119.997 278.909C119.964 278.591 120.338 277.959 121.118 277.019C121.892 276.086 122.359 275.536 122.524 275.372L123.579 274.097C124.15 273.41 124.282 273.081 123.974 273.108L123.513 273.394L121.645 273.811L118.679 274.756C118.382 274.932 117.849 275.174 117.075 275.481C116.311 275.789 115.548 276.053 114.79 276.272C114.174 276.492 113.361 276.728 112.351 276.976C111.351 277.212 110.483 277.525 109.736 277.92C109.121 278.129 108.429 278.382 107.671 278.689C106.907 278.997 106.297 279.25 105.847 279.436C104.776 279.689 103.628 280.068 102.397 280.579C101.178 281.079 100.189 281.518 99.4308 281.897C98.8431 282.265 98.3981 282.463 98.0905 282.491C97.6071 282.524 96.1459 282.996 93.7179 283.919C91.2845 284.842 89.686 285.578 88.9279 286.116C88.0325 286.528 86.5329 287.253 84.4235 288.291C82.3141 289.335 79.7268 290.467 76.6672 291.697C74.0744 292.708 71.5915 293.955 69.2184 295.433C67.109 296.707 65.5984 297.553 64.6921 297.959L61.528 299.651L57.0675 302.662C56.304 303.013 55.5514 303.425 54.8044 303.892C54.0683 304.364 53.5574 304.765 53.2663 305.101C52.2226 305.82 51.2503 306.375 50.3439 306.77C49.888 306.979 49.4705 307.177 49.0915 307.364C48.7234 307.556 48.3224 307.825 47.883 308.177C47.1194 308.561 46.3339 309.1 45.5319 309.803C44.7244 310.495 43.8675 311.044 42.9611 311.451L41.1813 312.769C40.8847 312.961 40.5057 313.197 40.0387 313.472C39.5828 313.752 39.2148 314.06 38.9401 314.395C38.8083 314.571 38.5885 314.719 38.2809 314.834C37.9733 314.939 37.6767 315.153 37.402 315.472L35.8639 316.79C35.2597 317.158 34.9631 317.339 34.9631 317.339L34.3039 318.086L33.425 318.658L31.2057 320.284C29.415 321.547 27.6791 322.92 25.9982 324.414C24.3283 325.898 22.6034 327.348 20.8346 328.765L19.758 329.776L18.0002 331.6L15.8249 333.445C15.2371 333.973 14.3362 334.928 13.1222 336.302C11.9028 337.664 10.9305 338.691 10.1999 339.378L8.90348 340.916C8.29924 341.268 7.23356 342.542 5.69547 344.739C4.15739 346.925 3.262 348.42 3.01481 349.222C1.94364 351.216 1.63053 352.891 2.06999 354.253C2.50944 355.967 3.86076 357.115 6.13493 357.703Z" fill="#231F20"/>
<path d="M182.615 270.999C182.044 271.691 181.363 271.988 180.572 271.9C179.781 271.812 179.424 271.301 179.495 270.362C179.627 270.027 180.099 269.192 180.902 267.857L182.813 265.089C183.637 263.759 185.01 261.985 186.944 259.771C188.878 257.563 190.361 256.091 191.382 255.355C192.13 254.816 192.827 254.597 193.47 254.696C194.92 255.047 194.568 256.42 192.415 258.804C191.536 259.683 190.959 260.337 190.679 260.76C190.405 261.172 190.427 261.282 190.745 261.09L192.745 259.969C193.349 259.59 194.508 258.892 196.238 257.882C197.963 256.86 198.897 256.267 199.029 256.102C200.391 255.355 201.204 255.591 201.468 256.805C201.671 257.437 202.001 257.728 202.457 257.684C203.248 257.612 204.5 257.069 206.214 256.058C207.939 255.036 209.323 254.168 210.367 253.465C211.114 252.91 211.641 252.619 211.949 252.586C211.949 252.586 212.548 252.229 213.751 251.51C215.201 250.103 216.212 249.851 216.783 250.74C217.294 251.345 216.981 252.323 215.838 253.685C215.25 254.212 214.641 254.509 214.014 254.564C213.251 254.624 212.57 254.827 211.971 255.179L209.466 256.607L205.884 258.826C202.852 260.189 200.682 260.617 199.381 260.101C198.721 259.694 197.93 259.678 197.007 260.057L194.547 261.705C192.162 263.012 190.52 263.979 189.625 264.605C188.718 265.237 188.054 265.814 187.625 266.341L185.23 268.428C184.791 268.78 184.318 269.219 183.802 269.747C183.291 270.263 182.896 270.681 182.615 270.999Z" fill="#231F20"/>
<path d="M230.627 265.845C229.836 265.921 229.172 265.592 228.628 264.856C227.941 264.125 227.716 263.274 227.947 262.307C227.875 261.373 228.035 260.566 228.43 259.89L228.979 258.198C228.968 258.039 228.408 258.363 227.309 259.165C226.2 259.972 225.211 260.807 224.343 261.67C223.453 262.373 222.146 263.274 220.432 264.372C218.718 265.471 217.548 266.053 216.916 266.108C215.527 266.229 214.785 265.817 214.697 264.878C214.653 264.411 215.148 263.664 216.169 262.637C217.444 261.247 219.048 259.841 220.981 258.418C222.904 257.001 224.684 255.732 226.321 254.617C228.254 253.359 229.496 252.634 230.034 252.441C230.561 252.238 230.929 252.364 231.133 252.815C231.16 253.122 231.561 253.243 232.341 253.166C233.747 253.051 234.176 253.529 233.638 254.595C233.11 255.666 232.638 256.539 232.231 257.209C231.644 257.901 231.133 258.852 230.693 260.066C230.243 261.269 230.298 262.395 230.869 263.45C231.078 263.922 231.666 263.993 232.649 263.669C233.643 263.334 234.143 263.164 234.143 263.164C235.681 262.724 238.104 261.659 241.416 259.956C244.739 258.242 248.892 256.056 253.874 253.386L254.314 253.122L255.017 253.057L255.281 253.276C255.588 253.408 255.748 253.595 255.764 253.826C255.792 254.062 255.665 254.276 255.391 254.463L242.537 261.714C240.455 263.021 238.526 263.988 236.758 264.614C235 265.229 234.121 265.537 234.121 265.537L233.44 265.603C232.5 265.839 231.561 265.921 230.627 265.845ZM217.202 263.955L218.564 263.362C219.476 262.823 220.668 262.016 222.146 260.945C223.629 259.863 224.431 259.231 224.563 259.055C225.151 258.368 226.183 257.572 227.661 256.66C228.584 256.254 229.034 255.891 229.001 255.583C228.974 255.276 228.804 255.177 228.496 255.276C228.188 255.38 227.452 255.88 226.277 256.77C224.772 257.55 223.283 258.55 221.816 259.78C220.355 261.011 219.256 262.043 218.52 262.878L217.202 263.955Z" fill="#231F20"/>
<path d="M261.57 271.398C261.273 271.573 260.889 271.568 260.405 271.376C259.911 271.189 259.559 270.782 259.351 270.167C259.323 269.859 259.856 268.794 260.955 266.959C262.053 265.13 263.443 262.998 265.129 260.565C266.81 258.121 268.387 255.852 269.854 253.753C271.315 251.644 272.408 250.183 273.127 249.359C273.71 248.832 274.171 248.315 274.512 247.799C274.863 247.288 275.039 247.03 275.039 247.03C274.874 247.046 274.468 247.288 273.809 247.755C273.149 248.211 272.298 248.799 271.26 249.513L263.679 255.138L261.702 256.478L259.46 257.862C258.862 258.23 258.378 258.587 258.01 258.939C257.648 259.291 257.384 259.477 257.219 259.488L256.34 260.038C255.45 260.757 254.264 261.576 252.781 262.499C251.287 263.41 249.919 264.07 248.672 264.476C247.485 265.064 246.711 265.058 246.343 264.454C245.98 263.855 246.123 262.982 246.782 261.839C247.617 260.334 249.078 258.467 251.155 256.236C253.237 254.012 255.033 252.435 256.538 251.512C260.685 248.628 263.635 248.139 265.393 250.04L266.162 250.655L267.722 249.579L271.238 246.898C271.853 246.546 272.633 246.014 273.589 245.294C274.539 244.563 275.544 243.926 276.599 243.382C280.494 240.965 283.367 238.658 285.212 236.461L293.54 226.266L295.671 223.717C297.396 221.827 298.616 220.459 299.319 219.608C300.033 218.762 301.038 217.493 302.329 215.807C303.878 213.774 305.477 211.819 307.119 209.94C308.773 208.067 310.113 206.77 311.14 206.051L314.876 202.667C315.43 201.98 316.111 201.283 316.919 200.58C317.721 199.877 318.353 199.36 318.809 199.02C321.182 197.383 322.5 197.185 322.764 198.426C322.967 199.042 322.396 200.508 321.05 202.821C319.38 205.474 316.831 208.841 313.403 212.928C312.42 214.28 310.728 216.125 308.328 218.465C305.938 220.811 304.087 222.519 302.769 223.585L299.495 226.683C298.923 227.375 297.902 228.331 296.44 229.562C294.974 230.792 293.87 231.671 293.123 232.198L289.849 235.099L286.773 237.977L282.905 242.328C280.999 244.075 278.604 246.887 275.72 250.765C272.831 254.632 270.007 258.741 267.239 263.092L261.57 271.398ZM295.386 228.705L299.121 225.299L302.615 221.937C303.345 221.234 304.29 220.328 305.449 219.212C306.603 218.086 307.69 217.004 308.701 215.961C311.278 213.06 313.101 210.973 314.172 209.698C315.255 208.413 316.282 207.018 317.249 205.523C318.787 203.183 319.281 202.112 318.743 202.315C318.199 202.508 316.469 203.914 313.557 206.534L310.723 209.391L309.031 211.456C306.993 213.511 305.361 215.538 304.131 217.543L301.318 220.86C299.176 223.102 297.501 225.03 296.287 226.639C295.084 228.238 294.782 228.924 295.386 228.705ZM250.715 260.785C250.88 260.774 251.298 260.538 251.968 260.082C252.643 259.615 253.347 259.115 254.077 258.587C256.176 257.302 257.384 256.643 257.703 256.61C257.824 256.451 258.071 256.236 258.45 255.973C258.818 255.698 259.307 255.368 259.922 254.984C260.817 254.446 261.504 253.836 261.987 253.16C262.482 252.49 262.57 252.084 262.251 251.952C261.427 251.705 260.488 251.787 259.417 252.193L257.197 253.578C256.143 254.149 255.472 254.605 255.176 254.94L253.44 256.764C252.446 257.774 251.671 258.708 251.111 259.554C250.54 260.406 250.408 260.818 250.715 260.785Z" fill="#231F20"/>
<path d="M287.874 261.281L287.083 260.16C286.863 259.578 286.769 258.968 286.797 258.337C286.813 257.694 286.885 257.128 287.017 256.645C287.225 255.519 288.22 253.893 290.005 251.767C291.779 249.63 293.015 248.064 293.718 247.065C294.438 246.378 294.965 246.175 295.3 246.449C296.124 246.686 295.97 247.647 294.839 249.328C293.872 250.663 292.62 252.426 291.082 254.623C289.543 256.81 288.873 258.128 289.06 258.578C289.445 259.183 290.302 259.029 291.631 258.117C292.966 257.211 294.394 255.986 295.916 254.447C297.426 252.898 298.673 251.437 299.673 250.075L300.068 249.328L301.321 247.812L301.76 247.065C302.463 246.219 303.134 245.845 303.782 245.944C304.76 246.164 304.798 246.988 303.892 248.405C302.98 249.828 302.029 251.212 301.035 252.558C299.376 255.079 298.904 256.777 299.607 257.655C299.827 258.271 300.31 258.436 301.057 258.139C301.815 257.831 302.2 257.677 302.2 257.677C303.897 257.194 306.402 256.095 309.714 254.382C313.038 252.668 317.185 250.492 322.151 247.856L322.612 247.592L323.052 247.548L323.557 247.724C323.876 247.856 324.008 248.048 323.953 248.295C323.892 248.531 323.716 248.746 323.425 248.932L320.723 250.58L310.835 256.205C308.726 257.337 306.792 258.249 305.034 258.952C303.276 259.655 302.397 260.007 302.397 260.007L301.694 260.05C299.717 260.699 298.453 260.578 297.915 259.699C297.36 258.809 297.102 257.804 297.146 256.689L297.08 255.744L296.86 255.986L295.366 257.568C294.784 258.084 293.861 258.787 292.598 259.677C291.323 260.572 290.219 261.061 289.28 261.149L287.874 261.281Z" fill="#231F20"/>
<path d="M329.129 257.173C328.338 257.249 327.674 256.92 327.13 256.184C326.443 255.453 326.218 254.602 326.449 253.635C326.377 252.701 326.537 251.894 326.932 251.218L327.481 249.526C327.47 249.367 326.91 249.691 325.812 250.493C324.702 251.3 323.713 252.135 322.845 252.998C321.955 253.701 320.648 254.602 318.934 255.7C317.22 256.799 316.05 257.381 315.418 257.436C314.029 257.557 313.287 257.145 313.199 256.206C313.155 255.739 313.65 254.992 314.671 253.964C315.946 252.575 317.55 251.168 319.483 249.746C321.406 248.329 323.186 247.06 324.823 245.944C326.756 244.687 327.998 243.961 328.536 243.769C329.063 243.566 329.432 243.692 329.635 244.143C329.662 244.45 330.063 244.571 330.843 244.494C332.25 244.379 332.678 244.857 332.14 245.923C331.612 246.994 331.14 247.867 330.733 248.537C330.146 249.229 329.635 250.18 329.195 251.394C328.745 252.597 328.8 253.723 329.371 254.777C329.58 255.25 330.168 255.321 331.151 254.997C332.145 254.662 332.645 254.492 332.645 254.492C334.183 254.052 336.606 252.987 339.918 251.284C343.241 249.57 347.394 247.384 352.376 244.714L352.816 244.45L353.519 244.384L353.783 244.604C354.09 244.736 354.25 244.923 354.266 245.153C354.294 245.39 354.167 245.604 353.893 245.791L341.039 253.042C338.957 254.349 337.029 255.316 335.26 255.942C333.502 256.557 332.623 256.865 332.623 256.865L331.942 256.931C331.003 257.167 330.063 257.249 329.129 257.173ZM315.704 255.283L317.066 254.69C317.978 254.151 319.17 253.344 320.648 252.273C322.131 251.19 322.933 250.559 323.065 250.383C323.653 249.696 324.685 248.9 326.163 247.988C327.086 247.581 327.536 247.219 327.503 246.911C327.476 246.604 327.306 246.505 326.998 246.604C326.69 246.708 325.954 247.208 324.779 248.098C323.274 248.878 321.785 249.878 320.318 251.108C318.857 252.339 317.759 253.371 317.022 254.206L315.704 255.283Z" fill="#231F20"/>
<path d="M455.609 198.543C457.07 199.191 456.763 200.158 454.686 201.444L452.423 202.586C452.275 202.762 451.945 202.641 451.434 202.213C451.083 201.762 451.044 201.367 451.324 201.026C451.599 200.532 451.654 200.252 451.478 200.191C451.313 200.12 450.61 200.142 449.369 200.257C448.737 200.142 447.946 200.092 446.996 200.103C446.04 200.12 445.172 200.081 444.381 199.993C443.282 199.938 440.651 199.971 436.493 200.103C432.329 200.235 427.539 200.466 422.123 200.784C416.717 201.109 411.422 201.416 406.236 201.707C401.062 202.004 396.755 202.295 393.317 202.586L392.372 202.674C392.075 202.707 391.57 202.713 390.856 202.696C390.136 202.685 389.317 202.795 388.395 203.026L387.296 203.839C387.164 204.179 386.911 204.514 386.549 204.849C386.181 205.19 385.868 205.607 385.604 206.102L383.671 208.409C383.127 209.409 382.424 210.381 381.561 211.331C380.71 212.271 379.715 213.496 378.573 215.001L374.969 219.571C374.145 220.922 373.371 222.021 372.64 222.867C372.36 223.208 371.904 223.801 371.278 224.647C370.646 225.482 369.971 226.317 369.256 227.152C367.411 229.689 365.994 231.673 365.016 233.106C364.049 234.529 363.071 235.913 362.093 237.259L359.567 240.555L357.655 243.302L351.964 250.926L344.999 260.506L341.637 265.296C339.385 268.328 336.869 271.943 334.1 276.129C331.321 280.303 328.717 284.357 326.3 288.28C323.883 292.191 321.988 295.305 320.609 297.618C319.95 298.953 319.307 300.474 318.675 302.188C318.033 303.902 317.654 305.078 317.533 305.704C317.61 306.495 317.961 306.863 318.588 306.803C319.236 306.907 319.417 307.209 319.137 307.703C319.021 308.027 318.489 308.231 317.533 308.319C316.907 308.22 316.379 307.632 315.951 306.561C315.704 305.627 315.885 304.111 316.5 302.012C316.753 301.21 316.973 300.485 317.159 299.837C317.335 299.194 317.434 298.947 317.445 299.09C317.593 299.079 317.643 298.837 317.599 298.365C317.599 298.365 317.637 298.332 317.709 298.255C317.786 298.167 317.813 298.046 317.796 297.882C318.121 298.013 318.34 297.761 318.456 297.113C318.588 296.794 318.631 296.398 318.588 295.926L318.544 295.465C318.868 295.585 320.126 293.817 322.323 290.169L330.782 276.414L336.012 268.614C337.143 266.961 338.16 265.461 339.066 264.11C339.961 262.747 340.483 261.989 340.626 261.824C340.923 261.649 341.318 261.226 341.813 260.55C342.312 259.88 342.84 259.122 343.395 258.287C345.054 255.623 346.229 253.826 346.932 252.904C347.635 251.97 348.069 251.492 348.229 251.475C348.377 251.464 348.657 251.047 349.064 250.223L350.712 247.718L352.425 245.433C354.656 242.258 356.265 239.995 357.259 238.643C358.243 237.281 359.017 236.265 359.588 235.589C360.731 234.227 361.291 233.469 361.28 233.304C361.291 233.469 361.857 232.749 362.972 231.151C364.098 229.558 364.664 228.756 364.664 228.756C365.351 227.602 366.603 225.756 368.421 223.219C370.251 220.686 372.184 218.077 374.222 215.396C376.271 212.705 377.804 210.755 378.815 209.552L381.341 206.234L381.957 205.245L382.638 204.718C382.77 204.382 382.901 204.135 383.033 203.97C383.176 203.811 383.324 203.641 383.473 203.465C380.979 203.685 378.089 203.943 374.794 204.234C371.509 204.514 369.333 204.783 368.268 205.047L360.555 206.19L354.249 206.981L348.426 207.991C345.614 208.387 343.01 208.804 340.604 209.244C338.204 209.683 336.847 210.002 336.539 210.189C335.018 210.645 333.326 211.035 331.463 211.353C329.607 211.661 328.585 211.743 328.409 211.595C327.563 210.892 328.206 210.139 330.343 209.332C330.947 209.112 332.375 208.793 334.628 208.365C336.869 207.926 339.236 207.481 341.725 207.025C344.202 206.574 346.064 206.289 347.306 206.168L352.447 205.245L385.45 201.619L386.307 200.609L387.977 198.345L388.614 197.576C388.905 197.225 389.587 196.494 390.658 195.379C391.74 194.253 392.778 193.094 393.778 191.907C394.789 190.721 395.365 190.04 395.514 189.864C395.646 189.545 396.728 188.43 398.766 186.524L400.699 184.459C400.842 184.14 401.386 183.536 402.325 182.657C403.259 181.778 403.808 181.333 403.973 181.317C404.44 181.289 404.775 181.503 404.984 181.954C405.347 182.558 405.319 183.113 404.896 183.624L404.039 184.854L401.886 186.942C401.15 187.634 400.172 188.667 398.942 190.04C397.722 191.419 396.909 192.429 396.503 193.072C395.668 194.259 394.816 195.286 393.954 196.148C393.366 196.84 392.646 197.697 391.8 198.719C390.949 199.73 390.383 200.488 390.108 200.982L394.547 200.609L401.161 200.235C402.259 200.147 404.995 199.993 409.379 199.774C413.773 199.543 418.634 199.307 423.968 199.071C429.297 198.84 434.164 198.609 438.558 198.389C442.953 198.159 445.787 198.06 447.062 198.104C449.726 198.032 451.654 198.027 452.84 198.082C454.038 198.126 454.961 198.28 455.609 198.543Z" fill="#231F20"/>
<path d="M371.569 253.434C369.696 253.758 368.526 253.906 368.054 253.873C367.587 253.829 367.235 253.428 366.999 252.665C366.62 251.907 366.834 250.704 367.636 249.061C368.724 247.084 370.355 245.057 372.536 242.975C374.706 240.882 376.931 239.344 379.216 238.36C382.847 236.603 384.951 236.333 385.522 237.547C385.742 238.163 384.165 239.877 380.798 242.689C378.864 244.288 377.271 245.496 376.008 246.315C374.75 247.122 373.503 247.743 372.272 248.182C370.91 248.611 370.108 249.231 369.855 250.05C369.284 250.742 369.24 251.138 369.724 251.236C371.163 251.604 378.271 248.303 391.059 241.327L391.52 241.041L392.224 240.975L392.465 241.195C393.108 241.448 393.223 241.832 392.817 242.359L389.872 244.029L379.743 249.654C377.798 250.929 376.26 251.775 375.129 252.181C373.986 252.593 372.8 253.011 371.569 253.434ZM372.756 245.546C372.613 245.721 372.882 245.655 373.569 245.348C374.261 245.04 375.195 244.529 376.381 243.81C377.425 243.079 378.568 242.228 379.809 241.261C381.067 240.283 381.77 239.701 381.918 239.525C381.885 239.217 381.462 239.3 380.644 239.767C379.82 240.223 379.029 240.64 378.249 241.019C377.491 241.239 376.42 241.964 375.041 243.194C373.651 244.425 372.888 245.21 372.756 245.546Z" fill="#231F20"/>
</svg>
