<svg width="282" height="390" viewBox="0 0 282 390" fill="none" xmlns="http://www.w3.org/2000/svg">
<path d="M2.05313 29.888C2.62913 29.8667 3.06646 29.8027 3.36513 29.696C3.66379 29.568 3.89846 29.312 4.06913 28.928C4.23979 28.544 4.32513 27.936 4.32513 27.104V14.848C4.32513 13.6533 4.36779 12.6933 4.45312 11.968L2.05313 12.064V9.6H18.0531L18.2451 15.808H16.1331C16.1331 14.2293 15.7491 13.1413 14.9811 12.544C14.2345 11.9253 13.3278 11.6373 12.2611 11.68L11.1091 11.712C10.5971 11.7333 10.1918 11.808 9.89313 11.936C9.59446 12.0427 9.35979 12.2987 9.18913 12.704C9.03979 13.1093 8.96513 13.7067 8.96513 14.496V19.296H12.7091C12.6878 18.9333 12.6451 18.0053 12.5811 16.512H15.0451V24.288H12.9331C12.9331 23.4347 12.7945 22.8053 12.5171 22.4C12.2611 21.9947 11.9198 21.7387 11.4931 21.632C11.0665 21.504 10.5011 21.4507 9.79713 21.472L8.96513 21.504V26.752C8.96513 27.904 8.92246 28.8427 8.83713 29.568H13.1251C14.2131 29.568 15.1305 29.2053 15.8771 28.48C16.6451 27.7333 17.0291 26.56 17.0291 24.96H19.1091L18.9491 32H2.05313V29.888ZM22.1611 20.992C21.9051 20.416 21.7238 19.9787 21.6171 19.68C21.5318 19.3813 21.4678 19.1253 21.4251 18.912C21.3825 18.6773 21.3505 18.496 21.3291 18.368L20.1451 18.432V16H27.6331V18.048C26.9078 18.0693 26.5451 18.4213 26.5451 19.104C26.5451 19.488 26.6518 19.968 26.8651 20.544L29.5531 27.168H29.5851L31.9211 20.576C32.2198 19.7653 32.5718 19.0187 32.9771 18.336V18.304L30.9931 18.432V16H37.0731V18.048C36.4118 18.1547 35.8465 18.5707 35.3771 19.296C34.9291 20.0213 34.5025 20.8853 34.0971 21.888L30.0011 32.096H27.2171L22.1611 20.992ZM45.6929 32.512C44.1355 32.512 42.7595 32.1707 41.5649 31.488C40.3702 30.784 39.4422 29.792 38.7809 28.512C38.1195 27.232 37.7889 25.7387 37.7889 24.032C37.7889 22.5387 38.1195 21.1413 38.7809 19.84C39.4635 18.5173 40.4129 17.4613 41.6289 16.672C42.8449 15.8827 44.2315 15.488 45.7889 15.488C47.8582 15.488 49.5755 16.096 50.9409 17.312C52.3275 18.528 53.0102 20.5547 52.9889 23.392L42.4929 23.584C42.4929 25.4613 42.8449 26.944 43.5489 28.032C44.2742 29.12 45.4262 29.664 47.0049 29.664C47.7515 29.664 48.5515 29.472 49.4049 29.088C50.2582 28.704 51.0262 28.096 51.7089 27.264L53.1489 28.608C51.3355 31.2107 48.8502 32.512 45.6929 32.512ZM48.5729 21.344C48.5089 18.9333 47.6342 17.728 45.9489 17.728C45.0315 17.728 44.2955 18.0587 43.7409 18.72C43.2075 19.36 42.8555 20.2347 42.6849 21.344H48.5729ZM55.3276 29.92C56.1383 29.92 56.6503 29.696 56.8636 29.248C57.0983 28.8 57.2156 28.0747 57.2156 27.072V21.696C57.2156 20.736 57.2583 19.8293 57.3436 18.976L55.1036 19.072V16.64C56.4476 16.64 57.5356 16.544 58.3676 16.352C59.1996 16.16 59.7543 15.936 60.0316 15.68H61.5996C61.5996 15.7227 61.6423 16.256 61.7276 17.28H61.7916C62.4103 16.7893 63.1676 16.3733 64.0636 16.032C64.981 15.6693 65.7596 15.488 66.3996 15.488C68.341 15.488 69.7276 16.0427 70.5596 17.152C71.3916 18.2613 71.8076 20.064 71.8076 22.56V26.848C71.8076 27.872 71.765 28.8107 71.6796 29.664C72.3836 29.6 73.077 29.568 73.7596 29.568V32H65.3756V29.92C66.1863 29.92 66.709 29.696 66.9436 29.248C67.1783 28.8 67.2956 28.0747 67.2956 27.072L67.2636 22.528C67.2636 21.12 67.061 20.0853 66.6556 19.424C66.2716 18.7627 65.6103 18.432 64.6716 18.432C64.1596 18.432 63.637 18.5493 63.1036 18.784C62.5703 18.9973 62.1223 19.2747 61.7596 19.616V26.848C61.7596 27.872 61.717 28.8107 61.6316 29.664C62.3143 29.6 63.0076 29.568 63.7116 29.568V32H55.3276V29.92ZM81.8199 32.512C78.4919 32.512 76.8279 30.464 76.8279 26.368L76.8919 18.656H74.7159V16C75.3985 16 76.0385 15.7867 76.6359 15.36C77.2545 14.9333 77.7772 14.4107 78.2039 13.792C78.6305 13.1733 78.9292 12.576 79.0999 12H81.4679L81.4359 16H85.4999V18.464L81.4359 18.56L81.4039 26.432C81.4039 28.5013 82.0439 29.536 83.3239 29.536C84.3479 29.536 85.3185 28.896 86.2359 27.616L87.7719 29.056C86.7692 30.528 85.7665 31.4773 84.7639 31.904C83.7612 32.3093 82.7799 32.512 81.8199 32.512ZM97.3969 29.888C97.9729 29.8667 98.4102 29.8027 98.7089 29.696C99.0075 29.568 99.2422 29.312 99.4129 28.928C99.5835 28.544 99.6689 27.936 99.6689 27.104V14.848C99.6689 13.6533 99.7115 12.6933 99.7969 11.968L97.3969 12.064V9.6H106.581V11.712C106.005 11.7333 105.568 11.808 105.269 11.936C104.97 12.0427 104.736 12.288 104.565 12.672C104.394 13.056 104.309 13.664 104.309 14.496V26.752C104.309 27.9467 104.266 28.9067 104.181 29.632C104.864 29.568 105.664 29.536 106.581 29.536V32H97.3969V29.888ZM109.14 29.92C109.951 29.92 110.463 29.696 110.676 29.248C110.911 28.8 111.028 28.0747 111.028 27.072V21.696C111.028 20.736 111.071 19.8293 111.156 18.976L108.916 19.072V16.64C110.26 16.64 111.348 16.544 112.18 16.352C113.012 16.16 113.567 15.936 113.844 15.68H115.412C115.412 15.7227 115.455 16.256 115.54 17.28H115.604C116.223 16.7893 116.98 16.3733 117.876 16.032C118.793 15.6693 119.572 15.488 120.212 15.488C122.153 15.488 123.54 16.0427 124.372 17.152C125.204 18.2613 125.62 20.064 125.62 22.56V26.848C125.62 27.872 125.577 28.8107 125.492 29.664C126.196 29.6 126.889 29.568 127.572 29.568V32H119.188V29.92C119.999 29.92 120.521 29.696 120.756 29.248C120.991 28.8 121.108 28.0747 121.108 27.072L121.076 22.528C121.076 21.12 120.873 20.0853 120.468 19.424C120.084 18.7627 119.423 18.432 118.484 18.432C117.972 18.432 117.449 18.5493 116.916 18.784C116.383 18.9973 115.935 19.2747 115.572 19.616V26.848C115.572 27.872 115.529 28.8107 115.444 29.664C116.127 29.6 116.82 29.568 117.524 29.568V32H109.14V29.92ZM129.548 29.92C130.359 29.92 130.881 29.696 131.116 29.248C131.351 28.8 131.468 28.0747 131.468 27.072V18.624L129.132 18.656V16H131.468V15.072C131.468 12.576 132.012 10.752 133.1 9.6C134.188 8.42666 135.735 7.84 137.74 7.84C139.127 7.84 140.151 8.11733 140.812 8.672C141.473 9.22667 141.804 9.888 141.804 10.656C141.804 11.2533 141.623 11.7653 141.26 12.192C140.897 12.5973 140.396 12.8 139.756 12.8C139.159 12.8 138.689 12.6293 138.348 12.288C138.028 11.9467 137.868 11.5093 137.868 10.976C137.868 10.6987 137.889 10.4853 137.932 10.336C137.761 10.1653 137.516 10.08 137.196 10.08C136.343 10.1013 135.916 10.7627 135.916 12.064V16H139.5V18.464L135.948 18.56L135.98 26.784C135.98 27.8507 135.937 28.8107 135.852 29.664C136.556 29.6 137.303 29.568 138.092 29.568V32H129.548V29.92ZM148.949 32.512C147.392 32.512 145.994 32.1813 144.757 31.52C143.52 30.8587 142.549 29.9093 141.845 28.672C141.141 27.4347 140.789 25.9947 140.789 24.352C140.789 22.624 141.152 21.088 141.877 19.744C142.602 18.4 143.573 17.3547 144.789 16.608C146.026 15.8613 147.381 15.488 148.853 15.488C150.389 15.488 151.765 15.8187 152.981 16.48C154.197 17.1413 155.157 18.1013 155.861 19.36C156.565 20.5973 156.917 22.048 156.917 23.712C156.917 25.4827 156.576 27.0293 155.893 28.352C155.232 29.6747 154.293 30.6987 153.077 31.424C151.882 32.1493 150.506 32.512 148.949 32.512ZM149.013 30.24C150.186 30.24 151.008 29.696 151.477 28.608C151.946 27.52 152.181 26.1547 152.181 24.512C152.181 22.6773 151.914 21.088 151.381 19.744C150.848 18.4 150.005 17.728 148.853 17.728C147.68 17.728 146.826 18.2827 146.293 19.392C145.76 20.5013 145.493 21.8667 145.493 23.488C145.493 25.344 145.781 26.9333 146.357 28.256C146.933 29.5787 147.818 30.24 149.013 30.24ZM159.234 29.92C160.045 29.92 160.557 29.696 160.77 29.248C161.005 28.8 161.122 28.0747 161.122 27.072V21.696C161.122 20.736 161.165 19.8293 161.25 18.976L159.01 19.072V16.64C160.354 16.64 161.442 16.544 162.274 16.352C163.106 16.16 163.661 15.936 163.938 15.68H165.506C165.549 16 165.581 16.416 165.602 16.928C165.623 17.44 165.634 17.9413 165.634 18.432H165.698C167.149 16.4693 168.685 15.488 170.306 15.488C171.117 15.488 171.778 15.712 172.29 16.16C172.823 16.608 173.09 17.2693 173.09 18.144C173.09 18.6987 172.909 19.2107 172.546 19.68C172.183 20.1493 171.639 20.384 170.914 20.384C170.381 20.384 169.901 20.2453 169.474 19.968C169.069 19.6907 168.834 19.2107 168.77 18.528C168.173 18.528 167.554 18.88 166.914 19.584C166.295 20.2667 165.879 20.9493 165.666 21.632V26.848C165.666 27.872 165.623 28.8107 165.538 29.664C166.221 29.6 166.914 29.568 167.618 29.568V32H159.234V29.92ZM174.609 29.92C175.42 29.92 175.932 29.696 176.145 29.248C176.38 28.8 176.497 28.0747 176.497 27.072V21.696C176.497 20.736 176.54 19.8293 176.625 18.976L174.385 19.072V16.64C175.729 16.64 176.817 16.544 177.649 16.352C178.481 16.16 179.036 15.936 179.313 15.68H180.881C180.881 15.7227 180.924 16.256 181.009 17.28H181.073C181.734 16.7467 182.481 16.32 183.313 16C184.145 15.6587 184.956 15.488 185.745 15.488C186.705 15.488 187.505 15.6693 188.145 16.032C188.806 16.3733 189.329 16.896 189.713 17.6C190.481 16.96 191.334 16.448 192.273 16.064C193.212 15.68 194.097 15.488 194.929 15.488C196.7 15.488 198.012 16 198.865 17.024C199.74 18.048 200.177 19.7547 200.177 22.144V26.848C200.177 27.872 200.134 28.8107 200.049 29.664C200.732 29.6 201.425 29.568 202.129 29.568V32H194.033V29.92C194.716 29.92 195.153 29.696 195.345 29.248C195.537 28.7787 195.633 28.0533 195.633 27.072V22.176C195.612 20.832 195.388 19.8827 194.961 19.328C194.534 18.752 193.916 18.464 193.105 18.464C192.166 18.464 191.249 18.816 190.353 19.52C190.545 20.3733 190.641 21.3867 190.641 22.56V26.848C190.641 27.872 190.598 28.8107 190.513 29.664C191.196 29.6 191.889 29.568 192.593 29.568V32H184.337V29.92C185.084 29.92 185.564 29.696 185.777 29.248C185.99 28.8 186.097 28.0747 186.097 27.072L186.065 22.08C186.065 20.7573 185.873 19.8293 185.489 19.296C185.105 18.7413 184.529 18.4533 183.761 18.432C182.822 18.432 181.916 18.8267 181.041 19.616V26.848C181.041 27.872 180.998 28.8107 180.913 29.664C181.596 29.6 182.236 29.568 182.833 29.568V32H174.609V29.92ZM208.046 32.512C206.702 32.512 205.636 32.1173 204.846 31.328C204.078 30.5173 203.694 29.4933 203.694 28.256C203.694 26.3787 204.569 24.96 206.318 24C208.068 23.0187 210.169 22.4747 212.622 22.368V20.704C212.622 18.7627 211.897 17.792 210.446 17.792C209.508 17.792 208.74 18.0907 208.142 18.688C208.398 18.9867 208.526 19.392 208.526 19.904C208.526 20.416 208.345 20.8747 207.982 21.28C207.641 21.6853 207.129 21.888 206.446 21.888C205.806 21.888 205.305 21.6853 204.942 21.28C204.58 20.8533 204.398 20.3307 204.398 19.712C204.398 18.88 204.697 18.144 205.294 17.504C205.892 16.864 206.702 16.3733 207.726 16.032C208.772 15.6693 209.913 15.488 211.15 15.488C215.097 15.488 217.07 17.5253 217.07 21.6L217.038 26.848C217.038 27.872 216.996 28.8107 216.91 29.664C217.614 29.6 218.308 29.568 218.99 29.568V32H212.942C212.9 31.7227 212.857 31.232 212.814 30.528H212.782C211.481 31.8507 209.902 32.512 208.046 32.512ZM210.062 29.376C211.022 29.376 211.865 28.992 212.59 28.224V24.64C211.332 24.768 210.286 25.088 209.454 25.6C208.644 26.112 208.238 26.8053 208.238 27.68C208.238 28.256 208.409 28.6827 208.75 28.96C209.113 29.2373 209.55 29.376 210.062 29.376ZM227.039 32.512C223.711 32.512 222.047 30.464 222.047 26.368L222.111 18.656H219.935V16C220.617 16 221.257 15.7867 221.855 15.36C222.473 14.9333 222.996 14.4107 223.423 13.792C223.849 13.1733 224.148 12.576 224.319 12H226.687L226.655 16H230.719V18.464L226.655 18.56L226.623 26.432C226.623 28.5013 227.263 29.536 228.543 29.536C229.567 29.536 230.537 28.896 231.455 27.616L232.991 29.056C231.988 30.528 230.985 31.4773 229.983 31.904C228.98 32.3093 227.999 32.512 227.039 32.512ZM238.433 12.832C237.708 12.832 237.111 12.5867 236.641 12.096C236.172 11.584 235.937 10.9653 235.937 10.24C235.937 9.51467 236.183 8.896 236.673 8.384C237.164 7.85067 237.74 7.584 238.401 7.584C239.084 7.584 239.649 7.84 240.097 8.352C240.567 8.864 240.801 9.49333 240.801 10.24C240.801 10.9867 240.577 11.6053 240.129 12.096C239.703 12.5867 239.137 12.832 238.433 12.832ZM233.921 29.92C234.732 29.92 235.244 29.696 235.457 29.248C235.692 28.8 235.809 28.0747 235.809 27.072V21.76C235.809 20.7573 235.852 19.8293 235.937 18.976L233.697 19.072V16.64C235.041 16.64 236.129 16.544 236.961 16.352C237.793 16.16 238.348 15.936 238.625 15.68H240.353V26.848C240.353 27.872 240.311 28.8107 240.225 29.664C240.908 29.6 241.601 29.568 242.305 29.568V32H233.921V29.92ZM252.23 32.512C250.673 32.512 249.275 32.1813 248.038 31.52C246.801 30.8587 245.83 29.9093 245.126 28.672C244.422 27.4347 244.07 25.9947 244.07 24.352C244.07 22.624 244.433 21.088 245.158 19.744C245.883 18.4 246.854 17.3547 248.07 16.608C249.307 15.8613 250.662 15.488 252.134 15.488C253.67 15.488 255.046 15.8187 256.262 16.48C257.478 17.1413 258.438 18.1013 259.142 19.36C259.846 20.5973 260.198 22.048 260.198 23.712C260.198 25.4827 259.857 27.0293 259.174 28.352C258.513 29.6747 257.574 30.6987 256.358 31.424C255.163 32.1493 253.787 32.512 252.23 32.512ZM252.294 30.24C253.467 30.24 254.289 29.696 254.758 28.608C255.227 27.52 255.462 26.1547 255.462 24.512C255.462 22.6773 255.195 21.088 254.662 19.744C254.129 18.4 253.286 17.728 252.134 17.728C250.961 17.728 250.107 18.2827 249.574 19.392C249.041 20.5013 248.774 21.8667 248.774 23.488C248.774 25.344 249.062 26.9333 249.638 28.256C250.214 29.5787 251.099 30.24 252.294 30.24ZM262.515 29.92C263.326 29.92 263.838 29.696 264.051 29.248C264.286 28.8 264.403 28.0747 264.403 27.072V21.696C264.403 20.736 264.446 19.8293 264.531 18.976L262.291 19.072V16.64C263.635 16.64 264.723 16.544 265.555 16.352C266.387 16.16 266.942 15.936 267.219 15.68H268.787C268.787 15.7227 268.83 16.256 268.915 17.28H268.979C269.598 16.7893 270.355 16.3733 271.251 16.032C272.168 15.6693 272.947 15.488 273.587 15.488C275.528 15.488 276.915 16.0427 277.747 17.152C278.579 18.2613 278.995 20.064 278.995 22.56V26.848C278.995 27.872 278.952 28.8107 278.867 29.664C279.571 29.6 280.264 29.568 280.947 29.568V32H272.563V29.92C273.374 29.92 273.896 29.696 274.131 29.248C274.366 28.8 274.483 28.0747 274.483 27.072L274.451 22.528C274.451 21.12 274.248 20.0853 273.843 19.424C273.459 18.7627 272.798 18.432 271.859 18.432C271.347 18.432 270.824 18.5493 270.291 18.784C269.758 18.9973 269.31 19.2747 268.947 19.616V26.848C268.947 27.872 268.904 28.8107 268.819 29.664C269.502 29.6 270.195 29.568 270.899 29.568V32H262.515V29.92Z" fill="black"/>
<path d="M77.6387 81H204.361" stroke="#614124" stroke-width="1.99662"/>
<path d="M77.6387 127.911H204.361" stroke="#614124" stroke-width="1.99662"/>
<path d="M100.304 113.23C99.6758 113.23 99.0506 113.14 98.4253 112.965C97.7967 112.8 97.2476 112.548 96.7712 112.211L96.8638 113.071H95.8316L95.7125 108.836H96.4933C96.5528 109.974 96.9432 110.854 97.6578 111.47C98.3724 112.088 99.2788 112.396 100.384 112.396C101.184 112.396 101.859 112.178 102.408 111.734C102.964 111.285 103.242 110.676 103.242 109.908C103.242 109.346 103.083 108.86 102.766 108.453C102.455 108.049 102.071 107.712 101.614 107.447C101.165 107.176 100.546 106.858 99.7618 106.494C98.8785 106.071 98.1739 105.7 97.6445 105.383C97.1218 105.065 96.6785 104.648 96.308 104.125C95.9375 103.606 95.7522 102.958 95.7522 102.18C95.7522 101.651 95.8746 101.122 96.1227 100.592C96.3676 100.063 96.791 99.613 97.3931 99.2425C97.9919 98.872 98.7892 98.6867 99.7883 98.6867C100.377 98.6867 100.973 98.7661 101.575 98.9249C102.183 99.0771 102.739 99.3351 103.242 99.7056L103.163 98.8455H104.168V103.226H103.454C103.391 102.177 103.057 101.29 102.448 100.566C101.846 99.8446 101.006 99.4807 99.9206 99.4807C99.1266 99.4807 98.5047 99.7056 98.0548 100.156C97.6048 100.599 97.3799 101.148 97.3799 101.81C97.3799 102.339 97.5288 102.799 97.8298 103.186C98.1375 103.566 98.508 103.884 98.9414 104.139C99.3814 104.387 100 104.694 100.794 105.065C101.694 105.482 102.415 105.856 102.964 106.19C103.52 106.517 103.986 106.951 104.367 107.487C104.754 108.016 104.949 108.674 104.949 109.458C104.949 110.199 104.764 110.858 104.393 111.43C104.029 111.996 103.497 112.436 102.792 112.753C102.094 113.071 101.264 113.23 100.304 113.23Z" fill="#262728"/>
<path d="M115.378 113.23C113.976 113.23 112.864 112.982 112.044 112.489C111.23 111.986 110.648 111.225 110.297 110.199C109.953 109.177 109.781 107.824 109.781 106.137V102.101C109.781 101.254 109.807 100.486 109.86 99.7983L108.431 99.8644V99.0043H112.877V99.666C112.295 99.666 111.925 99.8214 111.766 100.129C111.607 100.43 111.528 100.797 111.528 101.227V106.243C111.528 107.391 111.627 108.387 111.832 109.233C112.034 110.074 112.434 110.762 113.036 111.298C113.645 111.827 114.508 112.092 115.63 112.092C117.013 112.092 118.038 111.622 118.7 110.676C119.368 109.733 119.719 108.446 119.745 106.812L119.812 101.227C119.812 100.672 119.828 100.195 119.864 99.7983L118.462 99.8777V99.0043H122.154V99.666C121.677 99.6759 121.337 99.7817 121.135 99.9835C120.94 100.179 120.83 100.414 120.804 100.685C120.778 100.959 120.764 101.433 120.764 102.101L120.725 106.719C120.705 108.635 120.278 110.199 119.441 111.417C118.601 112.628 117.248 113.23 115.378 113.23Z" fill="#262728"/>
<path d="M128.066 101.651H128.053L128.106 110.146C128.106 111.04 128.093 111.695 128.066 112.118L129.495 112.039V112.912H125.87V112.251C126.399 112.251 126.746 112.102 126.915 111.801C127.09 111.493 127.18 111.122 127.18 110.689L127.193 99.7983L125.87 99.8777V99.0043H128.225L136.694 110.332H136.707L136.734 101.227C136.734 100.672 136.75 100.195 136.787 99.7983L135.358 99.8777V99.0043H139.01V99.666C138.613 99.6759 138.315 99.752 138.123 99.8909C137.938 100.033 137.819 100.222 137.766 100.46C137.713 100.698 137.687 101.016 137.687 101.413V102.101L137.647 113.23H136.694L128.066 101.651Z" fill="#262728"/>
<path d="M142.951 112.251C143.407 112.244 143.735 112.141 143.93 111.946C144.132 111.744 144.247 111.506 144.274 111.232C144.3 110.96 144.314 110.487 144.314 109.816V101.227C144.314 100.672 144.333 100.195 144.38 99.7983L142.951 99.8777V99.0043L147.635 98.9911C150.123 98.9745 152.095 99.5568 153.55 100.738C155.006 101.912 155.734 103.659 155.734 105.978C155.734 107.222 155.443 108.373 154.86 109.432C154.278 110.491 153.418 111.337 152.28 111.973C151.142 112.601 149.769 112.912 148.164 112.912H142.951V112.251ZM148.111 112.158C149.223 112.158 150.206 111.89 151.062 111.351C151.926 110.805 152.597 110.054 153.074 109.101C153.55 108.148 153.788 107.083 153.788 105.899C153.788 103.967 153.259 102.455 152.2 101.36C151.142 100.268 149.544 99.7189 147.41 99.7189C146.95 99.7189 146.619 99.8115 146.418 99.9968C146.222 100.182 146.113 100.414 146.087 100.685C146.06 100.959 146.047 101.433 146.047 102.101V110.57C146.047 111.258 146.024 111.774 145.981 112.118C146.447 112.145 147.159 112.158 148.111 112.158Z" fill="#262728"/>
<path d="M158.516 112.251C158.85 112.251 159.115 112.178 159.31 112.026C159.512 111.877 159.674 111.678 159.8 111.43C159.922 111.185 160.071 110.818 160.25 110.332L160.448 109.776L164.537 98.6337H165.014L169.447 109.935C169.586 110.289 169.711 110.676 169.817 111.099C169.923 111.516 169.97 111.854 169.963 112.118L171.313 112.039V112.912H166.761V112.251C167.535 112.244 167.925 111.926 167.925 111.298C167.925 111.053 167.859 110.742 167.727 110.371L167.038 108.506L161.878 108.625C161.672 109.164 161.441 109.869 161.176 110.742C161.044 111.185 160.878 111.642 160.687 112.118L162.235 112.039V112.912H158.516V112.251ZM166.761 107.765L165.345 103.98L164.458 101.532H164.418L163.585 103.781L162.513 106.799L162.169 107.765H166.761Z" fill="#262728"/>
<path d="M177.33 112.251C177.892 112.224 178.259 112.065 178.428 111.774C178.593 111.483 178.679 111.033 178.679 110.424V109.816L178.693 107.553L175.239 102.088C174.63 101.145 174.273 100.394 174.167 99.838L172.936 99.8777V99.0043H178.057V99.666C177.025 99.666 176.509 99.9571 176.509 100.539C176.509 100.883 176.675 101.313 177.012 101.823L177.621 102.802C178.468 104.178 179.202 105.3 179.831 106.163H179.87C180.327 105.247 181.035 103.894 181.988 102.101L182.411 101.333C182.798 100.602 183.116 100.099 183.364 99.8247L181.789 99.8777V99.0043H185.852V99.666C185.223 99.7023 184.704 99.9141 184.29 100.301C183.873 100.682 183.42 101.32 182.927 102.22L180.426 106.957C180.406 107.602 180.393 108.291 180.386 109.022C180.386 109.746 180.39 110.252 180.4 110.543C180.4 111.251 180.38 111.774 180.347 112.118L181.988 112.039V112.912H177.33V112.251Z" fill="#262728"/>
<path d="M54.0203 185.945C54.6591 185.945 55.1651 185.806 55.5383 185.515C55.9241 185.231 56.2341 184.851 56.4744 184.377C56.7085 183.909 56.9931 183.207 57.3347 182.277L57.7142 181.214L65.5321 159.911H66.4429L74.9186 181.518C75.1843 182.195 75.4247 182.935 75.6271 183.744C75.8295 184.541 75.918 185.186 75.9054 185.692L78.486 185.541V187.21H69.7826V185.945C71.2627 185.933 72.0091 185.326 72.0091 184.124C72.0091 183.656 71.8826 183.061 71.6295 182.353L70.3139 178.785L60.4466 179.013C60.0545 180.044 59.6117 181.391 59.1057 183.061C58.8527 183.909 58.5364 184.782 58.1696 185.692L61.1298 185.541V187.21H54.0203V185.945ZM69.7826 177.368L67.0754 170.132L65.3803 165.452H65.3044L63.7104 169.753L61.6611 175.522L61.0033 177.368H69.7826Z" fill="#262728"/>
<path d="M96.2895 187.818C93.6076 187.818 91.4823 187.343 89.9137 186.401C88.3577 185.439 87.2445 183.985 86.574 182.024C85.9162 180.069 85.5873 177.482 85.5873 174.257V166.54C85.5873 164.921 85.6379 163.453 85.7391 162.138L83.0066 162.264V160.619H91.5076V161.885C90.3944 161.885 89.686 162.182 89.3824 162.77C89.0788 163.346 88.927 164.048 88.927 164.87V174.459C88.927 176.654 89.1167 178.558 89.5089 180.177C89.8947 181.784 90.6601 183.099 91.8112 184.124C92.9751 185.136 94.6259 185.642 96.7702 185.642C99.4141 185.642 101.375 184.744 102.64 182.935C103.918 181.132 104.588 178.672 104.639 175.547L104.765 164.87C104.765 163.807 104.797 162.897 104.866 162.138L102.185 162.289V160.619H109.243V161.885C108.333 161.903 107.681 162.106 107.295 162.492C106.922 162.865 106.713 163.314 106.663 163.833C106.612 164.358 106.587 165.262 106.587 166.54L106.511 175.37C106.473 179.032 105.657 182.024 104.057 184.352C102.45 186.667 99.8632 187.818 96.2895 187.818Z" fill="#262728"/>
<path d="M128.872 187.818C126.342 187.818 124.096 187.274 122.142 186.198C120.2 185.123 118.682 183.586 117.588 181.594C116.506 179.589 115.968 177.217 115.968 174.484C115.968 172.005 116.462 169.671 117.461 167.476C118.454 165.268 119.947 163.472 121.939 162.087C123.944 160.708 126.354 160.012 129.175 160.012C130.541 160.012 131.92 160.202 133.325 160.569C134.741 160.942 135.981 161.454 137.044 162.112L136.892 160.291H138.967V168.994H137.6C137.43 166.654 136.588 164.819 135.07 163.504C133.565 162.188 131.686 161.53 129.428 161.53C127.638 161.53 126 162.055 124.52 163.099C123.033 164.13 121.851 165.566 120.978 167.4C120.118 169.241 119.687 171.315 119.687 173.624C119.687 176.002 120.118 178.128 120.978 180C121.838 181.872 123.033 183.339 124.57 184.402C126.12 185.465 127.885 185.996 129.858 185.996C130.934 185.996 132.047 185.838 133.198 185.515C134.362 185.199 135.412 184.725 136.361 184.098V175.775L133.704 175.926V174.257H142.281V175.522C141.067 175.522 140.308 175.99 140.004 176.913C139.7 177.824 139.549 178.861 139.549 180.025V185.844H138.511C137.449 185.844 136.082 186.173 134.412 186.831C133.653 187.135 132.749 187.369 131.705 187.539C130.674 187.723 129.732 187.818 128.872 187.818Z" fill="#262728"/>
<path d="M161.34 187.818C158.658 187.818 156.533 187.343 154.964 186.401C153.408 185.439 152.295 183.985 151.624 182.024C150.967 180.069 150.638 177.482 150.638 174.257V166.54C150.638 164.921 150.688 163.453 150.789 162.138L148.057 162.264V160.619H156.558V161.885C155.445 161.885 154.736 162.182 154.433 162.77C154.129 163.346 153.977 164.048 153.977 164.87V174.459C153.977 176.654 154.167 178.558 154.559 180.177C154.945 181.784 155.71 183.099 156.862 184.124C158.025 185.136 159.676 185.642 161.821 185.642C164.465 185.642 166.425 184.744 167.69 182.935C168.968 181.132 169.639 178.672 169.689 175.547L169.816 164.87C169.816 163.807 169.847 162.897 169.917 162.138L167.235 162.289V160.619H174.294V161.885C173.383 161.903 172.732 162.106 172.346 162.492C171.972 162.865 171.764 163.314 171.713 163.833C171.663 164.358 171.637 165.262 171.637 166.54L171.561 175.37C171.523 179.032 170.707 182.024 169.107 184.352C167.501 186.667 164.914 187.818 161.34 187.818Z" fill="#262728"/>
<path d="M190.202 187.818C189.001 187.818 187.805 187.647 186.61 187.312C185.408 186.995 184.358 186.515 183.447 185.87L183.624 187.514H181.651L181.423 179.418H182.916C183.03 181.594 183.776 183.276 185.142 184.453C186.509 185.636 188.242 186.224 190.354 186.224C191.885 186.224 193.175 185.806 194.225 184.959C195.288 184.098 195.819 182.935 195.819 181.467C195.819 180.392 195.516 179.462 194.908 178.684C194.314 177.912 193.58 177.267 192.707 176.761C191.847 176.243 190.664 175.635 189.165 174.94C187.476 174.13 186.129 173.422 185.117 172.814C184.118 172.207 183.27 171.41 182.562 170.411C181.853 169.418 181.499 168.178 181.499 166.692C181.499 165.68 181.733 164.668 182.207 163.656C182.675 162.644 183.485 161.783 184.636 161.075C185.781 160.366 187.306 160.012 189.216 160.012C190.342 160.012 191.48 160.164 192.631 160.468C193.795 160.759 194.858 161.252 195.819 161.96L195.667 160.316H197.59V168.69H196.224C196.104 166.685 195.465 164.99 194.301 163.605C193.15 162.226 191.543 161.53 189.469 161.53C187.951 161.53 186.762 161.96 185.901 162.821C185.041 163.668 184.611 164.718 184.611 165.983C184.611 166.995 184.896 167.874 185.471 168.614C186.059 169.342 186.768 169.949 187.596 170.436C188.438 170.911 189.621 171.499 191.139 172.207C192.859 173.004 194.238 173.719 195.288 174.358C196.351 174.984 197.242 175.813 197.97 176.837C198.71 177.849 199.083 179.108 199.083 180.607C199.083 182.024 198.729 183.283 198.02 184.377C197.325 185.458 196.306 186.3 194.959 186.907C193.624 187.514 192.037 187.818 190.202 187.818Z" fill="#262728"/>
<path d="M212.445 185.945C213.539 185.895 214.241 185.591 214.545 185.035C214.861 184.478 215.026 183.618 215.026 182.454V181.29L215.076 162.036L211.155 162.062C209.586 162.062 208.46 162.593 207.79 163.656C207.132 164.706 206.803 166.363 206.803 168.64H205.386L205.614 160.619H227.752L227.98 168.64H226.538C226.519 167.04 226.361 165.768 226.057 164.819C225.766 163.877 225.279 163.169 224.589 162.694C223.894 162.226 222.901 161.986 221.604 161.986H218.365L218.34 182.682C218.34 184.035 218.296 185.035 218.214 185.692L221.376 185.541V187.211H212.445V185.945Z" fill="#262728"/>
<path d="M88.4635 303.712C92.6128 303.548 95.4844 302.283 97.091 299.917C98.6913 297.539 99.4946 293.984 99.4946 289.24L99.3681 229.379H99.1151L83.8841 239.145L81.354 235.476L106.098 217.083H110.399L110.526 294.073C110.526 298.292 110.399 301.201 110.146 302.802L120.798 302.296V307.887H88.4635V303.712Z" fill="#B88E63"/>
<path d="M164.684 309.911C152.926 309.911 144.596 305.433 139.687 296.476C134.792 287.507 132.35 276.634 132.35 263.864C132.35 256.172 133.501 248.759 135.816 241.624C138.144 234.477 141.762 228.595 146.67 223.99C151.579 219.385 157.752 217.083 165.19 217.083C172.882 217.083 179.093 219.347 183.837 223.863C188.575 228.386 191.959 234.11 193.983 241.043C196.007 247.975 197.019 255.375 197.019 263.231C197.019 270.859 195.893 278.222 193.654 285.319C191.427 292.422 187.872 298.298 183.002 302.953C178.144 307.596 172.034 309.911 164.684 309.911ZM165.443 304.977C172.034 304.977 176.765 301.195 179.637 293.617C182.521 286.046 183.964 276.811 183.964 265.913C183.964 253.737 182.502 243.358 179.586 234.768C176.664 226.185 171.781 221.89 164.937 221.89C158.169 221.89 153.223 225.748 150.086 233.452C146.961 241.144 145.405 250.397 145.405 261.207C145.405 272.542 146.904 282.675 149.909 291.593C152.907 300.518 158.087 304.977 165.443 304.977Z" fill="#B88E63"/>
<path d="M77.6404 341.911H204.36" stroke="#614124" stroke-width="1.99662"/>
<path d="M77.6404 388.819H204.36" stroke="#614124" stroke-width="1.99662"/>
<path d="M90.1199 373.159C90.454 373.159 90.7187 373.086 90.9139 372.934C91.1157 372.785 91.2778 372.587 91.4035 372.339C91.5259 372.094 91.6748 371.727 91.8534 371.24L92.0519 370.685L96.1409 359.543H96.6173L101.05 370.844C101.189 371.197 101.315 371.585 101.421 372.008C101.527 372.425 101.573 372.762 101.566 373.027L102.916 372.948V373.821H98.364V373.159C99.1382 373.153 99.5285 372.835 99.5285 372.207C99.5285 371.962 99.4624 371.651 99.33 371.28L98.6419 369.414L93.4811 369.533C93.2759 370.073 93.0444 370.777 92.7797 371.651C92.6474 372.094 92.482 372.551 92.2901 373.027L93.8383 372.948V373.821H90.1199V373.159ZM98.364 368.673L96.9481 364.889L96.0615 362.441H96.0218L95.1881 364.69L94.1162 367.707L93.7722 368.673H98.364Z" fill="#262728"/>
<path d="M108.787 373.159C109.36 373.133 109.727 372.974 109.886 372.683C110.051 372.392 110.137 371.942 110.137 371.333V370.724L110.164 360.654L108.112 360.667C107.292 360.667 106.703 360.945 106.352 361.501C106.008 362.05 105.836 362.917 105.836 364.108H105.095L105.214 359.913H116.793L116.912 364.108H116.158C116.148 363.271 116.066 362.606 115.907 362.11C115.755 361.617 115.5 361.246 115.139 360.998C114.775 360.753 114.256 360.628 113.578 360.628H111.884L111.871 371.452C111.871 372.16 111.847 372.683 111.804 373.027L113.459 372.947V373.821H108.787V373.159Z" fill="#262728"/>
<path d="M128.036 373.159C128.687 373.133 129.137 372.934 129.385 372.564C129.64 372.193 129.769 371.637 129.769 370.896L129.743 361.527H129.703L127.321 363.049L126.924 362.48L130.801 359.595H131.476L131.489 371.651C131.489 372.312 131.47 372.772 131.437 373.027L133.104 372.948V373.821H128.036V373.159Z" fill="#262728"/>
<path d="M141.963 374.138C140.117 374.138 138.814 373.437 138.046 372.034C137.279 370.632 136.895 368.931 136.895 366.926C136.895 365.729 137.073 364.568 137.437 363.446C137.808 362.328 138.377 361.405 139.144 360.681C139.912 359.959 140.878 359.595 142.042 359.595C143.24 359.595 144.213 359.953 144.954 360.667C145.701 361.375 146.237 362.268 146.555 363.354C146.872 364.439 147.031 365.6 147.031 366.834C147.031 368.025 146.853 369.176 146.502 370.288C146.148 371.399 145.589 372.322 144.821 373.053C144.06 373.778 143.108 374.138 141.963 374.138ZM142.082 373.358C143.114 373.358 143.855 372.769 144.305 371.585C144.755 370.403 144.98 368.958 144.98 367.244C144.98 365.339 144.749 363.717 144.292 362.374C143.832 361.025 143.068 360.35 142.003 360.35C140.944 360.35 140.167 360.955 139.674 362.163C139.187 363.373 138.946 364.822 138.946 366.516C138.946 368.289 139.177 369.874 139.647 371.267C140.114 372.663 140.924 373.358 142.082 373.358Z" fill="#262728"/>
<path d="M157.195 373.159C157.529 373.159 157.793 373.086 157.989 372.934C158.19 372.785 158.353 372.587 158.478 372.339C158.601 372.094 158.75 371.727 158.928 371.24L159.127 370.685L163.216 359.543H163.692L168.125 370.844C168.264 371.197 168.39 371.585 168.496 372.008C168.602 372.425 168.648 372.762 168.641 373.027L169.991 372.948V373.821H165.439V373.159C166.213 373.153 166.603 372.835 166.603 372.207C166.603 371.962 166.537 371.651 166.405 371.28L165.717 369.414L160.556 369.533C160.351 370.073 160.119 370.777 159.855 371.651C159.722 372.094 159.557 372.551 159.365 373.027L160.913 372.948V373.821H157.195V373.159ZM165.439 368.673L164.023 364.889L163.136 362.441H163.097L162.263 364.69L161.191 367.707L160.847 368.673H165.439Z" fill="#262728"/>
<path d="M179.197 371.532C178.191 369.302 177.411 367.542 176.855 366.252C176.299 364.955 175.757 363.592 175.227 362.163L175.214 363.036C175.088 366.92 175.015 369.686 174.989 371.333C174.989 371.538 174.982 371.684 174.976 371.77C174.976 372.22 174.953 372.64 174.91 373.027L176.405 372.947V373.821H172.607V373.159C173.163 373.153 173.523 372.997 173.692 372.696C173.858 372.398 173.957 371.942 173.983 371.333L174.42 360.707L172.991 360.773V359.913H176.021L178.721 366.159C179.7 368.461 180.454 370.208 180.984 371.399H181.023C181.182 371.002 181.519 370.149 182.042 368.832C182.545 367.562 183.121 366.169 183.776 364.65C184.523 362.871 185.172 361.289 185.721 359.913H188.659V360.575C188.182 360.558 187.828 360.687 187.6 360.958C187.378 361.233 187.269 361.693 187.269 362.335L187.282 362.732L187.799 371.77C187.825 372.081 187.838 372.491 187.838 373L189.294 372.947V373.821H184.848V373.159C185.357 373.153 185.708 373.007 185.893 372.723C186.078 372.431 186.171 371.981 186.171 371.373C186.171 371.128 186.164 370.936 186.158 370.804L185.642 362.335C185.615 362.407 185.575 362.493 185.522 362.599C185.476 362.705 185.43 362.831 185.377 362.97L180.904 374.019H180.309L179.197 371.532Z" fill="#262728"/>
</svg>
